<svg xmlns="http://www.w3.org/2000/svg" width="9.087" height="9.088" viewBox="0 0 9.087 9.088">
  <g id="Сгруппировать_32" data-name="Сгруппировать 32" transform="translate(-3713.043 -47.207)">
    <path id="Контур_26" data-name="Контур 26" d="M3722.107,49.879a3.336,3.336,0,0,0-.212-1.1,2.22,2.22,0,0,0-.525-.806,2.245,2.245,0,0,0-.8-.524,3.351,3.351,0,0,0-1.1-.211c-.486-.023-.641-.028-1.875-.028s-1.388.005-1.873.026a3.324,3.324,0,0,0-1.1.212,2.211,2.211,0,0,0-.806.525,2.244,2.244,0,0,0-.524.8,3.324,3.324,0,0,0-.211,1.1c-.023.486-.029.641-.029,1.875s.006,1.388.027,1.873a3.3,3.3,0,0,0,.211,1.1,2.331,2.331,0,0,0,1.33,1.33,3.312,3.312,0,0,0,1.1.211c.485.022.64.027,1.873.027s1.389,0,1.874-.027a3.315,3.315,0,0,0,1.1-.211,2.323,2.323,0,0,0,1.33-1.33,3.318,3.318,0,0,0,.211-1.1c.021-.485.027-.639.027-1.873S3722.128,50.363,3722.107,49.879Zm-.819,3.71a2.488,2.488,0,0,1-.156.844,1.505,1.505,0,0,1-.863.862,2.486,2.486,0,0,1-.843.157c-.48.021-.623.026-1.836.026s-1.358-.005-1.836-.026a2.475,2.475,0,0,1-.843-.157,1.393,1.393,0,0,1-.522-.339,1.412,1.412,0,0,1-.339-.522,2.487,2.487,0,0,1-.156-.843c-.022-.479-.027-.623-.027-1.836s.005-1.358.027-1.835a2.488,2.488,0,0,1,.156-.844,1.383,1.383,0,0,1,.341-.522,1.411,1.411,0,0,1,.522-.339,2.485,2.485,0,0,1,.843-.156c.479-.021.623-.027,1.836-.027s1.358.006,1.836.027a2.485,2.485,0,0,1,.843.156,1.4,1.4,0,0,1,.522.339,1.418,1.418,0,0,1,.339.522,2.494,2.494,0,0,1,.156.844c.021.479.027.623.027,1.835S3721.309,53.11,3721.288,53.589Z" fill="#fff"/>
    <path id="Контур_27" data-name="Контур 27" d="M3717.588,49.417a2.334,2.334,0,1,0,2.335,2.335A2.335,2.335,0,0,0,3717.588,49.417Zm0,3.849a1.514,1.514,0,1,1,1.515-1.514A1.514,1.514,0,0,1,3717.588,53.266Z" fill="#fff"/>
    <path id="Контур_28" data-name="Контур 28" d="M3720.56,49.325a.545.545,0,1,1-.545-.545A.545.545,0,0,1,3720.56,49.325Z" fill="#fff"/>
  </g>
</svg>
