<svg xmlns="http://www.w3.org/2000/svg" width="9.087" height="9.088"><g data-name="Сгруппировать 32" fill="#fff"><path data-name="Контур 26" d="M9.064 2.672a3.336 3.336 0 00-.212-1.1 2.22 2.22 0 00-.525-.806 2.245 2.245 0 00-.8-.524 3.351 3.351 0 00-1.1-.211C5.941.008 5.786.003 4.552.003S3.164.008 2.679.029a3.324 3.324 0 00-1.1.212 2.211 2.211 0 00-.806.525 2.244 2.244 0 00-.524.8 3.324 3.324 0 00-.211 1.1c-.023.486-.029.641-.029 1.875s.006 1.388.027 1.873a3.3 3.3 0 00.211 1.1 2.331 2.331 0 001.33 1.33 3.312 3.312 0 001.1.211c.485.022.64.027 1.873.027s1.389 0 1.874-.027a3.315 3.315 0 001.1-.211 2.323 2.323 0 001.33-1.33 3.318 3.318 0 00.211-1.1c.021-.485.027-.639.027-1.873s-.007-1.385-.028-1.869zm-.819 3.71a2.488 2.488 0 01-.156.844 1.505 1.505 0 01-.863.862 2.486 2.486 0 01-.843.157c-.48.021-.623.026-1.836.026s-1.358-.005-1.836-.026a2.475 2.475 0 01-.843-.157 1.393 1.393 0 01-.522-.339 1.412 1.412 0 01-.339-.522 2.487 2.487 0 01-.156-.843C.829 5.905.824 5.761.824 4.548S.829 3.19.851 2.713a2.488 2.488 0 01.156-.844 1.383 1.383 0 01.341-.522 1.411 1.411 0 01.522-.339 2.485 2.485 0 01.843-.156c.479-.021.623-.027 1.836-.027s1.358.006 1.836.027a2.485 2.485 0 01.843.156 1.4 1.4 0 01.522.339 1.418 1.418 0 01.339.522 2.494 2.494 0 01.156.844c.021.479.027.623.027 1.835s-.006 1.355-.027 1.834z"/><path data-name="Контур 27" d="M4.545 2.21A2.334 2.334 0 106.88 4.545 2.335 2.335 0 004.545 2.21zm0 3.849A1.514 1.514 0 116.06 4.545a1.514 1.514 0 01-1.515 1.514z"/><path data-name="Контур 28" d="M7.517 2.118a.545.545 0 11-.545-.545.545.545 0 01.545.545z"/></g></svg>