<svg xmlns="http://www.w3.org/2000/svg" width="246.454" height="53.106"><g data-name="Сгруппировать 24"><text transform="translate(52.234 45.106)" fill="#fff" font-size="30.984" font-family="SegoeUI, Segoe UI"><tspan x="0" y="0">дизайнер</tspan></text><g data-name="Сгруппировать 23" fill="#fff"><path data-name="Контур 1" d="M3.308 18.367c0 .135.019.193.116.193.251 0 2.631 0 3.076-.038.464-.039.735-.078.909-.271.135-.155.213-.252.29-.252.058 0 .1.039.1.155a19.366 19.366 0 00-.232 2.322c0 .212-.02.367-.136.367-.1 0-.135-.077-.135-.174a1.961 1.961 0 00-.078-.638c-.077-.271-.251-.6-1.005-.677-.523-.059-2.438-.1-2.767-.1a.122.122 0 00-.135.135V24.4c0 1.276.348 1.586 2.244 1.586a5.542 5.542 0 001.857-.213c.5-.213.735-.6.871-1.393.038-.213.077-.29.174-.29.116 0 .116.155.116.29a18.884 18.884 0 01-.252 1.877c-.135.5-.29.5-1.045.5-2.921 0-4.217-.116-4.778-.116-.5 0-1.47.058-1.9.058-.212 0-.309-.039-.309-.155 0-.058.039-.116.155-.116a2.03 2.03 0 00.58-.077c.309-.1.406-.271.522-.832a38.408 38.408 0 00.136-4.43v-3.4c0-3.25-.02-4.063-.058-4.392a.861.861 0 00-.813-.889 3.58 3.58 0 00-.658-.058c-.077 0-.154-.039-.154-.116 0-.117.1-.155.309-.155.871 0 2.09.058 2.186.058 2.09 0 4.063-.02 4.372-.039s.774-.058.851-.077c.116-.039.194-.116.271-.116s.116.116.116.212c0 .136-.1.368-.154.91-.02.193-.059 1.044-.1 1.277-.02.1-.058.193-.155.193s-.135-.078-.135-.213a2.066 2.066 0 00-.175-.735c-.116-.252-.58-.638-1.721-.638-.116 0-1.857-.058-2.244-.058-.077 0-.116.038-.116.174z"/><path data-name="Контур 2" d="M17.122 26.434a6.786 6.786 0 01-.754-.077c-.581-.078-.7-.5-.755-1.065-.1-.812-.1-2.34-.1-4.2v-1.9h.1c.623.766 2.673 3.01 4.219 4.622a2.969 2.969 0 01.544-.859 2.407 2.407 0 01.472-.4c-1.485-1.509-3.549-3.651-3.9-4.042.406-.484 3.772-3.773 4.256-4.237a7.2 7.2 0 012.089-1.664 2.861 2.861 0 011.084-.27c.154 0 .193-.039.193-.136s-.077-.135-.29-.135c-.484 0-1.761.058-1.857.058-.465 0-1.064-.058-1.451-.058-.136 0-.232.038-.232.135 0 .077.077.116.174.155a.379.379 0 01.251.406c0 .329-.5.832-1.044 1.393-.7.755-4.2 4.314-4.527 4.682h-.077V17.69c0-3.018 0-3.56.038-4.179.039-.677.193-1.006.716-1.1a2.842 2.842 0 01.484-.058c.077 0 .154-.039.154-.116 0-.117-.1-.155-.309-.155-.581 0-1.7.058-1.877.058-.116 0-1.257-.058-2.128-.058-.212 0-.309.038-.309.155 0 .077.077.116.154.116a3.583 3.583 0 01.658.058c.639.135.793.445.832 1.1.039.619.039 1.161.039 4.179v3.4c0 1.857 0 3.385-.1 4.2-.077.562-.174.987-.561 1.065a3.037 3.037 0 01-.58.077c-.116 0-.155.058-.155.116 0 .116.1.155.309.155.581 0 1.7-.058 1.858-.058s1.276.058 2.224.058c.213 0 .31-.058.31-.155.003-.056-.036-.114-.152-.114z"/><path data-name="Контур 3" d="M34.295 12.505c.29.735 3.327 8.725 4.507 11.665.7 1.722 1.257 2.032 1.664 2.148a2.518 2.518 0 00.774.116c.116 0 .193.019.193.116 0 .116-.174.155-.387.155-.29 0-1.7 0-3.037-.039-.368-.019-.58-.019-.58-.135a.145.145 0 01.135-.136.27.27 0 00.155-.271.61.61 0 00-.039-.251l-1.8-4.759a.169.169 0 00-.174-.116h-4.159a.2.2 0 00-.194.155l-1.161 3.424a4.079 4.079 0 00-.27 1.3c0 .387.406.561.735.561h.193c.135 0 .194.039.194.116 0 .116-.116.155-.29.155-.465 0-1.3-.058-1.51-.058s-1.276.058-2.186.058c-.251 0-.367-.039-.367-.155 0-.077.077-.116.174-.116a6 6 0 00.561-.039c.89-.116 1.277-.851 1.625-1.818l4.392-12.014c.231-.638.309-.754.425-.754s.195.093.427.692zm1.16 7.8c.1 0 .1-.059.078-.136l-1.838-5.223c-.058-.155-.1-.213-.155-.213-.039 0-.1.077-.135.213l-1.7 5.223c-.039.1 0 .136.057.136z"/><path data-name="Контур 4" d="M47.151 21.095c0 1.857 0 3.385.1 4.2.058.562.174.987.754 1.065a8.637 8.637 0 00.871.077c.116 0 .155.058.155.116 0 .1-.1.155-.31.155-1.064 0-2.283-.058-2.379-.058s-1.316.058-1.9.058c-.213 0-.31-.039-.31-.155 0-.058.039-.116.155-.116a3.037 3.037 0 00.58-.077c.387-.078.484-.5.561-1.065.1-.812.1-2.34.1-4.2v-8.183l-2.863.038c-1.2.02-1.664.155-1.973.619a3.4 3.4 0 00-.329.6c-.058.155-.116.193-.194.193-.058 0-.1-.057-.1-.174 0-.193.387-1.857.425-2.012.039-.116.116-.367.194-.367a3.628 3.628 0 00.851.232c.561.058 1.3.1 1.528.1h7.255a9.349 9.349 0 001.915-.194c.1 0 .1.116.1.232 0 .581-.058 1.916-.058 2.129 0 .174-.058.251-.136.251-.1 0-.135-.058-.155-.329l-.019-.213c-.077-.58-.522-1.025-2.379-1.064l-2.438-.038z"/><path data-name="Контур 5" d="M58.509 18.367c0 .135.019.193.116.193.251 0 2.631 0 3.076-.038.464-.039.735-.078.909-.271.136-.155.213-.252.29-.252.058 0 .1.039.1.155a19.386 19.386 0 00-.232 2.322c0 .212-.019.367-.135.367-.1 0-.136-.077-.136-.174a1.978 1.978 0 00-.077-.638c-.078-.271-.252-.6-1.006-.677-.523-.059-2.438-.1-2.767-.1a.122.122 0 00-.135.135V24.4c0 1.276.348 1.586 2.244 1.586a5.543 5.543 0 001.857-.213c.5-.213.735-.6.871-1.393.038-.213.077-.29.174-.29.116 0 .116.155.116.29a18.884 18.884 0 01-.252 1.877c-.135.5-.29.5-1.044.5-2.921 0-4.218-.116-4.778-.116-.5 0-1.471.058-1.9.058-.213 0-.31-.039-.31-.155 0-.058.039-.116.155-.116a2.03 2.03 0 00.58-.077c.31-.1.406-.271.523-.832a38.755 38.755 0 00.135-4.43v-3.4c0-3.25-.019-4.063-.058-4.392a.861.861 0 00-.813-.889 3.575 3.575 0 00-.657-.058c-.078 0-.155-.039-.155-.116 0-.117.1-.155.309-.155.871 0 2.09.058 2.187.058 2.089 0 4.062-.02 4.371-.039s.774-.058.852-.077c.116-.039.193-.116.27-.116s.116.116.116.212c0 .136-.1.368-.154.91-.02.193-.058 1.044-.1 1.277-.019.1-.058.193-.155.193s-.135-.078-.135-.213a2.084 2.084 0 00-.174-.735c-.116-.252-.581-.638-1.722-.638-.116 0-1.857-.058-2.244-.058-.077 0-.116.038-.116.174z"/><path data-name="Контур 6" d="M69.17 17.69c0-3.018 0-3.56-.039-4.179-.038-.657-.193-.967-.831-1.1a3.6 3.6 0 00-.658-.058c-.078 0-.155-.039-.155-.116 0-.117.1-.155.31-.155.87 0 2.031.058 2.186.058.425 0 1.547-.058 2.437-.058 2.418 0 3.289.812 3.6 1.1a3.361 3.361 0 01.968 2.3 4.491 4.491 0 01-4.759 4.6 2.774 2.774 0 01-.407-.02c-.1 0-.212-.038-.212-.135 0-.155.116-.174.522-.174a3.213 3.213 0 003.346-3.154 4.1 4.1 0 00-1.083-2.979 3.361 3.361 0 00-2.65-.967 2.387 2.387 0 00-.832.116c-.116.039-.155.174-.155.368v7.951c0 1.857 0 3.385.1 4.2.058.562.174.987.755 1.065a8.592 8.592 0 00.87.077c.116 0 .155.058.155.116 0 .1-.1.155-.31.155-1.064 0-2.282-.058-2.379-.058-.058 0-1.277.058-1.857.058-.213 0-.31-.039-.31-.155 0-.058.039-.116.155-.116a3.035 3.035 0 00.58-.077c.387-.078.484-.5.561-1.065.1-.812.1-2.34.1-4.2z"/><path data-name="Контур 7" d="M82.076 17.69c-.039-3.018 0-3.56-.039-4.179-.039-.657-.193-.967-.832-1.1a3.58 3.58 0 00-.658-.058c-.077 0-.154-.039-.154-.116 0-.117.1-.155.309-.155.871 0 2.09.058 2.186.058s1.316-.058 1.9-.058c.213 0 .31.038.31.155 0 .077-.078.116-.155.116a2.837 2.837 0 00-.484.058c-.522.1-.677.425-.715 1.1-.039.619-.039 3.618-.039 10 0 .155.1.174.174.077 2.747-3.192 5.455-6.422 9.421-11.549.251-.406.561-.329.464.31v8.744c0 1.857 0 3.385.1 4.2.058.562.174.987.754 1.065a8.639 8.639 0 00.871.077c.116 0 .155.058.155.116 0 .1-.1.155-.31.155-1.064 0-2.283-.058-2.379-.058s-1.316.058-1.9.058c-.213 0-.309-.039-.309-.155 0-.058.038-.116.154-.116a3.037 3.037 0 00.58-.077c.387-.078.484-.5.562-1.065.1-.812.1-2.34.1-4.2v-5.589c0-.232-.1-.348-.271-.136-2.553 2.979-5.087 6.017-7.486 9.151l-1.606 2.07-.232.309c-.251.406-.561.329-.464-.309z"/><path data-name="Контур 8" d="M112.818 21.095c0 1.857 0 3.385.1 4.2.058.562.174.987.755 1.065a8.586 8.586 0 00.87.077c.116 0 .155.058.155.116 0 .1-.1.155-.31.155-1.064 0-2.282-.058-2.379-.058s-1.316.058-1.9.058c-.213 0-.309-.039-.309-.155 0-.058.038-.116.154-.116a3.047 3.047 0 00.581-.077c.387-.078.483-.5.561-1.065.1-.812.1-2.34.1-4.2v-1.819a.112.112 0 00-.116-.116h-8.2a.1.1 0 00-.116.116v1.819c0 1.857 0 3.385.1 4.2.058.562.174.987.754 1.065a8.639 8.639 0 00.871.077c.116 0 .154.058.154.116 0 .1-.1.155-.309.155-1.064 0-2.283-.058-2.38-.058s-1.315.058-1.9.058c-.213 0-.31-.039-.31-.155 0-.058.039-.116.155-.116a3.037 3.037 0 00.58-.077c.387-.078.484-.5.561-1.065.1-.812.1-2.34.1-4.2v-3.4c0-3.018 0-3.56-.039-4.179-.039-.657-.193-.967-.832-1.1a3.575 3.575 0 00-.657-.058c-.078 0-.155-.039-.155-.116 0-.117.1-.155.309-.155.871 0 2.09.058 2.186.058s1.316-.058 1.9-.058c.213 0 .31.038.31.155 0 .077-.078.116-.155.116a2.852 2.852 0 00-.484.058c-.522.1-.677.425-.716 1.1-.038.619-.038 1.374-.038 4.392v.406a.1.1 0 00.116.116h8.2a.1.1 0 00.116-.116v-.406c0-3.018 0-3.773-.038-4.392-.039-.657-.194-.967-.832-1.1a3.6 3.6 0 00-.658-.058c-.077 0-.155-.039-.155-.116 0-.117.1-.155.31-.155.87 0 2.089.058 2.186.058s1.315-.058 1.9-.058c.213 0 .309.038.309.155 0 .077-.077.116-.155.116a2.843 2.843 0 00-.483.058c-.522.1-.677.425-.716 1.1-.039.619-.039 1.161-.039 4.179z"/><path data-name="Контур 9" d="M123.831 12.505c.29.735 3.327 8.725 4.507 11.665.7 1.722 1.258 2.032 1.664 2.148a2.518 2.518 0 00.774.116c.116 0 .193.019.193.116 0 .116-.174.155-.387.155-.29 0-1.7 0-3.037-.039-.367-.019-.58-.019-.58-.135a.145.145 0 01.135-.136.271.271 0 00.155-.271.621.621 0 00-.038-.251l-1.8-4.759a.168.168 0 00-.174-.116h-4.159a.2.2 0 00-.193.155l-1.161 3.424a4.084 4.084 0 00-.271 1.3c0 .387.406.561.735.561h.194c.135 0 .193.039.193.116 0 .116-.116.155-.29.155-.465 0-1.3-.058-1.509-.058s-1.277.058-2.186.058c-.252 0-.368-.039-.368-.155 0-.077.078-.116.174-.116.136 0 .407-.02.561-.039.89-.116 1.277-.851 1.625-1.818l4.392-12.014c.232-.638.309-.754.425-.754s.192.093.426.692zm1.161 7.8c.1 0 .1-.059.077-.136l-1.838-5.227c-.058-.155-.1-.213-.154-.213-.039 0-.1.077-.136.213l-1.7 5.223c-.039.1 0 .136.058.136z"/><path data-name="Контур 10" d="M140.992 17.69c0-3.018 0-3.56-.039-4.179-.039-.657-.193-.967-.832-1.1a3.582 3.582 0 00-.658-.058c-.077 0-.154-.039-.154-.116 0-.117.1-.155.309-.155.871 0 2.012.058 2.128.058.174 0 1.3-.058 1.877-.058.213 0 .309.038.309.155 0 .077-.077.116-.154.116a2.842 2.842 0 00-.484.058c-.523.1-.677.425-.716 1.1-.038.619-.038 1.161-.038 4.179v1.161h.077c.329-.368 3.83-3.927 4.527-4.682.541-.561 1.044-1.064 1.044-1.393a.379.379 0 00-.251-.406c-.1-.039-.174-.078-.174-.155 0-.1.1-.135.232-.135.387 0 .986.058 1.451.058.1 0 1.373-.058 1.857-.058.213 0 .29.038.29.135s-.039.136-.193.136a2.86 2.86 0 00-1.084.27 7.2 7.2 0 00-2.089 1.664c-.484.464-3.85 3.753-4.256 4.237.5.561 4.527 4.72 5.32 5.455 1.625 1.509 1.954 1.818 2.882 2.205a3.566 3.566 0 001.2.252c.135 0 .251.039.251.116 0 .1-.1.155-.425.155h-.987c-.542 0-.909 0-1.335-.039a4.005 4.005 0 01-2.341-1.18c-.87-.716-4.971-5.146-5.9-6.287h-.1v1.9c0 1.857 0 3.385.1 4.2.058.562.174.987.755 1.065a6.786 6.786 0 00.754.077c.116 0 .155.058.155.116 0 .1-.1.155-.31.155-.948 0-2.07-.058-2.224-.058s-1.277.058-1.858.058c-.212 0-.309-.039-.309-.155 0-.058.039-.116.155-.116a3.035 3.035 0 00.58-.077c.387-.078.484-.5.561-1.065.1-.812.1-2.34.1-4.2z"/><path data-name="Контур 11" d="M161.443 11.809c4.352 0 7.6 2.747 7.6 7.254a7.593 7.593 0 01-7.712 7.913c-5.3 0-7.505-4.121-7.505-7.6a7.488 7.488 0 017.617-7.567zm.406 14.431c1.741 0 5.339-1.005 5.339-6.635 0-4.643-2.824-7.138-5.881-7.138-3.23 0-5.649 2.128-5.649 6.364 0 4.511 2.709 7.411 6.191 7.411z"/><path data-name="Контур 12" d="M176.67 19.242l-3.1-5.2a3.089 3.089 0 00-1.509-1.548 3.424 3.424 0 00-.812-.135c-.117 0-.174-.059-.174-.136 0-.1.077-.135.328-.135.542 0 2.109.058 2.264.058.174 0 1.161-.058 1.818-.058.271 0 .329.038.329.135s-.058.136-.174.136a1.724 1.724 0 00-.522.058.321.321 0 00-.232.329 1.422 1.422 0 00.193.638 91.63 91.63 0 002.612 4.623c.58-.831 2.65-4.14 2.843-4.546a1.516 1.516 0 00.194-.7.426.426 0 00-.329-.348 2.251 2.251 0 00-.581-.058c-.116 0-.174-.039-.174-.136 0-.077.1-.135.329-.135.736 0 1.548.058 1.722.058s.967-.058 1.625-.058c.213 0 .309.058.309.135s-.077.136-.212.136a2.143 2.143 0 00-.639.1c-.561.174-.928.735-1.489 1.567l-3.115 4.682c.368.6 3.676 6.229 4.082 6.751a2.1 2.1 0 001.142.871 3.054 3.054 0 00.676.116c.1 0 .155.039.155.116 0 .1-.1.155-.271.155-1.18 0-2.108-.02-3.095-.039-.5-.039-.6-.058-.6-.155a.147.147 0 01.117-.154c.1-.039.27-.233.1-.542-1.044-1.9-2.166-3.811-3.327-5.765l-3.018 5.126a1.953 1.953 0 00-.251.852.373.373 0 00.309.367 2.7 2.7 0 00.368.039.138.138 0 01.154.135c0 .1-.1.136-.232.136-.464 0-1.683-.058-1.857-.058s-1.122.058-1.76.058c-.155 0-.194-.058-.194-.136a.138.138 0 01.155-.135 3.067 3.067 0 00.735-.1c.581-.155.967-.58 1.606-1.567z"/><path data-name="Контур 13" d="M193.541 11.809c4.353 0 7.6 2.747 7.6 7.254a7.594 7.594 0 01-7.719 7.913c-5.3 0-7.506-4.121-7.506-7.6a7.489 7.489 0 017.625-7.567zm.407 14.431c1.741 0 5.339-1.005 5.339-6.635 0-4.643-2.824-7.138-5.881-7.138-3.231 0-5.649 2.128-5.649 6.364 0 4.511 2.709 7.411 6.191 7.411z"/><path data-name="Контур 14" d="M214.631 22.542c0 2.069-1.625 4.217-4.933 4.217-.445 0-2.418-.116-2.573-.116-.1 0-1.315.058-1.9.058-.213 0-.309-.039-.309-.155 0-.058.038-.116.155-.116a2.03 2.03 0 00.58-.077c.309-.1.406-.271.522-.832a38.347 38.347 0 00.136-4.43v-3.4c0-3.25-.02-4.063-.059-4.392a.86.86 0 00-.812-.889 3.6 3.6 0 00-.658-.058c-.077 0-.154-.039-.154-.116 0-.117.1-.155.309-.155.871 0 2.089.058 2.186.058.464 0 1.219-.058 2.109-.058 3.172 0 3.869 1.934 3.869 2.9a4.871 4.871 0 01-1.819 3.483 4.516 4.516 0 013.351 4.078zm-6.771-4.43c0 .135.039.174.135.212a6.861 6.861 0 001.181.078c1.083 0 1.354-.039 1.76-.5a2.994 2.994 0 00.7-1.954c0-1.606-.715-3.328-2.611-3.328a4.355 4.355 0 00-.929.1c-.174.039-.232.1-.232.213zm0 5.648c0 1.451.078 1.8.677 2.09a4.56 4.56 0 001.7.29 2.581 2.581 0 002.727-2.747 4.7 4.7 0 00-1.876-3.908 3.363 3.363 0 00-2.07-.58c-1.142 0-1.161.019-1.161.154z"/><path data-name="Контур 15" d="M221.714 18.367c0 .135.019.193.116.193.251 0 2.631 0 3.076-.038.464-.039.735-.078.909-.271.135-.155.213-.252.29-.252.058 0 .1.039.1.155a19.366 19.366 0 00-.232 2.322c0 .212-.02.367-.136.367-.1 0-.135-.077-.135-.174a1.961 1.961 0 00-.078-.638c-.077-.271-.251-.6-1.006-.677-.522-.059-2.437-.1-2.766-.1a.122.122 0 00-.135.135V24.4c0 1.276.348 1.586 2.244 1.586a5.542 5.542 0 001.857-.213c.5-.213.735-.6.87-1.393.039-.213.078-.29.174-.29.117 0 .117.155.117.29a18.884 18.884 0 01-.252 1.877c-.135.5-.29.5-1.045.5-2.921 0-4.217-.116-4.778-.116-.5 0-1.47.058-1.9.058-.213 0-.309-.039-.309-.155 0-.058.038-.116.155-.116a2.03 2.03 0 00.58-.077c.309-.1.406-.271.522-.832a38.408 38.408 0 00.136-4.43v-3.4c0-3.25-.02-4.063-.058-4.392a.861.861 0 00-.813-.889 3.6 3.6 0 00-.658-.058c-.077 0-.154-.039-.154-.116 0-.117.1-.155.309-.155.87 0 2.089.058 2.186.058 2.09 0 4.062-.02 4.372-.039s.774-.058.851-.077c.116-.039.194-.116.271-.116s.116.116.116.212c0 .136-.1.368-.155.91-.019.193-.058 1.044-.1 1.277-.02.1-.058.193-.155.193s-.135-.078-.135-.213a2.087 2.087 0 00-.175-.735c-.116-.252-.58-.638-1.721-.638-.116 0-1.857-.058-2.244-.058-.078 0-.116.038-.116.174z"/><path data-name="Контур 16" d="M242.337 25.292c.1-.812.1-2.34.1-4.2v-3.4c0-3.018 0-3.56-.039-4.179-.038-.657-.193-.967-.831-1.1a3.6 3.6 0 00-.658-.058c-.077 0-.155-.039-.155-.116 0-.117.1-.155.31-.155.87 0 2.089.058 2.186.058s1.315-.058 1.9-.058c.212 0 .309.038.309.155 0 .077-.077.116-.155.116a2.843 2.843 0 00-.483.058c-.523.1-.677.425-.716 1.1-.039.619-.039 1.161-.039 4.179v3.4c0 1.47 0 2.727.039 3.6-.039 1.567 1.006 1.219 1.277 1.2a9.218 9.218 0 001.006-.155c.1 0 .077.117.058.233-.117.58-.387 2.011-.426 2.224-.039.174-.077.252-.193.252-.1 0-.155-.058-.136-.329v-.213c0-.6.058-1.257-1.509-1.257h-.928c-.078 0-.774.038-1.374.058h-7.049c-.832-.02-1.567-.058-1.645-.058-.1 0-1.315.058-1.9.058-.212 0-.309-.039-.309-.155 0-.058.039-.116.155-.116a3.037 3.037 0 00.58-.077c.387-.078.484-.5.561-1.065.1-.812.1-2.34.1-4.2v-3.4c0-3.018 0-3.56-.039-4.179-.039-.657-.193-.967-.832-1.1a3.583 3.583 0 00-.658-.058c-.077 0-.154-.039-.154-.116 0-.117.1-.155.309-.155.871 0 2.09.058 2.186.058s1.316-.058 1.9-.058c.213 0 .309.038.309.155 0 .077-.077.116-.154.116a2.837 2.837 0 00-.484.058c-.522.1-.677.425-.715 1.1-.039.619-.039 1.142-.039 7.584 0 1.857 0 3.385.1 4.2a1.68 1.68 0 00.155.678 68.257 68.257 0 007.951 0 2.744 2.744 0 00.129-.683z"/><path data-name="Контур 17" d="M26.372 28.417l-9.454-9.953h-.585l-.859.773 9.109 9.574c4.165 4.393 7.661 3.934 9.206 3.577v-.234c-2.872.015-5.543-1.747-7.417-3.737z"/></g><path data-name="Прямоугольник 35" fill="none" d="M42.726 1h166.495v.437H42.726z"/><path data-name="Контур 18" d="M42.731 1.436V.999h166.49v9.8h1v-10.8H41.731v10.8h1z" fill="#cc870b"/><path data-name="Прямоугольник 36" fill="none" d="M42.726 1.436h166.495v9.363H42.726z"/><path data-name="Контур 19" d="M209.221 28.095v9.8h-44.974v1h45.974v-10.8z" fill="#cc870b"/><path data-name="Контур 20" d="M42.731 37.894v-9.8h-1v10.8h44.458v-1z" fill="#cc870b"/></g></svg>