<svg xmlns="http://www.w3.org/2000/svg" width="5.684" height="9.825" viewBox="0 0 5.684 9.825">
  <path id="Контур_29" data-name="Контур 29" d="M3688.775,51.909a2.535,2.535,0,1,0-2.536-2.534,2.535,2.535,0,0,0,2.536,2.534m0-3.584a1.05,1.05,0,1,1-1.05,1.05,1.051,1.051,0,0,1,1.05-1.05Zm1.025,5.653a4.745,4.745,0,0,0,1.473-.61.743.743,0,0,0-.792-1.258,3.224,3.224,0,0,1-3.414,0,.743.743,0,0,0-.791,1.257h0a4.735,4.735,0,0,0,1.471.61l-1.417,1.418a.743.743,0,0,0,1.051,1.051l1.392-1.393,1.394,1.393a.742.742,0,0,0,1.049-1.049Z" transform="translate(-3685.93 -46.838)" fill="#fff"/>
</svg>
