<svg xmlns="http://www.w3.org/2000/svg" width="8.595" height="8" viewBox="0 0 8.595 8">
  <path id="Контур_23" data-name="Контур 23" d="M3802.038,48.185c-.141-.337-.248-.35-.461-.358q-.121-.008-.243-.009a1.049,1.049,0,0,0-.742.261,2.312,2.312,0,0,0-.743,1.766,4.152,4.152,0,0,0,.862,2.188,9.082,9.082,0,0,0,3.613,3.191c1.668.691,2.163.627,2.543.546a2.049,2.049,0,0,0,1.425-1.024,1.81,1.81,0,0,0,.123-1.007c-.051-.089-.192-.14-.405-.247s-1.25-.619-1.446-.687a.406.406,0,0,0-.521.158,8.78,8.78,0,0,1-.567.751.461.461,0,0,1-.512.081,5.364,5.364,0,0,1-1.7-1.05,6.424,6.424,0,0,1-1.177-1.463c-.124-.213-.013-.337.085-.452.107-.132.209-.226.316-.35a1.252,1.252,0,0,0,.234-.333.428.428,0,0,0-.03-.392c-.051-.107-.477-1.148-.652-1.57Z" transform="translate(-3799.849 -47.818)" fill="#fff"/>
</svg>
