<svg xmlns="http://www.w3.org/2000/svg" width="8.595" height="8"><path data-name="Контур 23" d="M2.189.367C2.048.03 1.941.017 1.728.009Q1.607.001 1.485 0a1.049 1.049 0 00-.742.261A2.312 2.312 0 000 2.027a4.152 4.152 0 00.862 2.188 9.082 9.082 0 003.613 3.191c1.668.691 2.163.627 2.543.546a2.049 2.049 0 001.425-1.024 1.81 1.81 0 00.123-1.007c-.051-.089-.192-.14-.405-.247s-1.25-.619-1.446-.687a.406.406 0 00-.521.158 8.78 8.78 0 01-.567.751.461.461 0 01-.512.081 5.364 5.364 0 01-1.7-1.05 6.424 6.424 0 01-1.177-1.463c-.124-.213-.013-.337.085-.452.107-.132.209-.226.316-.35a1.252 1.252 0 00.234-.333.428.428 0 00-.03-.392C2.792 1.83 2.366.789 2.191.367z" fill="#fff"/></svg>