<svg xmlns="http://www.w3.org/2000/svg" width="9.548" height="8"><path data-name="Контур 24" d="M3.599 7.282c.047-.651.095-1.28.136-1.91a.288.288 0 01.127-.205l2.785-2.516 1.139-1.027c.043-.039.11-.08.08-.146s-.118-.054-.177-.035a1.116 1.116 0 00-.224.112Q5.089 3.048 2.717 4.546a.476.476 0 01-.451.059c-.633-.21-1.272-.4-1.909-.6-.156-.05-.338-.1-.356-.288s.156-.292.311-.354c.669-.269 1.342-.528 2.016-.788l6.5-2.5c.034-.013.067-.026.1-.037a.432.432 0 01.62.456 4.4 4.4 0 01-.147.8q-.657 3.114-1.325 6.225a1.017 1.017 0 01-.071.222.407.407 0 01-.547.233 1.217 1.217 0 01-.327-.19c-.624-.46-1.253-.915-1.87-1.385-.145-.11-.223-.087-.339.029-.3.3-.613.6-.921.89a.766.766 0 01-.108.1c-.08.053-.173.127-.263.083s-.004-.163-.031-.219z" fill="#fcfdfe"/></svg>