<svg xmlns="http://www.w3.org/2000/svg" width="21.432" height="21.426"><g data-name="Сгруппировать 27"><path data-name="Контур 22" d="M10.713.25a10.456 10.456 0 00-8.47 16.6l-1.3 3.887 4.023-1.285a10.462 10.462 0 105.757-19.2z" fill="none" stroke="#fff" stroke-miterlimit="10" stroke-width=".5"/><path data-name="Контур 23" d="M8.724 7.17c-.141-.337-.248-.35-.461-.358q-.121-.008-.243-.009a1.049 1.049 0 00-.742.261 2.312 2.312 0 00-.743 1.766 4.152 4.152 0 00.862 2.188 9.082 9.082 0 003.613 3.191c1.668.691 2.163.627 2.543.546a2.049 2.049 0 001.425-1.024 1.81 1.81 0 00.123-1.007c-.051-.089-.192-.14-.405-.247s-1.25-.619-1.446-.687a.406.406 0 00-.521.158 8.78 8.78 0 01-.567.751.461.461 0 01-.512.081 5.364 5.364 0 01-1.7-1.05 6.424 6.424 0 01-1.177-1.463c-.124-.213-.013-.337.085-.452.107-.132.209-.226.316-.35a1.252 1.252 0 00.234-.333.428.428 0 00-.03-.392c-.051-.107-.477-1.148-.652-1.57z" fill="#fff"/></g></svg>