<svg xmlns="http://www.w3.org/2000/svg" width="9.548" height="8" viewBox="0 0 9.548 8">
  <path id="Контур_24" data-name="Контур 24" d="M3773.315,54.465c.047-.651.095-1.28.136-1.91a.288.288,0,0,1,.127-.205l2.785-2.516,1.139-1.027c.043-.039.11-.08.08-.146s-.118-.054-.177-.035a1.116,1.116,0,0,0-.224.112q-2.376,1.493-4.748,2.991a.476.476,0,0,1-.451.059c-.633-.21-1.272-.4-1.909-.6-.156-.05-.338-.1-.356-.288s.156-.292.311-.354c.669-.269,1.342-.528,2.016-.788l6.5-2.5c.034-.013.067-.026.1-.037a.432.432,0,0,1,.62.456,4.4,4.4,0,0,1-.147.8q-.657,3.114-1.325,6.225a1.017,1.017,0,0,1-.071.222.407.407,0,0,1-.547.233,1.217,1.217,0,0,1-.327-.19c-.624-.46-1.253-.915-1.87-1.385-.145-.11-.223-.087-.339.029-.3.3-.613.6-.921.89a.766.766,0,0,1-.108.1c-.08.053-.173.127-.263.083S3773.342,54.521,3773.315,54.465Z" transform="translate(-3769.716 -47.183)" fill="#fcfdfe"/>
</svg>
