<?xml version="1.0" standalone="no"?>
<!DOCTYPE svg PUBLIC "-//W3C//DTD SVG 1.1//EN" "http://www.w3.org/Graphics/SVG/1.1/DTD/svg11.dtd" >
<svg>
<metadata>
Created by FontForge 20090914 at Wed Jul 20 09:33:39 2022
 By www-data
Copyright (c) Ivan Zeifert works, 2005. All rights reserved.
</metadata>
<defs>
<font id="CeremoniousTwo" horiz-adv-x="324" >
  <font-face 
    font-family="Ceremonious Two"
    font-weight="400"
    font-stretch="normal"
    units-per-em="1000"
    panose-1="2 0 5 7 0 0 0 2 0 3"
    ascent="800"
    descent="-200"
    x-height="292"
    cap-height="783.002"
    bbox="-750.619 -318.001 2096.04 783.002"
    underline-thickness="50"
    underline-position="-50"
    unicode-range="U+0020-U+2030"
  />
<missing-glyph horiz-adv-x="500" 
 />
    <glyph glyph-name=".notdef" horiz-adv-x="500" 
 />
    <glyph glyph-name="space" unicode=" " horiz-adv-x="500" 
 />
    <glyph glyph-name="exclam" unicode="!" horiz-adv-x="264" 
d="M463 498c0 -12 -6.33398 -24.333 -19.001 -37c-80 -82.667 -196.667 -197 -350 -343c-18 -17.333 -28.333 -25 -31 -23c-2 1.33301 -3 3 -3 5c0 4 6 12.667 18 26l287 325l37 41c16.667 16 30.334 24 41.001 24c13.333 0 20 -6 20 -18zM38.999 23
c0 -18 -9.33301 -27 -28 -27c-19.333 0 -29 9 -29 27c0 7.33301 3 14 9 20s12.667 9 20 9s13.833 -3 19.5 -9s8.5 -12.667 8.5 -20z" />
    <glyph glyph-name="quotedbl" unicode="&#x22;" horiz-adv-x="383" 
d="M587 512c0 -9.33301 -12.998 -25.667 -38.998 -49l-244 -208c-4 -3.33301 -7.33301 -4.33301 -10 -3s-2.33398 4 0.999023 8l210 216c31.333 32 53.666 48 66.999 48c10 0 15 -4 15 -12zM466.002 510.999c0 -9.33301 -12.999 -25.334 -38.999 -48.001l-244 -208
c-4 -3.33301 -7.33301 -4.33301 -10 -3c-2 0.666992 -2 3.33398 0 8.00098l210 216c31.333 32 53.666 48 66.999 48c10.667 0 16 -4.33301 16 -13z" />
    <glyph glyph-name="numbersign" unicode="#" horiz-adv-x="436" 
d="M508 398l-127 -140h76l-26 -25h-73l-68 -78h93l-25 -24h-91l-114 -130l-40 -9l122 139h-99l-123 -139l-41 -8l133 147h-92l26 24h88l69 78h-98l28 25h92l111 124l39 8l-118 -132h98l120 132zM327 233h-99l-70 -78h100z" />
    <glyph glyph-name="dollar" unicode="$" horiz-adv-x="258" 
d="M382 422c4 -2.66699 3.66895 -6.33398 -0.998047 -11.001l-56 -66c8.66699 -11.333 10.334 -25.333 5.00098 -42c-5.33301 -17.333 -15.333 -32 -30 -44s-29.334 -18 -44.001 -18c-7.33301 0 -13.333 0.666992 -18 2l-54 -64c1.33301 -17.333 -0.666992 -34.333 -6 -51
c-8 -26 -24.5 -50.167 -49.5 -72.5s-52.5 -35.833 -82.5 -40.5l-46 -53c-4.66699 -5.33301 -8.66699 -7 -12 -5c-2.66699 2 -1.66699 5.33301 3 10c7.33301 9.33301 20.666 25.333 39.999 48c-14.667 0 -28 2.33301 -40 7c-11.333 -14 -29.333 -35 -54 -63
c-4.66699 -5.33301 -8.33398 -6.66602 -11.001 -3.99902c-1.33301 1.33301 -0.333008 5.33301 3 12l52 61c-12.667 16 -17.334 34.333 -14.001 55c6 21.333 18.167 38.833 36.5 52.5s36.5 20.5 54.5 20.5c12 0 20.333 -2.66699 25 -8l53 60c-2 18 -1 34.667 3 50
c7.33301 27.333 23 51 47 71s49.667 31.333 77 34l48 55c5.33301 5.33301 9.33301 7 12 5s2.33398 -5.33301 -0.999023 -10l-44 -50c14.667 -2 27.334 -5.33301 38.001 -10l53 63c5.33301 5.33301 9.66602 7.33301 12.999 6zM319.002 305c3.33301 12 2.66797 22 -1.99902 30
l-60 -70c4 -2.66699 12.333 -3 25 -1c19.333 6 31.666 19.667 36.999 41zM252.004 348c-33.333 -8 -56.333 -29.667 -69 -65c0 -0.666992 -0.5 -3.5 -1.5 -8.5s-1.5 -8.83301 -1.5 -11.5zM308.004 343c-9.33301 4.66699 -18.667 7.00098 -28 7.00098
c-6 0 -10 -0.333008 -12 -1l-89 -103c0 1.33301 1 -16 3 -52l47 56c-1.33301 1.33301 -2.66602 4.66602 -3.99902 9.99902c-0.666992 4 -0.333984 7.33301 0.999023 10s4.33301 3.66699 9 3c2 0 5 -1.33301 9 -4zM141.003 146.001
c-1.33301 22.667 -2.33398 38.667 -3.00098 48l-48 -55c2 -6.66699 2.66699 -12 2 -16c-2 -7.33301 -5.33301 -11 -10 -11c-4 1.33301 -7 3.33301 -9 6l-75 -87c9.33301 -4 20 -6 32 -6c2.66699 0 6.33398 0.333008 11.001 1zM141.002 128.001l-84 -100
c16.667 3.33301 33 12.833 49 28.5s26.667 34.5 32 56.5c2 5.33301 3 10.333 3 15zM64.002 126.001c-7.33301 8.66699 -18.667 11.6689 -34 9.00195c-8 -1.33301 -17 -6.33301 -27 -15c-11.333 -10.667 -19 -22.334 -23 -35.001c-6 -18.667 -3 -34.334 9 -47.001z" />
    <glyph glyph-name="percent" unicode="%" horiz-adv-x="452" 
d="M422 176c0 -25.333 -19.666 -58.002 -58.999 -98.002c-28 -29.333 -55.333 -51.666 -82 -66.999s-46.334 -21.333 -59.001 -18c-14.667 4 -22 14.333 -22 31c0 28 17.333 59.667 52 95c22.667 22.667 47.667 41.334 75 56.001s50.333 22 69 22c17.333 0 26 -7 26 -21z
M491.001 365.998c4.66699 -4.66699 3.66406 -8.99805 -3.00293 -12.998l-524 -395c-8.66699 -5.33301 -16.667 -7 -24 -5c-2.66699 1.33301 -4 3 -4 5c0 4 5 10 15 18c4 2.66699 156.333 114 457 334c-23.333 -10.667 -46.666 -16 -69.999 -16c-24 0 -40 9.33301 -48 28
c-10 -24.667 -28 -50.334 -54 -77.001c-28 -28.667 -55.5 -50.834 -82.5 -66.501s-46.833 -21.834 -59.5 -18.501c-14.667 4 -22 14.333 -22 31c0 28 17.333 59.667 52 95c22.667 22.667 47.834 41.334 75.501 56.001s50.5 22 68.5 22c18.667 0 27.334 -8 26.001 -24
c8.66699 -22.667 23.667 -34 45 -34c22.667 0 48.667 7.33301 78 22l57 33c9.33301 5.33301 15 7 17 5zM274.998 355c-23.333 0 -65.333 -31.332 -126 -93.999c-38.667 -40 -58 -67.333 -58 -82c0 -7.33301 4 -11 12 -11c23.333 0 65.333 31.333 126 94
c36.667 37.333 55 65.666 55 84.999c0 5.33301 -3 8 -9 8zM401.998 189.001c-22.667 0 -64.333 -31.667 -125 -95c-38.667 -40.667 -58 -67.667 -58 -81c0 -7.33301 3.66699 -11 11 -11c24 0 66.333 31 127 93c36 36.667 54 65 54 85c0 6 -3 9 -9 9z" />
    <glyph glyph-name="ampersand" unicode="&#x26;" horiz-adv-x="630" 
d="M661 239c-61.333 -90.667 -144.332 -161.002 -248.999 -211.002c14.667 -28 37 -42 67 -42c30.667 0 61.667 12.333 93 37c4.66699 4.66699 8.33398 6.33398 11.001 5.00098c1.33301 -0.666992 2 -1.66699 2 -3c0 -2.66699 -4 -7.66699 -12 -15
c-36.667 -33.333 -74.334 -51 -113.001 -53c-45.333 -2 -78.666 14.333 -99.999 49c-60.667 -23.333 -124 -35 -190 -35c-40.667 0 -74.334 8 -101.001 24c-31.333 18.667 -46.333 46.334 -45 83.001c1.33301 43.333 31.666 88 90.999 134c-10 21.333 -15 45.333 -15 72
c0 34.667 8.66699 69 26 103c30.667 60 81.667 111 153 153c74 43.333 149.333 65 226 65c72 0 127.333 -17.667 166 -53c36 -32 54 -75.333 54 -130c0 -59.333 -21.333 -120.333 -64 -183zM595.001 529.998c-19.333 0 -40.333 -11.668 -63 -35.001
c-42 -43.333 -76.667 -90.666 -104 -141.999c64.667 32 112.667 62.667 144 92c28.667 26 43 48.333 43 67c0 12 -6.66699 18 -20 18zM638.001 242.997c46 65.333 68.999 126.332 68.999 182.999c0 48.667 -17.333 87 -52 115c-36.667 30 -88.334 45 -155.001 45
c-75.333 0 -144.666 -19 -207.999 -57s-111.333 -89.667 -144 -155c-15.333 -30.667 -23 -62 -23 -94c0 -19.333 3 -37.333 9 -54c18.667 12.667 41 25.334 67 38.001c10 4.66699 70.667 29 182 73c40 71.333 84.667 126.666 134 165.999c33.333 26.667 61.333 40 84 40
c18 0 27 -9 27 -27c0 -24.667 -14 -50.667 -42 -78c-35.333 -34.667 -90.666 -69.667 -165.999 -105c-14 -30 -24.333 -72.333 -31 -127c-2.66699 -19.333 -4 -38.333 -4 -57c0 -42.667 6 -78 18 -106c94.667 44.667 173 111.334 235 200.001zM377 317.996
c-37.333 -15.333 -92.002 -40.333 -164.002 -75c-24 -13.333 -45.667 -28.333 -65 -45c18.667 -27.333 44 -41.333 76 -42c12.667 0 23.334 1 32.001 3c4 1.33301 6.33301 1 7 -1c0.666992 -1.33301 -2.66602 -4 -9.99902 -8c-14.667 -4 -26.334 -6 -35.001 -6
c-34 0.666992 -62.333 14 -85 40c-35.333 -36.667 -53 -72 -53 -106c0 -27.333 10 -48.5 30 -63.5s46.667 -22.5 80 -22.5c53.333 0 107.333 9.66699 162 29c-12.667 28 -19 62 -19 102c0 22 2 44.333 6 67c8.66699 51.333 21.334 94 38.001 128z" />
    <glyph glyph-name="quotesingle" unicode="'" horiz-adv-x="261" 
d="M466 511c0 -9.33301 -12.999 -25.334 -38.999 -48.001l-244 -208c-4 -3.33301 -7.33301 -4.33301 -10 -3c-2 0.666992 -2 3.33398 0 8.00098l210 216c31.333 32 53.666 48 66.999 48c10.667 0 16 -4.33301 16 -13z" />
    <glyph glyph-name="parenleft" unicode="(" 
d="M688 652c0 -1.33301 -2.33301 -4.33301 -7 -9c-26 -12 -80.667 -44.333 -164 -97c-95.333 -66.667 -180.333 -145 -255 -235c-89.333 -107.333 -142.333 -208 -159 -302c-3.33301 -17.333 -5 -34 -5 -50c0 -2.66699 4.66699 -22 14 -58
c8.66699 -33.333 12 -50.666 10 -51.999c-4.66699 -2 -9.33398 0.333008 -14.001 7c-27.333 35.333 -41 87.666 -41 156.999c0 91.333 41.667 188.333 125 291c68.667 84 162 164 280 240c90.667 58 158.334 94.667 203.001 110c8 2.66699 12.333 2 13 -2z" />
    <glyph glyph-name="parenright" unicode=")" 
d="M337 219c-68 -90 -167.332 -176.669 -297.999 -260.002c-90 -57.333 -157 -93.666 -201 -108.999c-7.33301 -2.66699 -12.333 -2 -15 2c-1.33301 2.66699 1.66699 5.66699 9 9c52.667 24.667 107.667 57 165 97c92.667 65.333 177 143.333 253 234
c90 108.667 143 209.334 159 302.001c2.66699 14 4 28.333 4 43c0 37.333 -7 71 -21 101c-4.66699 9.33301 -5.33398 15 -2.00098 17c4 2 8.33301 -0.333008 13 -7c11.333 -16 21 -38.667 29 -68c8.66699 -32 13 -63.667 13 -95c0 -82 -36 -170.667 -108 -266z" />
    <glyph glyph-name="asterisk" unicode="*" horiz-adv-x="347" 
d="M484 449c1.33301 -3.33301 2.00098 -6.33496 2.00098 -9.00195c0 -10 -12.667 -17.333 -38 -22l-79 -14c14.667 -9.33301 37 -24.333 67 -45c17.333 -12.667 26 -22.667 26 -30c0 -4.66699 -2.16699 -9 -6.5 -13s-8.83301 -6 -13.5 -6c-8 0 -18.333 7.66699 -31 23
l-51 60l-7 -79c-2.66699 -28.667 -11 -41.667 -25 -39c-10 2 -15 7.66699 -15 17c0 6.66699 2.33301 16.334 7 29.001l27 76c-14.667 -6.66699 -38.667 -18.334 -72 -35.001c-13.333 -6.66699 -23.333 -10 -30 -10c-12.667 0 -19 7.33301 -19 22c0 10 12.333 17.333 37 22
c16.667 3.33301 43.334 8 80.001 14l-67 45c-17.333 12 -26 21.667 -26 29c0 4.66699 2.16699 9.16699 6.5 13.5s8.5 6.5 12.5 6.5c7.33301 0 17.166 -7.5 29.499 -22.5s30.166 -35.5 53.499 -61.5l6 80c1.33301 28.667 10 41.334 26 38.001c10 -2 15 -7.66699 15 -17
c0 -5.33301 -2.33301 -14.666 -7 -27.999l-27 -75l72 34c14 7.33301 24 11 30 11c8 0 13.667 -4.66699 17 -14z" />
    <glyph glyph-name="plus" unicode="+" horiz-adv-x="350" 
d="M356 208l-17 -23h-131l-109 -134h-31l110 134h-124l19 23h122l109 133h29l-107 -133h130z" />
    <glyph glyph-name="comma" unicode="," horiz-adv-x="110" 
d="M-48 -37c-19.333 -16 -42 -28.667 -68 -38c-4.66699 -1.33301 -7.66699 -0.666016 -9 2.00098c0 3.33301 1.66699 5.66602 5 6.99902c39.333 15.333 63.666 35.333 72.999 60c-5.33301 2 -9 6.33301 -11 13s-2 13 0 19c6.66699 18 18.334 25 35.001 21
c11.333 -2.66699 17 -11 17 -25c0 -16 -14 -35.667 -42 -59z" />
    <glyph glyph-name="hyphen" unicode="-" horiz-adv-x="219" 
d="M188 207c0 -5.33301 -3.33301 -8.66699 -10 -10c-11.333 -2 -31 -6.33301 -59 -13c-24 -7.33301 -43 -16.333 -57 -27c-3.33301 -2.66699 -5.66602 -2.66699 -6.99902 0c-2.66699 2.66699 -2.33398 5 0.999023 7c9.33301 12 26.833 24.333 52.5 37s46.167 19 61.5 19
c4.66699 0 8.66699 -0.666992 12 -2c6 -1.33301 8 -5 6 -11zM175 165.999c0 -3.33301 -1.66699 -5.33301 -5 -6c-25.333 -6.66699 -49.666 -15.667 -72.999 -27c-14.667 -7.33301 -30.667 -17.333 -48 -30c-8 -6 -13.667 -5 -17 3c-2.66699 4 -0.333984 9.66699 6.99902 17
c9.33301 12 28.333 22.667 57 32c32.667 10.667 57.667 15.667 75 15c2.66699 0 4 -1.33301 4 -4z" />
    <glyph glyph-name="period" unicode="." horiz-adv-x="110" 
d="M-8 20c0 -17.333 -8.66699 -26 -26 -26c-18 0 -27 8.66699 -27 26c0 18.667 9 28 27 28c17.333 0 26 -9.33301 26 -28z" />
    <glyph glyph-name="slash" unicode="/" horiz-adv-x="296" 
d="M522 567c3.33301 -2 1.99902 -8 -4.00098 -18l-595 -645c-7.33301 -8 -13.666 -10.333 -18.999 -7c-4 4 -3 9.33301 3 16l594 645c8.66699 9.33301 15.667 12.333 21 9z" />
    <glyph glyph-name="zero" unicode="0" horiz-adv-x="292" 
d="M378 345c0 -22.667 -14.999 -54.499 -44.999 -95.499s-68.333 -83.167 -115 -126.5c-38.667 -36 -78.667 -66.667 -120 -92c-44 -27.333 -77 -41 -99 -41c-12 0 -21.333 4.16699 -28 12.5s-9.66699 18.5 -9 30.5c1.33301 24 12 53 32 87
c21.333 36.667 49.666 71.667 84.999 105c46 43.333 96.333 79.666 151 108.999c50 26 89 39 117 39c20.667 0 31 -9.33301 31 -28zM347.001 361.001c-18 0 -48.667 -17.999 -92 -53.999c-18 -14.667 -62.333 -54.334 -133 -119.001
c-81.333 -74 -126.666 -125.667 -135.999 -155c-4.66699 -15.333 -2.33398 -24.333 6.99902 -27c28.667 -8 97.5 38.167 206.5 138.5s163.5 167.833 163.5 202.5c0 9.33301 -5.33301 14 -16 14z" />
    <glyph glyph-name="one" unicode="1" horiz-adv-x="226" 
d="M374 370c-83.333 -73.333 -151.667 -137.333 -205 -192c-49.333 -50.667 -100.666 -106.667 -153.999 -168c-18 -20 -27.667 -30 -29 -30c-4.66699 -0.666992 -7.66699 4 -9 14c-2 9.33301 -1 19 3 29c12 31.333 45 73.333 99 126c51.333 49.333 105.333 97.333 162 144
c-26 -4 -78.667 -30.667 -158 -80c-6.66699 -4 -10.334 -3.66699 -11.001 1c-0.666992 2.66699 1.66602 6.66699 6.99902 12c55.333 38 137 82.333 245 133c6.66699 4 18.334 8 35.001 12c6 0 11 -0.333008 15 -1z" />
    <glyph glyph-name="two" unicode="2" horiz-adv-x="256" 
d="M329 329c0 -34.667 -15.998 -66.6602 -47.998 -95.9932c-28 -26 -64.333 -48.333 -109 -67l-123 -51c-22.667 -10.667 -59.334 -30.667 -110.001 -60c25.333 10 47.333 14.333 66 13c11.333 -0.666992 28.166 -4.83398 50.499 -12.501s37.166 -11.834 44.499 -12.501
c20 -1.33301 53.667 19 101 61c6 5.33301 10 7 12 5c2.66699 -2 2 -6 -2 -12c-68.667 -70.667 -113.667 -105.334 -135 -104.001c-11.333 0.666992 -30.333 5.66699 -57 15s-52 14.666 -76 15.999c-26.667 1.33301 -54.334 -10.334 -83.001 -35.001
c-5.33301 -3.33301 -9.33301 -4.33301 -12 -3c-1.33301 0.666992 -2 1.66699 -2 3c0 3.33301 3.66699 8.66602 11 15.999c40 39.333 100.333 80.333 181 123c49.333 26 83 44.667 101 56c32.667 20 65 44 97 72c41.333 36 62 63.333 62 82c0 13.333 -9 20 -27 20
c-29.333 0 -63.666 -17.667 -102.999 -53c-16 -14.667 -29.333 -31 -40 -49c-19.333 -34 -33.666 -50 -42.999 -48c-4.66699 1.33301 -7 4.66602 -7 9.99902c0 6.66699 3.33301 15 10 25c14.667 22 37.667 46.667 69 74c44 38 85.667 57 125 57c31.333 0 47 -15 47 -45z" />
    <glyph glyph-name="three" unicode="3" horiz-adv-x="263" 
d="M329 321c0.666992 -36 -14.668 -68.6699 -46.001 -98.0029c-52 -49.333 -113.667 -79.333 -185 -90c10 -10 15 -24.333 15 -43c0 -65.333 -33.667 -124.666 -101 -177.999c-73.333 -58 -154.333 -84.333 -243 -79c-51.333 2.66699 -77.666 20.667 -78.999 54
c-0.666992 21.333 6.66602 39 21.999 53c6.66699 4.66699 11.334 6 14.001 4c2.66699 -1.33301 2 -4.66602 -2 -9.99902c-11.333 -14.667 -16.666 -29.667 -15.999 -45c1.33301 -28 23.333 -42 66 -42c52 0 115.167 29.833 189.5 89.5s114.833 116.834 121.5 171.501v22
c-12.667 -4.66699 -28 -8 -46 -10c-13.333 -1.33301 -20 1 -20 7c0 0.666992 0.5 3.5 1.5 8.5s9.5 7.5 25.5 7.5c13.333 2 27.666 1.66699 42.999 -1c43.333 12.667 97.333 49.667 162 111c30 28.667 46.333 55 49 79c2 17.333 -8.33301 26 -31 26
c-15.333 0 -35.666 -8.33301 -60.999 -25c-12.667 -8 -27.334 -22.333 -44.001 -43c-25.333 -30.667 -42.333 -46 -51 -46c-1.33301 0 -2.66602 0.333008 -3.99902 1c-7.33301 4.66699 -4.83301 15.167 7.5 31.5s30.5 33.5 54.5 51.5
c41.333 30.667 76.666 45.667 105.999 45c34 -0.666992 51.333 -18 52 -52z" />
    <glyph glyph-name="four" unicode="4" horiz-adv-x="313" 
d="M454 343l-2 -5.00293c-8.66699 10 -19.667 15 -33 15c-39.333 0 -104.666 -30.333 -195.999 -91l-252 -177c22 5.33301 64.333 8 127 8c56.667 53.333 109 98 157 134c62.667 46.667 110.334 76.667 143.001 90c4 2 6.66699 1.33301 8 -2
c1.33301 -2.66699 0.333008 -5 -3 -7c-48.667 -33.333 -128.667 -104.666 -240 -213.999c41.333 2.66699 72 12.334 92 29.001c7.33301 -1.33301 9.66602 -4 6.99902 -8c-26.667 -26.667 -68 -41.667 -124 -45c-70 -68.667 -123.667 -131.667 -161 -189l-17 -26
c-5.33301 -8 -11 -11.333 -17 -10c-5.33301 1.33301 -8 7.66602 -8 18.999c0 14.667 4 29.334 12 44.001c27.333 50 70.666 104.667 129.999 164c-69.333 4 -117.666 1.66699 -144.999 -7c-2.66699 -0.666992 -4.66699 0 -6 2c-2 2.66699 -1.66699 5.33398 1 8.00098
l285 204c91.333 64 159.666 95.333 204.999 94c18.667 -0.666992 31 -10.667 37 -30z" />
    <glyph glyph-name="five" unicode="5" horiz-adv-x="202" 
d="M365 367c9.33301 2 14.0029 1.00098 14.0029 -2.99902c0 -4.66699 -7 -13 -21 -25c-16 -14 -29.667 -20.667 -41 -20c-20 1.33301 -36.333 2 -49 2c-24 0 -41.667 -1.33301 -53 -4c-26.667 -17.333 -72 -57 -136 -119
c-0.666992 -0.666992 -3.16699 -2.83398 -7.5 -6.50098s-7.5 -6.16699 -9.5 -7.5c7.33301 -2.66699 13.666 -6 18.999 -10s13.666 -12.667 24.999 -26c9.33301 -15.333 14 -35 14 -59c0 -52 -20.667 -99 -62 -141c-75.333 -76.667 -167.333 -115 -276 -115
c-20.667 0 -38.667 4 -54 12c-20 10.667 -30 25.667 -30 45c0 14 4.33301 27 13 39c12 16.667 20.667 21 26 13c0.666992 -0.666992 -1.66602 -5.33398 -6.99902 -14.001c-8.66699 -13.333 -13 -25.333 -13 -36c0 -28.667 22.667 -43 68 -43
c65.333 0 139.666 40.667 222.999 122c52 50.667 78 99.334 78 146.001c0 26.667 -13.333 45.667 -40 57c-11.333 -8 -21 -12 -29 -12c-4.66699 0 -7.66699 2 -9 6c-0.666992 4.66699 3 9 11 13s16 6.33301 24 7c12.667 8 42 34.5 88 79.5s82.667 76.833 110 95.5h60
c29.333 0 50.666 1.33301 63.999 4z" />
    <glyph glyph-name="six" unicode="6" horiz-adv-x="326" 
d="M715 437c-2.66699 -6.66699 -6.33398 -9.66797 -11.001 -9.00098c-4 0 -6 3.33301 -6 10c0 18.667 -6.66699 35 -20 49c-20 21.333 -46.667 32 -80 32c-46.667 0 -104 -21.333 -172 -64c-55.333 -34 -130.666 -91.333 -225.999 -172c-28 -24 -68 -63.333 -120 -118
c43.333 38 85.666 68.833 126.999 92.5s72 35.5 92 35.5c14.667 0 25 -6.33301 31 -19c4 -9.33301 4.66699 -20.333 2 -33c-9.33301 -44 -41.333 -91.333 -96 -142c-30.667 -28 -65 -52.333 -103 -73c-42.667 -22 -78 -33 -106 -33c-33.333 0 -50 15.333 -50 46
c0 42 31.667 100.667 95 176c51.333 60.667 101 109.334 149 146.001c64 48.667 127.667 88 191 118c72.667 34.667 134.334 52 185.001 52c50 0 85.667 -14.333 107 -43c12 -16 15.667 -33 11 -51zM294 276.999c-17.333 0 -48.333 -13.833 -93 -41.5
s-82.334 -56.167 -113.001 -85.5c-27.333 -26 -44.666 -43.333 -51.999 -52c-20.667 -24 -32.667 -45 -36 -63c-2 -14 2.66699 -22.667 14 -26c24.667 -7.33301 87 36 187 130c70.667 66.667 106 108.667 106 126c0 8 -4.33301 12 -13 12z" />
    <glyph glyph-name="seven" unicode="7" horiz-adv-x="268" 
d="M452 349c2 -5.33301 -2.00195 -10.001 -12.002 -14.001c-4.66699 -2 -12.334 -5 -23.001 -9c-48.667 -18 -111.667 -53 -189 -105c-96.667 -65.333 -178.334 -137.333 -245.001 -216c-37.333 -44.667 -62.666 -85.667 -75.999 -123
c-1.33301 -4 -3.66602 -14 -6.99902 -30c-0.666992 -5.33301 -3.66699 -7.66602 -9 -6.99902c-6 1.33301 -9 8 -9 20c0 31.333 14 71.666 42 120.999c23.333 42 48 77 74 105c56 60 122 110.667 198 152c59.333 32 120 58.667 182 80
c-18 -5.33301 -38 -7.66602 -60 -6.99902c-17.333 0.666992 -45.333 4.66699 -84 12c-7.33301 1.33301 -13.333 2 -18 2c-24.667 0 -63.334 -24.333 -116.001 -73c-3.33301 -2.66699 -6 -3.33398 -8 -2.00098c-2.66699 2 -2.66699 4.33301 0 7
c38.667 44.667 69.667 75 93 91c18.667 13.333 37 20 55 20c21.333 0 69 -10.667 143 -32c14.667 -4 26.334 -5 35.001 -3c4.66699 3.33301 10.834 6.83301 18.501 10.5s12.834 3.83398 15.501 0.500977z" />
    <glyph glyph-name="eight" unicode="8" horiz-adv-x="253" 
d="M575 518c-14 -46.667 -45.001 -88.6689 -93.001 -126.002c-36.667 -28.667 -123 -77 -259 -145c-23.333 -94.667 -60 -163 -110 -205c-40 -33.333 -82 -50 -126 -50c-31.333 0 -46.666 16.667 -45.999 50c0.666992 56.667 76.667 123.667 228 201
c24.667 76 59 132.333 103 169c30 24.667 64.667 36.667 104 36c26.667 -0.666992 45.667 -7.66699 57 -21c6 -6.66699 6.33301 -12 1 -16c-4.66699 -4 -9.66699 -3.33301 -15 2c-15.333 15.333 -30 23 -44 23c-32 0 -61 -15 -87 -45s-46 -71 -60 -123
c73.333 28.667 151.333 75 234 139c54.667 42 86.667 79.333 96 112c2.66699 10 4 19.667 4 29c0 39.333 -19.667 59 -59 59c-13.333 0 -25.333 -4 -36 -12c-6.66699 -3.33301 -10.667 -4.66602 -12 -3.99902s-0.333008 4.33398 3 11.001c11.333 14.667 28 22 50 22
s39.5 -6.83301 52.5 -20.5s19.5 -31.167 19.5 -52.5c0 -10.667 -1.66699 -21.667 -5 -33zM162.999 220.998c-45.333 -21.333 -88.333 -48.002 -129 -80.002c-46.667 -37.333 -71.667 -69.666 -75 -96.999c-2.66699 -22.667 7 -34 29 -34c33.333 0 68 23.667 104 71
c32 42.667 55.667 89.334 71 140.001z" />
    <glyph glyph-name="nine" unicode="9" horiz-adv-x="326" 
d="M146 8c-50.667 -46 -107.331 -85.334 -169.998 -118.001c-74.667 -39.333 -140.334 -59 -197.001 -59c-62 0 -92.333 21 -91 63c0.666992 12.667 8.33398 28.334 23.001 47.001c6 7.33301 11.333 9.33301 16 6c4 -2.66699 3 -7.66699 -3 -15
c-10.667 -13.333 -15.667 -26.333 -15 -39c2 -30.667 24 -46 66 -46c8 0 17 0.666992 27 2c68 10.667 151.333 56.667 250 138c61.333 50.667 133.333 121.334 216 212.001c-42.667 -37.333 -84.834 -67.833 -126.501 -91.5s-72.834 -35.5 -93.501 -35.5c-14 0 -24 6 -30 18
c-4 8 -4.66699 19 -2 33c9.33301 44 41.333 91.333 96 142c28 25.333 64.833 49.166 110.5 71.499s81.5 33.5 107.5 33.5c28.667 0 43 -15.667 43 -47c0 -40 -29.667 -96.667 -89 -170c-42.667 -52.667 -88.667 -101 -138 -145zM350.003 329.999
c3.33301 14.667 -1.33398 23.333 -14.001 26c-26.667 6 -89.667 -37.667 -189 -131c-71.333 -67.333 -107 -109.333 -107 -126c0 -8 4.33301 -12 13 -12c18 0 49.333 13.833 94 41.5s82.334 56.167 113.001 85.5c56.667 54 86.667 92.667 90 116z" />
    <glyph glyph-name="colon" unicode=":" horiz-adv-x="135" 
d="M115 193c0 -17.333 -9 -26 -27 -26c-17.333 0 -26 8.66699 -26 26c0 18 8.66699 27 26 27c18 0 27 -9 27 -27zM-3 20c0 -17.333 -8.99902 -26 -26.999 -26s-27 8.66699 -27 26c0 18.667 9 28 27 28c7.33301 0 13.666 -2.83301 18.999 -8.5s8 -12.167 8 -19.5z" />
    <glyph glyph-name="semicolon" unicode=";" horiz-adv-x="135" 
d="M115 193c0 -17.333 -9 -26 -27 -26c-17.333 0 -26 8.66699 -26 26c0 18 8.66699 27 26 27c18 0 27 -9 27 -27zM-48 -37c-19.333 -16 -42 -28.667 -68 -38c-4.66699 -1.33301 -7.66699 -0.666016 -9 2.00098c0 3.33301 1.66699 5.66602 5 6.99902
c39.333 15.333 63.666 35.333 72.999 60c-5.33301 2 -9 6.33301 -11 13s-2 13 0 19c6.66699 18 18.334 25 35.001 21c11.333 -2.66699 17 -11 17 -25c0 -16 -14 -35.667 -42 -59z" />
    <glyph glyph-name="less" unicode="&#x3c;" horiz-adv-x="408" 
d="M440 276l-343 -107l172 -98l-16 -22l-201 118l10 15l374 118z" />
    <glyph glyph-name="equal" unicode="=" horiz-adv-x="384" 
d="M392 236l-18 -24h-285l20 24h283zM326 154l-18 -24h-285l20 24h283z" />
    <glyph glyph-name="greater" unicode="&#x3e;" horiz-adv-x="408" 
d="M359 180l-10 -15l-374 -118l-4 24l343 107l-172 98l16 22z" />
    <glyph glyph-name="question" unicode="?" horiz-adv-x="341" 
d="M453 363c-24.667 -30 -61.3359 -57.3311 -110.003 -81.998c-62 -31.333 -107 -58 -135 -80c-42 -33.333 -74.667 -67.333 -98 -102c-3.33301 -4.66699 -6.66602 -6.33398 -9.99902 -5.00098c-3.33301 0.666992 -4 3.66699 -2 9c18 40.667 60 87.667 126 141
c8.66699 7.33301 40 29 94 65c40 26.667 68.333 50 85 70c30.667 35.333 46 65 46 89c0 16 -8.33301 25.333 -25 28c-26 4.66699 -54.333 -6.33301 -85 -33c-12 -10.667 -24.333 -27.334 -37 -50.001c-16.667 -24 -30 -35 -40 -33
c-9.33301 3.33301 -7.66602 14.333 5.00098 33c14.667 22 35.334 43 62.001 63c36 27.333 70 39 102 35c37.333 -4.66699 56 -26 56 -64c0 -29.333 -11.333 -57.333 -34 -84zM87.998 23.002c-1.33301 -18 -11.332 -27 -29.999 -27c-19.333 0 -28 9 -26 27
c0.666992 7.33301 4.16699 14 10.5 20s13.166 9 20.499 9c18 0 26.333 -9.66699 25 -29z" />
    <glyph glyph-name="at" unicode="@" horiz-adv-x="740" 
d="M738 236c-34.667 -60 -95.998 -116.333 -183.998 -169c-40.667 -24.667 -80.667 -37 -120 -37c-36.667 0 -55 12.333 -55 37c0 13.333 6.33301 30 19 50c-66 -56.667 -113.667 -85 -143 -85c-22.667 0 -34 11 -34 33c0 40 25.667 86.333 77 139
c34 34.667 74.333 65 121 91s84 39 112 39c22 0 33 -7.66699 33 -23c0 -14 -10.333 -30.667 -31 -50c42 34.667 70 54.334 84 59.001c11.333 4 24.333 5.33301 39 4c-87.333 -77.333 -155 -145 -203 -203c-26.667 -32 -40 -53.333 -40 -64s8 -16 24 -16
c32.667 0 70.667 13.333 114 40c71.333 43.333 127 99.666 167 168.999c24.667 42.667 37 80.667 37 114c0 70.667 -50.667 106 -152 106c-57.333 0 -117 -13.667 -179 -41s-120 -65 -174 -113c-44.667 -39.333 -81 -83 -109 -131c-32 -53.333 -47 -102 -45 -146
c1.33301 -42.667 16.666 -75.334 45.999 -98.001s68.333 -34 117 -34c80 0 164.667 23.333 254 70c5.33301 2.66699 8.66602 2.66699 9.99902 0c2 -4 -0.333008 -8 -7 -12c-89.333 -52 -178 -78 -266 -78c-127.333 0 -192.333 48 -195 144
c-1.33301 44.667 14.834 95.334 48.501 152.001s78.167 107.667 133.5 153c120 98 243.667 147 371 147c53.333 0 94.666 -11.333 123.999 -34s44 -53.667 44 -93c0 -36.667 -12.667 -76.667 -38 -120zM538.002 320c-31.333 0 -96 -46.666 -194 -139.999
c-60.667 -58 -91 -99 -91 -123c0 -4.66699 1.66699 -8 5 -10c10 -4.66699 34 6.66602 72 33.999s77.667 62.333 119 105l64 65c24.667 28 37 47.333 37 58c0 7.33301 -4 11 -12 11z" />
    <glyph glyph-name="A" unicode="A" horiz-adv-x="1203" 
d="M1890 588c2 -4.66699 2.66797 -9.33398 2.00098 -14.001c-0.666992 -5.33301 -3 -7.33301 -7 -6c-2 0.666992 -8.33301 8.33398 -19 23.001c-16 22.667 -42 37.667 -78 45c-18 4 -39 4.66699 -63 2c-40 -4.66699 -95 -31.667 -165 -81
c-102 -72 -204.333 -163.333 -307 -274c-72 -77.333 -132.333 -152.333 -181 -225l-36 -57c-14 -19.333 -24.667 -28 -32 -26s-11 8 -11 18s3.33301 23 10 39c0 54.667 -11.667 107.334 -35 158.001c-250 -223.333 -460.667 -335 -632 -335c-54 0 -98.333 11.667 -133 35
c-38.667 25.333 -60.667 62.333 -66 111c-51.333 30 -77 77.333 -77 142c0 14.667 1.33301 30.334 4 47.001c12.667 73.333 52.667 138.666 120 195.999c74 64 163.333 99.667 268 107c123.333 78 249.333 117 378 117c48 0 86.333 -9.66699 115 -29
c33.333 -22 49.333 -55.667 48 -101c-2 -54 -28 -113 -78 -177c10.667 -12.667 24.667 -32.334 42 -59.001l48 44c65.333 60.667 139.333 118.667 222 174c101.333 68.667 194.166 117.5 278.499 146.5s160.833 43.5 229.5 43.5c31.333 0 61.333 -5 90 -15
c35.333 -12 57 -28.333 65 -49zM1683 639c-44.667 -5.33301 -94.333 -18.667 -149 -40c-156.667 -60.667 -311.667 -165.667 -465 -315l-89 -84c22.667 -48 34 -95.333 34 -142c16.667 30 47.167 72.167 91.5 126.5s89.833 103.833 136.5 148.5
c178 172.667 325 274.667 441 306zM978.002 478.999c2.66699 78 -46.667 117 -148 117c-96.667 0 -202 -34 -316 -102c128 -8.66699 238 -49 330 -121c17.333 -13.333 35.333 -30 54 -50c52 60.667 78.667 112.667 80 156zM888.001 312.999
c-19.333 20.667 -39.332 38.668 -59.999 54.001c-44.667 34 -101 61.667 -169 83c-62 19.333 -117.667 29.333 -167 30c-36 -22 -67.333 -44.667 -94 -68c-71.333 -62 -128.833 -125.167 -172.5 -189.5s-67.834 -122.5 -72.501 -174.5
c0 -24.667 8.83301 -41.834 26.5 -51.501s51.5 -14.5 101.5 -14.5c109.333 0 238.333 48.667 387 146c88 57.333 161.333 119 220 185zM946.002 234c-12 20.667 -25.334 40 -40.001 58c-54.667 -65.333 -127.334 -128.333 -218.001 -189
c-135.333 -90.667 -270.666 -136 -405.999 -136c-50.667 0 -93 8.33301 -127 25c14.667 -78.667 73.334 -118 176.001 -118c14 0 28.333 1 43 3c132 15.333 322.667 134.333 572 357zM423.001 475c-92.667 -13.333 -171.333 -49 -236 -107
c-60.667 -54 -96.667 -114.667 -108 -182c-2.66699 -14.667 -4 -28.667 -4 -42c0 -54.667 20.333 -95.667 61 -123c-0.666992 6 -0.333984 16 0.999023 30c12.667 134 88.334 260.333 227.001 379c16 13.333 35.667 28.333 59 45z" />
    <glyph glyph-name="B" unicode="B" horiz-adv-x="1031" 
d="M1453 607c-1.33301 -0.666992 -4.33301 1.33301 -9 6c-6.66699 6.66699 -13.667 12.334 -21 17.001c-30 19.333 -65 28.333 -105 27c-49.333 -1.33301 -98.333 -12.333 -147 -33c-28 -12 -50.667 -24.333 -68 -37c20 -26 30 -56.333 30 -91c0 -34 -10 -65 -30 -93
s-50.333 -52 -91 -72c-35.333 -17.333 -70.666 -28.333 -105.999 -33c47.333 -28 71 -68.667 71 -122c0 -28.667 -8 -56 -24 -82c-25.333 -42.667 -70.333 -74.667 -135 -96c-51.333 -17.333 -109.333 -26.333 -174 -27c-52.667 -0.666992 -107.334 4 -164.001 14
c-42 -26.667 -84.667 -48 -128 -64c41.333 -64.667 108.333 -95.334 201 -92.001c50 2 90.667 14.333 122 37c10 7.33301 16 10.333 18 9c2.66699 -2.66699 -0.333008 -8 -9 -16c-12 -10.667 -30.667 -20.167 -56 -28.5s-51.333 -12.833 -78 -13.5
c-100.667 -2.66699 -171.334 30.333 -212.001 99c-50 -17.333 -100.333 -26 -151 -26c-39.333 0 -72.666 10.667 -99.999 32c-36 28.667 -54 72.334 -54 131.001c0 100.667 48.667 205.667 146 315c48 54 110.167 100.333 186.5 139s143.833 56.334 202.5 53.001
c103.333 67.333 217 101 341 101c38.667 0 75 -6 109 -18s59.333 -27.333 76 -46c80 50 155.333 75.333 226 76c57.333 0.666992 98.333 -11 123 -35c8.66699 -8.66699 13 -17.334 13 -26.001c0 -2.66699 -1 -4.33398 -3 -5.00098zM1094 581
c-48 -36 -99 -85.668 -153 -149.001l-114 -138c-117.333 -132.667 -227.333 -232 -330 -298c52.667 -8 103 -11.667 151 -11c52 0.666992 100.667 11 146 31c50.667 22 88.667 52.667 114 92c18.667 29.333 28 60 28 92c0 48.667 -19.333 81 -58 97
c-9.33301 -1.33301 -17.333 -0.666016 -24 2.00098c-8.66699 4.66699 -10.667 10.334 -6 17.001c3.33301 5.33301 10 7 20 5c6.66699 -2.66699 15 -7.33398 25 -14.001c72 6.66699 131.333 43 178 109c25.333 36 38 71.333 38 106c0 24 -5 43.667 -15 59zM1084 591.999
c-34 34 -92.999 51 -176.999 51c-106.667 0 -206 -30 -298 -90c28 -8.66699 50.333 -23.334 67 -44.001c18 -22.667 27 -49.334 27 -80.001c0 -83.333 -41.333 -164.666 -124 -243.999c-80 -77.333 -161 -129.666 -243 -156.999c6.66699 -0.666992 20 -3.66699 40 -9
c22.667 -6 46.667 -11 72 -15c78 56 181.667 154 311 294c135.333 146.667 243.666 244.667 324.999 294zM688.001 432.999c0 27.333 -8.83301 51 -26.5 71s-40.167 33 -67.5 39c-10.667 -8 -31 -24.333 -61 -49c-69.333 -58 -123.333 -124 -162 -198
c-36 -68 -55 -135 -57 -201c-0.666992 -21.333 0 -41.666 2 -60.999c3.33301 0 6.33301 0.666992 9 2c67.333 23.333 145 75.666 233 156.999c86.667 79.333 130 159.333 130 240zM548.001 545.999c-55.333 -2 -116.329 -25.0039 -182.996 -69.0039
c-55.333 -36 -106.333 -80.333 -153 -133c-101.333 -114 -154 -211 -158 -291c-2.66699 -54 12.666 -94.333 45.999 -121c24.667 -19.333 54.667 -29 90 -29c44.667 0 90.667 10.333 138 31c-11.333 24 -19.666 52 -24.999 84
c-26.667 -5.33301 -57.334 -12.666 -92.001 -21.999c-24.667 -6.66699 -37.334 -7.66699 -38.001 -3c-1.33301 20 17.667 33.667 57 41c18.667 3.33301 42.667 3 72 -1c-2 20.667 -2.66699 41.334 -2 62.001c3.33301 86.667 27.666 170.834 72.999 252.501
s103.666 147.834 174.999 198.501zM433.005 -7.00488l-61.001 14c-13.333 3.33301 -31.333 7.33301 -54 12c4 -28 11.667 -54 23 -78c30.667 14 61.334 31.333 92.001 52z" />
    <glyph glyph-name="C" unicode="C" horiz-adv-x="913" 
d="M1305 543c-1.33301 -19.333 -13.6699 -29.3359 -37.0029 -30.0029c-25.333 -0.666992 -78 10.333 -158 33c-58 16.667 -111.667 29 -161 37c-142 -48.667 -269.667 -123 -383 -223c-76 -67.333 -139.333 -135.333 -190 -204c-54 -74 -83.333 -135.333 -88 -184
c30.667 0.666992 64 7 100 19c34.667 73.333 88.667 150 162 230c55.333 60.667 115.666 110.334 180.999 149.001c68.667 41.333 126.334 60.666 173.001 57.999c20.667 -1.33301 37.334 -8.66602 50.001 -21.999c14.667 -16 20.667 -37 18 -63
c-3.33301 -38 -27 -86 -71 -144c-40.667 -53.333 -88.334 -102.666 -143.001 -147.999c-60 -49.333 -123 -90.333 -189 -123c-76 -37.333 -143.333 -56 -202 -56l-3 -18c-2 -28.667 5 -51 21 -67c13.333 -13.333 31 -20 53 -20c51.333 0 96.333 22.333 135 67
c9.33301 10.667 15 15.667 17 15c6.66699 -2 3.66699 -10.333 -9 -25c-41.333 -47.333 -90 -71 -146 -71c-26 0 -47 8 -63 24c-18.667 18 -26.667 44.333 -24 79c0.666992 6 1.33398 11.667 2.00098 17c-59.333 4.66699 -93 32.667 -101 84c-61.333 4 -109 23.667 -143 59
c-36 37.333 -53.333 88.333 -52 153c0.666992 54.667 16.667 111.334 48 170.001c34 64 79.667 118.667 137 164c120 94 266.333 141 439 141c90.667 0 181 -12 271 -36c70.667 18 136.334 27 197.001 27c46.667 0 85.334 -8.33301 116.001 -25s45 -39 43 -67zM1292 547.997
c1.33301 22.667 -13.333 41 -44 55c-28 12.667 -62.333 19 -103 19c-44.667 0 -95.667 -8.66699 -153 -26l121 -36l74 -22c32.667 -8.66699 58.667 -12.667 78 -12c17.333 0.666992 26.333 8 27 22zM955.997 342.997c2 21.333 -2.33301 38.3311 -13 50.998
s-24.334 19.334 -41.001 20.001c-43.333 2.66699 -98.333 -17.333 -165 -60c-62 -38.667 -119.667 -87.334 -173 -146.001c-66 -72 -116.667 -141.667 -152 -209c44 15.333 87.667 37.333 131 66c56 36.667 100.667 74.334 134 113.001c10.667 12.667 18.667 26 24 40
c2.66699 6.66699 5 10 7 10c4 0 5.33301 -5 4 -15c-5.33301 -17.333 -15 -34 -29 -50c-36.667 -42 -80 -79.667 -130 -113c-44 -29.333 -94.333 -53.333 -151 -72c-16 -32 -27 -62 -33 -90c102.667 0 228 62 376 186c52.667 44 99.334 91 140.001 141
c44 54.667 67.667 97.334 71 128.001zM893.997 591.995c-73.333 10.667 -144.667 16 -214 16c-78 0 -156 -11.333 -234 -34c-80.667 -22.667 -146 -53.334 -196 -92.001c-56 -43.333 -100.667 -94.333 -134 -153c-30.667 -54.667 -46.334 -107 -47.001 -157
c-0.666992 -59.333 14.833 -106.166 46.5 -140.499s75.834 -54.166 132.501 -59.499c-0.666992 59.333 25 127.333 77 204c44 64 99.333 125.333 166 184c120.667 105.333 255 182.666 403 231.999zM378.996 -28.0049c-31.333 -8 -61.668 -13 -91.001 -15
c3.33301 -38 25 -60.333 65 -67c4.66699 24 13.334 51.333 26.001 82z" />
    <glyph glyph-name="D" unicode="D" horiz-adv-x="1161" 
d="M1448 604c-1.33301 0 -4.33398 2 -9.00098 6c-6 7.33301 -13 13.333 -21 18c-29.333 18 -64 26.667 -104 26c-76.667 -1.33301 -148 -25 -214 -71c56 -48.667 84 -116 84 -202c0 -18.667 -1.66699 -36 -5 -52c-20.667 -102.667 -75 -188 -163 -256
c-90.667 -70 -209.667 -103 -357 -99c-44.667 1.33301 -102.334 5.66602 -173.001 12.999c-43.333 -26.667 -84.666 -47.667 -123.999 -63c44 -62.667 111 -92.334 201 -89.001c46 2 83.333 12.333 112 31c10 6.66699 16 9.66699 18 9c4 -2.66699 1.33301 -8 -8 -16
c-27.333 -23.333 -68 -35.666 -122 -36.999c-99.333 -2.66699 -172 29.333 -218 96c-53.333 -18.667 -106 -28 -158 -28c-39.333 0 -72.666 10.667 -99.999 32c-36 28.667 -54 72.334 -54 131.001c0 100.667 48.667 205.667 146 315
c47.333 53.333 107.333 99.666 180 138.999c76 40.667 143 60.667 201 60c16 0 29.333 -1.66699 40 -5c95.333 58.667 193 88 293 88c79.333 0 144.333 -19 195 -57c76.667 50 152.667 75.667 228 77c58 0.666992 99 -10.666 123 -33.999c8.66699 -8.66699 13 -17 13 -25
c0 -4 -1.33301 -6.33301 -4 -7zM1137 348c4 22 6.00098 43.334 6.00098 64.001c0 68 -18.667 121.667 -56 161c-44.667 -37.333 -93.334 -86 -146.001 -146l-113 -133c-116 -130 -224 -228.333 -324 -295c51.333 -6 103.666 -9 156.999 -9c130.667 0 241.334 42 332.001 126
c81.333 75.333 129.333 152.666 144 231.999zM1077 583.001c-46.667 34 -109.666 51.001 -188.999 51.001c-86.667 0 -173.334 -27.667 -260.001 -83c50 -25.333 75 -66 75 -122c0 -76.667 -41.667 -158 -125 -244c-72 -74.667 -152.667 -127 -242 -157
c33.333 -8.66699 71.333 -16 114 -22c79.333 57.333 183 154.666 311 291.999c114.667 123.333 220 218.333 316 285zM688.001 433.002c0 50.667 -24.667 87.335 -74 110.002c-61.333 -42 -114.333 -91.667 -159 -149c-91.333 -116.667 -137 -223.334 -137 -320.001
c0 -12.667 1 -26 3 -40l4 2c79.333 29.333 157 81.666 233 156.999c86.667 86 130 166 130 240zM583.001 551.003c-10.667 1.33301 -18.3301 2 -22.9971 2c-58 0 -121.667 -23 -191 -69c-55.333 -37.333 -107.666 -84 -156.999 -140
c-101.333 -115.333 -154 -212.333 -158 -291c-2.66699 -54 12.666 -94.333 45.999 -121c24.667 -19.333 54.667 -29 90 -29c43.333 0 91 11.333 143 34c-13.333 26.667 -22.333 53.667 -27 81c-22 -4 -53.667 -11.333 -95 -22c-24.667 -8 -37.334 -9 -38.001 -3
c-1.33301 20 17.667 33.667 57 41c19.333 3.33301 43.666 3 72.999 -1c-1.33301 20 -2 35 -2 45c0 114 40.667 222.667 122 326c45.333 57.333 98.666 106.333 159.999 147zM435.005 -4.99707l-63.001 12l-48 9c4.66699 -25.333 13 -49.333 25 -72
c26.667 12.667 55.334 29.667 86.001 51z" />
    <glyph glyph-name="E" unicode="E" horiz-adv-x="822" 
d="M1238 564c-4.66699 -12 -19.3291 -17.668 -43.9961 -17.001c-16 0.666992 -30.667 2.66699 -44 6c-85.333 22 -160.333 37.667 -225 47c-67.333 -25.333 -125.333 -57.666 -174 -96.999c41.333 -31.333 61.333 -73.666 60 -126.999c-2.66699 -86.667 -56 -172 -160 -256
c-118.667 -95.333 -235.334 -146 -350.001 -152c-12 -0.666992 -21.333 -0.666992 -28 0c-4.66699 -56 28.666 -84 99.999 -84c16 0 33 1.66699 51 5c86.667 17.333 188 70.333 304 159c13.333 10 39.666 31.667 78.999 65c18 15.333 29 23 33 23
c1.33301 0 2.33301 -0.333008 3 -1c2.66699 -2.66699 -7.33301 -14.334 -30 -35.001c-19.333 -18 -44 -38.667 -74 -62c-122 -95.333 -227 -150.666 -315 -165.999c-20 -3.33301 -39 -5 -57 -5c-86 0 -131.333 35 -136 105c-102 18.667 -153 84.667 -153 198
c0 56 16.167 114.667 48.5 176s73.166 112.666 122.499 153.999c122.667 102.667 264.667 154 426 154c62.667 0 136.334 -8.66699 221.001 -26c49.333 16 102.666 24 159.999 24c32 0 63.667 -2.66699 95 -8c24 -4 44.333 -11.333 61 -22c19.333 -12.667 29 -27 29 -43
c0 -4.66699 -1 -9.66699 -3 -15zM1227 568.999c1.33301 3.33301 2 7 2 11c0 25.333 -25.333 42.666 -76 51.999c-16.667 2.66699 -34 4 -52 4c-42.667 0 -88.667 -7.66699 -138 -23l192 -49c14.667 -3.33301 28 -5.66602 40 -6.99902c17.333 -2 28 2 32 12zM850.005 609.999
c-54 6.66699 -115.333 10 -184 10c-162 0 -298 -45.667 -408 -137c-46.667 -38.667 -85.667 -88.167 -117 -148.5s-47 -115.833 -47 -166.5c0 -102 45.667 -162.333 137 -181c0 5.33301 0.666992 14 2 26c8.66699 56 37.667 112 87 168c38.667 44 82.667 81 132 111
c65.333 40 133 65.667 203 77c-6 28.667 -1.66699 57.334 13 86.001c10.667 21.333 23.334 39.666 38.001 54.999c-22.667 10 -50.667 15 -84 15c-48.667 0 -97 -10.333 -145 -31s-89.333 -49.667 -124 -87c-54 -58 -81.333 -114 -82 -168c0 -14 2.33301 -27.667 7 -41
c1.33301 -2.66699 1 -5 -1 -7c-4 -2.66699 -7 -1 -9 5c-6.66699 10 -10 24 -10 42c0 66 28.333 127.333 85 184c77.333 77.333 172.333 116 285 116c36 0 65.667 -5.33301 89 -16c33.333 34.667 77.666 64 132.999 88zM796.005 372.999c2 52 -17.001 92 -57.001 120
c-14.667 -12.667 -26.667 -26 -36 -40c-23.333 -34 -35 -61.667 -35 -83c12.667 0 24.667 -2 36 -6c22.667 -8 32 -16.333 28 -25c-3.33301 -7.33301 -16.666 -8 -39.999 -2c-12 3.33301 -23.333 9.66602 -34 18.999c-33.333 -4 -71.333 -20 -114 -48
c-60 -39.333 -113.667 -85.666 -161 -138.999c-50 -57.333 -83.667 -112 -101 -164c-2 -5.33301 -4.33301 -13 -7 -23c6 -0.666992 15.667 -0.666992 29 0c48 2 103.333 17.667 166 47c59.333 28.667 116 65 170 109c101.333 82.667 153.333 161 156 235z" />
    <glyph glyph-name="F" unicode="F" horiz-adv-x="1043" 
d="M1923 692c4 -46 -32.3311 -81.999 -108.998 -107.999c-66 -22 -144.667 -32.333 -236 -31c-62.667 1.33301 -140 6.33301 -232 15c-72.667 -65.333 -158.334 -150.333 -257.001 -255l-46 -47c45.333 1.33301 83.333 0.333008 114 -3c16 -1.33301 19.333 -5.33301 10 -12
c-3.33301 -2 -11.333 -2.66699 -24 -2c-45.333 2.66699 -83.333 3.33398 -114 2.00098c-108.667 -113.333 -204.334 -196.333 -287.001 -249c-100.667 -63.333 -200 -95 -298 -95c-110 0 -165 46.333 -165 139c0 10.667 0.666992 21.667 2 33
c7.33301 57.333 33.666 119 78.999 185c42 60.667 94.333 117.667 157 171c74 62.667 157.333 116.667 250 162c-190 -4 -331.333 -24 -424 -60c-75.333 -29.333 -140.333 -71.333 -195 -126c-63.333 -62 -98.333 -128 -105 -198c-0.666992 -10 -1 -19.333 -1 -28
c0 -73.333 30.333 -112 91 -116c8 1.33301 16 1.33301 24 0c0.666992 -4 -1.83301 -7.66699 -7.5 -11s-11.5 -5 -17.5 -5c-32 -0.666992 -57.667 11.166 -77 35.499s-29 56.5 -29 96.5c0 81.333 32.333 157.666 97 228.999c57.333 62.667 127.333 109.667 210 141
c138.667 52 310.667 78 516 78c88 36 157.667 52 209 48c49.333 -4 77.666 -25.333 84.999 -64l199 -25c34.667 26 66 43 94 51c14.667 4 22 4 22 0c0.666992 -3.33301 -4.66602 -6.66602 -15.999 -9.99902c-22.667 -6.66699 -47 -21.667 -73 -45
c75.333 -8.66699 145 -14 209 -16c92.667 -2.66699 166.667 4 222 20c68.667 20 101 53 97 99c-2.66699 30 -20.667 43.667 -54 41c-3.33301 0 -7.66602 -0.666992 -12.999 -2c-2 -0.666992 -3 -0.333984 -3 0.999023c0 5.33301 4.66699 9 14 11c5.33301 1.33301 11 2 17 2
c40 0 61.667 -17.333 65 -52zM1128 618.001c-7.33301 32 -31.334 48.668 -72.001 50.001c-46 1.33301 -99.667 -10.334 -161 -35.001c72.667 -0.666992 150.334 -5.66699 233.001 -15zM1318 570.002c-53.333 6 -111.999 11.667 -175.999 17
c-8.66699 -60.667 -61.667 -140.667 -159 -240c-32.667 -32.667 -63 -61.667 -91 -87c23.333 2 53.666 3.66699 90.999 5l58 58c68.667 68 161 150.333 277 247zM1128 588.002c-92 6.66699 -162.997 10.001 -212.997 10.001h-97c-87.333 -46.667 -174 -106.667 -260 -180
c-65.333 -56 -121.333 -113.667 -168 -173c-54.667 -70 -85.334 -129.667 -92.001 -179c-1.33301 -10 -2 -19.333 -2 -28c0 -75.333 46.667 -113 140 -113c125.333 0 302.666 108.667 531.999 326c-20 -0.666992 -52 -2.33398 -96 -5.00098
c-114.667 -93.333 -209 -140 -283 -140c-36.667 0 -55.334 12.333 -56.001 37c-0.666992 14.667 5.66602 28.667 18.999 42c40 40.667 138.667 65.667 296 75c26.667 21.333 61.334 52.333 104.001 93c107.333 102 166 180.333 176 235zM827.005 244.003
c-140 -8 -227.333 -28.667 -262 -62c-14.667 -14 -21 -27 -19 -39c2 -16.667 16.333 -25 43 -25c54.667 0 134 42 238 126z" />
    <glyph glyph-name="G" unicode="G" horiz-adv-x="958" 
d="M1209 557c0 -12.667 -5.33008 -21.999 -15.9971 -27.999c-6.66699 -3.33301 -16.667 -5 -30 -5c-25.333 0 -75 8.66699 -149 26c-65.333 15.333 -118.333 26.333 -159 33c-96 -36 -205.667 -102 -329 -198c-66.667 -52 -122 -108 -166 -168
c-48.667 -66 -71.334 -120.667 -68.001 -164c0.666992 -9.33301 1 -13.333 1 -12c115.333 1.33301 225.333 42 330 122c93.333 71.333 140 141 140 209c0 27.333 -7 48 -21 62c-6 6 -7.33301 10 -4 12c3.33301 1.33301 8.33301 -1.66699 15 -9c16 -18.667 24 -41.667 24 -69
c0 -73.333 -48 -147 -144 -221c-102 -78.667 -213.667 -119 -335 -121c14 -28.667 41.333 -44.667 82 -48c65.333 -5.33301 153 18 263 70c84 40 185.333 108.333 304 205c9.33301 11.333 22 28 38 50c6 8.66699 14.333 20 25 34c2.66699 2.66699 5 4 7 4
c4.66699 0 7 -5.66699 7 -17c0 -20 -5.66699 -35.5 -17 -46.5s-29.333 -25.833 -54 -44.5l-137 -159c-56.667 -65.333 -104.334 -115.333 -143.001 -150c-160.667 -144 -326.334 -216 -497.001 -216c-71.333 0 -128.166 14 -170.499 42s-63.5 66.333 -63.5 115
c0 51.333 17.333 94 52 128c12 11.333 19.333 14.666 22 9.99902c1.33301 -1.33301 -2 -6.33301 -10 -15c-30.667 -34.667 -46 -75.334 -46 -122.001c0 -90 73.333 -131.333 220 -124c80.667 4 166.667 27.667 258 71c74 36 141 79.333 201 130
c47.333 40 127.333 117.667 240 233l-2 3c-84 -64 -160.333 -112.667 -229 -146c-105.333 -52 -195.333 -75.667 -270 -71c-60.667 3.33301 -100.334 25.333 -119.001 66c-50.667 6 -91.667 24.333 -123 55c-34 34 -51.333 77.333 -52 130
c-0.666992 40.667 9.33301 84.334 30 131.001c22 49.333 52 92.333 90 129c53.333 52 118.333 92.667 195 122c74 28.667 148.333 43 223 43c72 0 149.333 -9.33301 232 -28c66.667 18.667 131.667 28 195 28c35.333 0 68 -5 98 -15c41.333 -14.667 62 -36.667 62 -66z
M1196 568.001c-12 36.667 -62.332 55 -150.999 55c-42.667 0 -91.334 -8 -146.001 -24c8.66699 -2 51.334 -13.667 128.001 -35c71.333 -19.333 117.666 -29 138.999 -29c8.66699 0 15.334 1 20.001 3c11.333 6 14.666 16 9.99902 30zM798.004 592.001
c-55.333 7.33301 -113.334 11.001 -174.001 11.001c-78.667 0 -153.834 -12.5 -225.501 -37.5s-131.834 -60.167 -180.501 -105.5c-37.333 -34.667 -66.666 -76 -87.999 -124c-18.667 -42.667 -28 -83.667 -28 -123c0 -48 14.333 -87.333 43 -118
c26.667 -28 62.667 -45.333 108 -52c0 -2.66699 -0.666992 3 -2 17c-5.33301 57.333 16.334 120.333 65.001 189c37.333 51.333 86.333 101.666 147 150.999c106.667 86 218.334 150 335.001 192z" />
    <glyph glyph-name="H" unicode="H" horiz-adv-x="1048" 
d="M1868 581c2.66699 -4.66699 4 -9.66406 4 -14.9971c-0.666992 -5.33301 -3 -8.33301 -7 -9c-2.66699 -0.666992 -6.66699 2 -12 8c-8.66699 11.333 -13.667 17.666 -15 18.999c-29.333 29.333 -74.333 44 -135 44c-118.667 0 -239.667 -43 -363 -129
c-68 -47.333 -148.333 -119.333 -241 -216c-72.667 -76 -139.667 -156.333 -201 -241l-31 -43c-8.66699 -11.333 -16.334 -17.333 -23.001 -18c-9.33301 -0.666992 -14 4.66602 -14 15.999c0 28.667 36.667 87.667 110 177c15.333 30.667 23 59.334 23 86.001
c0 28 -8.33301 53 -25 75l-40 -44c-122.667 -142.667 -249.334 -246 -380.001 -310c-92.667 -46 -182.334 -70.333 -269.001 -73c-57.333 -2 -105.666 8.66699 -144.999 32c-48 28 -71.667 71.667 -71 131c1.33301 118.667 72.333 223 213 313
c24 15.333 55 31.666 93 48.999c-10.667 18 -14 37.667 -10 59c13.333 68 65 120.333 155 157c71.333 28.667 150.333 43 237 43c150.667 0 311.334 -22.333 482.001 -67c28 -7.33301 53.667 -15.666 77 -24.999c12.667 -5.33301 19 -10.333 19 -15
c0 -0.666992 -0.333008 -1.33398 -1 -2.00098c-0.666992 -1.33301 -9 1 -25 7c-25.333 9.33301 -48.666 16 -69.999 20c-157.333 30.667 -322.333 46 -495 46c-88 0 -165.667 -13.333 -233 -40c-78.667 -30.667 -123 -73.667 -133 -129c-4 -20.667 -1 -37 9 -49
c98 38 193.667 55.667 287 53c34 -0.666992 64 -7.33398 90 -20.001c28.667 -14.667 46.667 -34 54 -58c54.667 -2 101 -16.333 139 -43c146.667 138 248.667 210.667 306 218c6.66699 0.666992 12.334 0.666992 17.001 0c6 -0.666992 8.66699 -2.66699 8 -6l-25 -6
c-56.667 -13.333 -149.667 -90 -279 -230c19.333 -23.333 29 -50.666 29 -81.999c0 -19.333 -4 -39.333 -12 -60c43.333 50 84.333 93 123 129c100 93.333 188.667 162.666 266 207.999c117.333 68 235.333 102 354 102c30.667 0 60.667 -5 90 -15
c35.333 -11.333 58.666 -27 69.999 -47zM772 382.003c0.666992 6.66699 0 13.667 -2 21c-111.333 0 -226.333 -29.667 -345 -89c-48 -24 -92 -54 -132 -90c-50 -44 -77.333 -84.333 -82 -121c-2.66699 -22 3.33301 -40 18 -54s33 -21 55 -21c64 0 146.667 31.333 248 94
c60.667 37.333 114.334 80.333 161.001 129c49.333 52 75.666 95.667 78.999 131zM912 362.003c-30 22 -72.666 35.3301 -127.999 39.9971c1.33301 -9.33301 1.66602 -16.666 0.999023 -21.999c-3.33301 -40 -29.666 -86 -78.999 -138c-44 -47.333 -98.333 -91 -163 -131
c-102 -63.333 -187.333 -95 -256 -95c-27.333 0 -49.333 7.33301 -66 22c-18.667 16.667 -26.334 39.334 -23.001 68.001c4.66699 38.667 32.667 81.334 84 128.001c44.667 41.333 93.334 74.333 146.001 99c74 34.667 140.667 58 200 70c38.667 7.33301 85 11 139 11
c-16 42 -59 63 -129 63c-112.667 0 -232.667 -39.667 -360 -119c-65.333 -40.667 -119.333 -88.167 -162 -142.5s-64 -103.5 -64 -147.5c0 -54 21.333 -93.333 64 -118c33.333 -20 75.666 -29.333 126.999 -28c152.667 3.33301 348 123.333 586 360z" />
    <glyph glyph-name="I" unicode="I" horiz-adv-x="846" 
d="M1309 581c0 -0.666992 -8.66602 2.33594 -25.999 9.00293c-20.667 8 -44 15 -70 21c-148 35.333 -306.667 53 -476 53c-83.333 0 -162 -13.667 -236 -41c-100 -36.667 -150 -89.667 -150 -159c117.333 61.333 228.333 88.666 333 81.999c34.667 -2 63.5 -12 86.5 -30
s34.5 -42.667 34.5 -74c0 -50.667 -30.667 -111.334 -92 -182.001c-48 -55.333 -99.333 -102 -154 -140c-99.333 -68.667 -192.333 -103 -279 -103c-63.333 0 -93 26.333 -89 79c1.33301 17.333 6.33301 25.333 15 24c2.66699 -0.666992 3.33398 -3.66699 2.00098 -9
c-2.66699 -10 -4 -15.667 -4 -17c-2 -20.667 5.66699 -37 23 -49c14 -10 31.333 -15 52 -15c62 0 149 38.333 261 115c60 41.333 113 85.666 159 132.999c50.667 52 80.334 95.333 89.001 130c2.66699 11.333 4 22.333 4 33c0 28 -10 49.833 -30 65.5s-46 24.5 -78 26.5
c-92 5.33301 -201 -29.667 -327 -105c9.33301 -26 24.333 -47 45 -63c12 -9.33301 17.5 -16.166 16.5 -20.499s-10.5 0.166992 -28.5 13.5c-20.667 15.333 -36 35.666 -46 60.999c-6.66699 -4 -20 -12.667 -40 -26c-82 -56 -146 -113.667 -192 -173
c-43.333 -55.333 -65.666 -106 -66.999 -152c-1.33301 -54 19.667 -93.333 63 -118c32.667 -18.667 75.667 -28 129 -28c151.333 0 346.666 120 585.999 360c87.333 87.333 150.666 148 189.999 182c52.667 44.667 103.667 79.334 153 104.001c26 12.667 49.333 19 70 19
c8 0 12 -2.33301 12 -7c0 -0.666992 -4 -1.66699 -12 -3c-21.333 -3.33301 -42.333 -11 -63 -23c-70 -40 -163.667 -127.667 -281 -263c-124 -143.333 -251 -247.333 -381 -312c-94.667 -47.333 -184 -71 -268 -71c-146.667 0 -217.334 54.333 -212.001 163
c6 126.667 85.667 241.667 239 345c25.333 16.667 47.666 30 66.999 40c-1.33301 12 -0.666016 24 2.00098 36c13.333 69.333 63.333 122.666 150 159.999c72 31.333 154.333 47 247 47c154.667 0 313.667 -23.667 477 -71c28 -8 53.667 -17.667 77 -29
c15.333 -7.33301 21.666 -13.333 18.999 -18z" />
    <glyph glyph-name="J" unicode="J" horiz-adv-x="885" 
d="M1336 581c-35.333 12 -67.6631 21.665 -96.9961 28.998c-141.333 35.333 -298.333 53 -471 53c-97.333 0 -181.666 -18 -252.999 -54c-68 -34 -112.667 -77.333 -134 -130c-1.33301 -3.33301 -3.33301 -8.66602 -6 -15.999c116 56.667 216.333 82 301 76
c33.333 -2 60.333 -11.667 81 -29s31 -41.333 31 -72c0 -64.667 -45 -147.667 -135 -249c-62 -70 -132.667 -136.333 -212 -199c-111.333 -87.333 -221.333 -152.666 -330 -195.999c8.66699 -1.33301 20.667 -1.66602 36 -0.999023c67.333 2.66699 135.666 21 204.999 55
c54.667 27.333 118.334 69.333 191.001 126c76.667 59.333 181 162 313 308c139.333 153.333 255 250.333 347 291c22.667 10 42 15 58 15c9.33301 -1.33301 13.666 -3.66602 12.999 -6.99902c-0.666992 -1.33301 -5.33398 -2.33301 -14.001 -3s-26 -7.33398 -52 -20.001
c-44.667 -21.333 -97.334 -64 -158.001 -128c-26 -27.333 -74 -82.666 -144 -165.999c-115.333 -138 -226.333 -245 -333 -321c-150 -107.333 -290.667 -162 -422 -164c-22.667 0 -45 1 -67 3c-88.667 -32 -166 -49.333 -232 -52c-48 -2 -86.667 5.33301 -116 22
s-44 39.667 -44 69c0 9.33301 1.66699 19 5 29c6.66699 20.667 22 35 46 43c10 3.33301 16 3.33301 18 0c-10.667 -13.333 -20.667 -29.333 -30 -48c-2 -8.66699 -3 -17 -3 -25c0 -54 42.667 -79.667 128 -77c52 2 117.667 18 197 48c-78 22 -115 75.333 -111 160
c6.66699 141.333 97 278.666 271 411.999c40 30.667 87.667 60.667 143 90c20 80.667 74.333 143.667 163 189c75.333 38 158.666 57 249.999 57c138 0 294.667 -24.667 470 -74c30 -8.66699 56 -17.667 78 -27c15.333 -6.66699 21.666 -12.334 18.999 -17.001z
M768.003 399.998c4 13.333 6.00195 25.665 6.00195 36.998c0 26 -8.83301 47 -26.5 63s-41.5 25 -71.5 27c-79.333 4.66699 -182.333 -30.333 -309 -105c-3.33301 -34 2.33398 -63.333 17.001 -88c16.667 -26.667 41.334 -43.667 74.001 -51
c5.33301 -1.33301 13.666 -2.33301 24.999 -3c6.66699 0 9.66699 -1 9 -3c-2 -10 -18 -11.333 -48 -4c-32.667 8 -57.334 25.667 -74.001 53c-14.667 24 -21.334 52.667 -20.001 86c-35.333 -22 -69.333 -45.667 -102 -71
c-190.667 -149.333 -287.667 -280.666 -291 -393.999c-2 -81.333 36.667 -130 116 -146c114 52.667 227.333 122.667 340 210c83.333 64.667 160.166 135.334 230.499 212.001s111.833 135.667 124.5 177z" />
    <glyph glyph-name="K" unicode="K" horiz-adv-x="1038" 
d="M1813 610c4 -11.333 3.66895 -17.3311 -0.998047 -17.998c1.33301 0.666992 -1.66699 4.33398 -9 11.001c-14.667 20.667 -42.334 31.667 -83.001 33c-81.333 3.33301 -188.333 -24.667 -321 -84c-85.333 -38 -176.333 -85 -273 -141
c-70.667 -40.667 -116.667 -69.667 -138 -87c-22 -60 -40 -126 -54 -198c-8.66699 -45.333 -13 -86.333 -13 -123c0 -40.667 12.667 -61.334 38 -62.001c17.333 -0.666992 36.666 6.66602 57.999 21.999c3.33301 3.33301 6 4 8 2s1.33301 -5 -2 -9
c-28 -30.667 -60 -45.334 -96 -44.001c-40 2 -60.333 28.667 -61 80c-0.666992 34.667 5.33301 81.667 18 141c11.333 52.667 32.333 114.334 63 185.001c42 34 97.667 70.667 167 110c114.667 66 200.667 112 258 138c150.667 69.333 266 101.666 346 96.999
c51.333 -3.33301 83 -21 95 -53zM1269 585.002c-0.666992 -0.666992 -8.66504 1.99902 -23.998 7.99902c-20 8 -43.667 15.333 -71 22c-140.667 33.333 -294.334 50 -461.001 50c-86.667 0 -166 -15 -238 -45c-80.667 -34 -126 -78 -136 -132
c-0.666992 -10.667 -1.66699 -20.667 -3 -30c118 66 229.667 95.333 335 88c78 -5.33301 117 -38.666 117 -99.999c0 -12 -1.66699 -24.667 -5 -38c-20.667 -81.333 -86 -169 -196 -263c-55.333 -47.333 -114 -85.333 -176 -114c-57.333 -26 -105.666 -39 -144.999 -39
c-22.667 0 -41.667 5.66699 -57 17c-18 14 -25.333 33.667 -22 59c2 16 6.66699 23.333 14 22c2.66699 -0.666992 3.33398 -3.33398 2.00098 -8.00098c-2.66699 -8.66699 -4 -14 -4 -16c-2 -20.667 4.66699 -36.334 20 -47.001c12.667 -9.33301 29 -14 49 -14
c68 0 165.667 52 293 156c120.667 98.667 190 181 208 247c3.33301 13.333 5 25.666 5 36.999c0 54.667 -34.333 84 -103 88c-48 2.66699 -103.667 -7.33301 -167 -30c-56.667 -19.333 -111.334 -46 -164.001 -80c8 -28.667 26.333 -50 55 -64
c10.667 -4.66699 15.667 -7.66699 15 -9c-2 -5.33301 -8.33301 -5.66602 -19 -0.999023c-31.333 12.667 -52.333 35 -63 67c-17.333 -11.333 -35.333 -24.666 -54 -39.999c-78 -64.667 -138 -128.667 -180 -192c-39.333 -60 -59 -113.667 -59 -161c0 -48 17.333 -85 52 -111
c30 -22.667 68.333 -34 115 -34c84.667 0 180.667 39 288 117c77.333 56 183.666 151.667 318.999 287c80.667 80.667 140.667 138 180 172c51.333 44.667 100.666 80.334 147.999 107.001c27.333 15.333 52.333 23 75 23c11.333 -1.33301 16.666 -3.66602 15.999 -6.99902
c0 -1.33301 -5 -2.33301 -15 -3c-19.333 -2 -41.666 -11 -66.999 -27c-68.667 -43.333 -158 -128.666 -268 -255.999c-130 -150.667 -256 -262.334 -378 -335.001c-105.333 -62.667 -202.666 -94 -291.999 -94c-51.333 0 -94 12 -128 36
c-42.667 29.333 -63.667 72.333 -63 129s18.667 115.667 54 177c38.667 66.667 95.334 130 170.001 190c27.333 22 54.666 40.333 81.999 55c-0.666992 13.333 0.333008 27.666 3 42.999c14 70.667 60.667 124.667 140 162c68.667 32 151.667 48 249 48
c138.667 0 291.667 -23.667 459 -71c19.333 -5.33301 45.666 -15 78.999 -29c14 -6 19.333 -11.667 16 -17z" />
    <glyph glyph-name="L" unicode="L" horiz-adv-x="788" 
d="M1326 593c4.66699 -17.333 1.99902 -26.999 -8.00098 -28.999c-2.66699 -0.666992 -4.66699 0.666016 -6 3.99902c-3.33301 8.66699 -5.33301 13.667 -6 15c-22.667 41.333 -62.667 62 -120 62c-48 0 -97.667 -17.333 -149 -52
c-43.333 -29.333 -97 -78.666 -161 -147.999c-10.667 -92.667 -60 -179.334 -148 -260.001c-82 -75.333 -163.333 -120.333 -244 -135c-42.667 -31.333 -81.667 -56 -117 -74c166 -84.667 284.333 -127 355 -127c72 0 122.667 18.667 152 56c4 4 7 5.33301 9 4
c3.33301 -1.33301 3.33301 -5.33301 0 -12c-36 -58 -93.333 -87 -172 -87c-56 0 -117 15.667 -183 47c-31.333 15.333 -93 51.333 -185 108c-66 -31.333 -127.667 -45.333 -185 -42c-40 2 -72 14.333 -96 37c-28 25.333 -40.667 60.666 -38 105.999
c-60 -8 -93.333 -32.333 -100 -73c-2 -11.333 1 -25 9 -41c2 -4 1.66699 -6.33301 -1 -7c-0.666992 0 -3 2 -7 6c-11.333 11.333 -16 27 -14 47c6 52 44.333 81.333 115 88c6.66699 50 28.334 105.333 65.001 166c41.333 68 94.333 129.333 159 184
c144.667 121.333 287.334 182 428.001 182c22.667 0 44.667 -1.66699 66 -5c72.667 -12.667 116 -51.667 130 -117c120 108 226 162 318 162c32.667 0 61 -5.33301 85 -16c27.333 -11.333 43.666 -27.666 48.999 -48.999zM858.999 427.001l-154.001 -171.501
c-70.667 -78.333 -135.667 -140.166 -195 -185.499c69.333 22 137 63 203 123c82.667 76 131.334 154 146.001 234zM861.998 484c-10 65.333 -51.332 103.664 -123.999 114.997c-15.333 2 -31 3 -47 3c-120.667 0 -257 -63.667 -409 -191
c-64.667 -54 -118.834 -110.833 -162.501 -170.5s-69.5 -110.5 -77.5 -152.5c24 0 50.667 -0.833008 80 -2.5s89.333 -26.834 180 -75.501l36 -19c22.667 12.667 49 30.334 79 53.001c-37.333 2.66699 -67.666 14.334 -90.999 35.001s-35 48.334 -35 83.001
c0 46 19.667 95.667 59 149c34 46 73 84 117 114c28.667 19.333 61.667 35.333 99 48s69.666 19 96.999 19c16 0 29.333 -2.33301 40 -7c7.33301 -4.66699 9.66602 -8.66699 6.99902 -12l-10 4c-8.66699 3.33301 -20 5 -34 5c-48.667 0 -108.667 -23.667 -180 -71
c-44.667 -29.333 -84 -65.333 -118 -108c-41.333 -52.667 -62 -100.667 -62 -144c0 -33.333 12.667 -59 38 -77c23.333 -17.333 53 -25.666 89 -24.999c62.667 50 137.334 122.333 224.001 217c84.667 92 153 162 205 210zM317.999 -20.002
c-7.33301 4 -18.333 10.333 -33 19c-72 42 -138.333 65 -199 69h-47c-2.66699 -38 7.33301 -68.833 30 -92.5s50.334 -36.5 83.001 -38.5c51.333 -3.33301 106.666 11 165.999 43z" />
    <glyph glyph-name="M" unicode="M" horiz-adv-x="1281" 
d="M1978 592c7.33301 -13.333 6.66602 -21.3359 -2.00098 -24.0029c-1.33301 -0.666992 -8 6.33301 -20 21c-28.667 34.667 -71.667 52 -129 52c-17.333 0 -37 -1.66699 -59 -5c-12.667 -3.33301 -24.667 -7.66602 -36 -12.999c-93.333 -42.667 -226.333 -154.667 -399 -336
c-96.667 -102 -166.667 -185 -210 -249c-23.333 -34.667 -40.333 -51.667 -51 -51c-9.33301 0.666992 -14 8.33398 -14 23.001c0 8.66699 2.33301 18 7 28c13.333 29.333 46 74.666 98 135.999c50 58 101.333 112.333 154 163c151.333 144 282 239.333 392 286
c-37.333 -9.33301 -73 -22.666 -107 -39.999c-138.667 -70.667 -271 -155.334 -397 -254.001l-317 -262c-12 -18 -26 -36.667 -42 -56c-28.667 -35.333 -49 -53 -61 -53c-2 0 -4.16699 0.666992 -6.5 2s-3.5 3.66602 -3.5 6.99902c0 11.333 8 25.333 24 42
c14 14.667 39 37.334 75 68.001l162 248c72.667 103.333 145 177.666 217 222.999c26.667 16.667 47.334 27.667 62.001 33c-15.333 -3.33301 -28.333 -6.66602 -39 -9.99902c-40.667 -12.667 -93 -40 -157 -82c-85.333 -56 -170.666 -125.333 -255.999 -208
c-122 -118.667 -220 -206 -294 -262c-54.667 -42 -109 -73.333 -163 -94c36.667 -43.333 93 -65.666 169 -66.999c137.333 -2.66699 254 47.333 350 150c10 10.667 16.333 14.667 19 12c4.66699 -2.66699 1.33398 -10.334 -9.99902 -23.001
c-98.667 -105.333 -218.334 -156.666 -359.001 -153.999c-82.667 1.33301 -144.334 26.333 -185.001 75c-54.667 -19.333 -107.667 -29 -159 -29c-144 0 -210.667 61 -200 183c8 95.333 63.667 190 167 284c49.333 45.333 106.666 82 171.999 110s126.333 42 183 42
c18.667 0 36 -2.33301 52 -7c60 42 129.333 75.333 208 100c84 26.667 169 40 255 40c78 0 162 -10.667 252 -32c37.333 -8.66699 63.333 -18 78 -28c9.33301 -6.66699 12.333 -11.667 9 -15c-1.33301 -1.33301 -7 0.666992 -17 6c-7.33301 4 -19.666 8.33301 -36.999 13
c-22 -3.33301 -42 -12.666 -60 -27.999c-26.667 -22 -59 -56.667 -97 -104l-102 -133c-34 -44 -86.333 -107.667 -157 -191c114 98 199.333 169.333 256 214c130.667 102.667 264 186.667 400 252c80.667 38.667 157.667 58 231 58c80 0 131.333 -20.333 154 -61z
M1327 592.997c-88 16.667 -174.332 25 -258.999 25c-71.333 0 -147.333 -12.667 -228 -38c-74 -24 -142 -55 -204 -93c37.333 -23.333 54.666 -61 51.999 -113c-4.66699 -88 -53.667 -170 -147 -246c-54 -44 -113.333 -77.667 -178 -101c5.33301 -32 14.333 -59 27 -81
c48 21.333 102.333 55 163 101c65.333 49.333 153.666 124 264.999 224c102 91.333 197 167 285 227c54.667 37.333 109.334 64 164.001 80c20.667 6 40.667 11 60 15zM673.001 372.997c4 50 -12.667 85 -50 105c-74.667 -49.333 -137.334 -115.333 -188.001 -198
c-47.333 -77.333 -71.666 -147.333 -72.999 -210v-22c51.333 21.333 105 55 161 101c94.667 77.333 144.667 152 150 224zM591.001 489.997c-11.333 2.66699 -23.999 3.99707 -37.999 3.99707c-46 0 -99.667 -15.333 -161 -46c-58.667 -29.333 -114 -67.333 -166 -114
c-113.333 -101.333 -173.333 -190 -180 -266c-9.33301 -107.333 51 -161 181 -161c47.333 0 96.666 10.667 147.999 32c-14.667 24.667 -24 52 -28 82c-38.667 -12 -72.667 -18 -102 -18c-30 0 -55.333 6.66699 -76 20c-12.667 8 -19 17.333 -19 28
c0 2.66699 1 4.33398 3 5.00098s4 -0.666016 6 -3.99902c3.33301 -5.33301 5.66602 -8.66602 6.99902 -9.99902c16.667 -16 43.334 -24 80.001 -24c30 0 62.667 7.33301 98 22c0 20.667 0.666992 48.667 2 84s23 90 65 164c44.667 78 104.667 145.333 180 202z" />
    <glyph glyph-name="N" unicode="N" horiz-adv-x="1158" 
d="M1821 538c-1.33301 -1.33301 -3.66504 -0.996094 -6.99805 1.00391c-8.66699 12 -23.334 22.667 -44.001 32c-22.667 10 -47.334 15 -74.001 15c-120 0 -256.667 -73.333 -410 -220c-123.333 -118 -227.333 -229 -312 -333l-24 -46c-16 -28 -27.667 -40.667 -35 -38
c-3.33301 1.33301 -5 4.33301 -5 9c0 12 7.66699 28 23 48c8 9.33301 18.667 24 32 44c10 17.333 22 51.333 36 102l37 141c21.333 75.333 54.666 139.333 99.999 192c34.667 40 67 67 97 81c-9.33301 -2.66699 -18.333 -5.66699 -27 -9c-24.667 -10 -53 -27 -85 -51
c-62 -46.667 -142.333 -119.334 -241 -218.001l-130 -130c-48.667 -47.333 -90.334 -84.333 -125.001 -111c-56.667 -43.333 -115 -78 -175 -104c34 -11.333 73 -14 117 -8c59.333 8 117.333 29 174 63c50.667 30.667 89.334 64.334 116.001 101.001
c11.333 16 18 23.667 20 23c4.66699 -2 4 -8.66699 -2 -20c-22 -40.667 -62.333 -78.667 -121 -114c-61.333 -37.333 -123.666 -59.666 -186.999 -66.999c-51.333 -6 -96.666 -1.33301 -135.999 14c-64.667 -25.333 -124.667 -39.333 -180 -42
c-51.333 -2.66699 -96.333 9.33301 -135 36c-45.333 31.333 -68 75.666 -68 132.999c0 12 1 24.333 3 37c16.667 101.333 74 196.333 172 285c91.333 82 187.666 129.667 288.999 143c112.667 85.333 240.667 130.666 384 135.999c93.333 3.33301 194.333 -11.667 303 -45
c48.667 -14.667 87.667 -32.334 117 -53.001c4 -2.66699 5.66699 -5 5 -7c-1.33301 -2 -4.33301 -1.5 -9 1.5s-11.334 5.83301 -20.001 8.5c-4 1.33301 -7.66699 1.66602 -11 0.999023c-37.333 -4.66699 -73 -34.667 -107 -90
c-27.333 -44.667 -52.333 -102.334 -75 -173.001c-27.333 -84.667 -58.333 -155 -93 -211c68.667 87.333 158 183 268 287c164.667 155.333 306.334 233.333 425.001 234c60 0.666992 100 -22 120 -68c2 -4.66699 2 -8 0 -10zM1273 578.004
c-28.667 12 -54.6631 20.668 -77.9961 26.001c-80 19.333 -159.333 29 -238 29c-21.333 0 -44 -0.666992 -68 -2c-117.333 -5.33301 -227 -39.333 -329 -102c8.66699 0 22.5 -0.333008 41.5 -1s41.167 -13.667 66.5 -39s37.666 -57.333 36.999 -96
c-2.66699 -95.333 -53.334 -182 -152.001 -260c-68.667 -54 -137 -90.667 -205 -110c16.667 -28.667 40 -50.667 70 -66c59.333 27.333 121.666 66.333 186.999 117c63.333 48 137.666 112.667 222.999 194l147 137c42 36.667 88 73.667 138 111
c26 19.333 55.667 35.666 89 48.999c24 10 47.667 14.333 71 13zM689.005 392.005c0.666992 35.333 -10.168 64.3311 -32.501 86.998s-50.833 35 -85.5 37c-9.33301 0.666992 -20.333 0.333984 -33 -0.999023c-32.667 -22 -59.667 -45 -81 -69
c-36.667 -41.333 -67 -87.666 -91 -138.999c-28 -60 -42 -117.667 -42 -173c0 -34 5.66699 -66 17 -96c52 17.333 116.333 56 193 116c48.667 38 87.667 82.333 117 133c24.667 42 37.334 77 38.001 105zM492.003 508.003c-70 -15.333 -151.003 -63.6689 -243.003 -145.002
c-53.333 -47.333 -96.333 -96.333 -129 -147c-28.667 -44.667 -45.667 -84.667 -51 -120c-1.33301 -11.333 -2 -22 -2 -32c0 -54 20.333 -95 61 -123c34 -24 74 -34.667 120 -32c45.333 2.66699 96.666 16 153.999 40c-31.333 18.667 -54.666 42.334 -69.999 71.001
c-25.333 -6 -49 -8.66699 -71 -8c-36 0.666992 -60.333 11 -73 31c-2 4 -3 7.33301 -3 10s1 4.33398 3 5.00098c2 0 5.33301 -2.33301 10 -7c10.667 -18.667 31.334 -28 62.001 -28c18.667 0 40.334 3.33301 65.001 10c-11.333 30.667 -17 64.334 -17 101.001
c0 57.333 13.333 117 40 179c24.667 56 56.334 105.667 95.001 149c12 13.333 28.333 28.666 49 45.999z" />
    <glyph glyph-name="O" unicode="O" horiz-adv-x="857" 
d="M1020 443c-26 -98 -97.9951 -175.334 -215.995 -232.001c-22.667 -26.667 -43.334 -48.334 -62.001 -65.001c-66.667 -61.333 -141.334 -112.333 -224.001 -153c-84.667 -41.333 -161 -63.333 -229 -66h-19c26 -23.333 64.333 -35 115 -35c74 0 138.667 26.667 194 80
c4 4 7.33301 5 10 3c2 -1.33301 1.66699 -4.66602 -1 -9.99902c-24.667 -24.667 -56.334 -45.5 -95.001 -62.5s-75.667 -25.5 -111 -25.5c-60.667 0 -105.334 17 -134.001 51c-98 10.667 -148.667 59.334 -152 146.001c-2.66699 70 31.333 151.667 102 245
c-9.33301 24.667 -14.333 51 -15 79c-2 72.667 26.667 136 86 190c63.333 58 143 87 239 87c61.333 0 112.666 -18 153.999 -54c69.333 18.667 133 26 191 22c52 -3.33301 93.333 -17 124 -41c34 -25.333 51 -60.333 51 -105c0 -16.667 -2.66699 -34.667 -8 -54z
M999.005 445.999c4.66699 18 6.99805 35 6.99805 51c0 40 -14.667 71.667 -44 95c-27.333 21.333 -63 33.333 -107 36c-48.667 2.66699 -106.667 -6.66602 -174 -27.999c14.667 -18.667 22.334 -37.667 23.001 -57c0.666992 -4.66699 -1 -7.66699 -5 -9
c-4 -0.666992 -6 2 -6 8c-5.33301 19.333 -14.333 37 -27 53c-96 -33.333 -188 -84.666 -276 -153.999c-60.667 -47.333 -114.667 -97 -162 -149c16 -28 39.333 -51.333 70 -70c38 51.333 94.667 107.666 170 168.999c54 43.333 114.333 78.666 181 105.999
c64.667 26.667 121.667 40 171 40c71.333 0 107 -29.667 107 -89c0 -51.333 -32.667 -120 -98 -206c90.667 53.333 147.334 121.333 170.001 204zM910.003 449.999c0 48 -29.668 72 -89.001 72c-97.333 0 -208.666 -50.333 -333.999 -151
c-70 -56.667 -126.333 -110.334 -169 -161.001c56 -30.667 126.333 -46 211 -46c82 0 159.333 14.667 232 44c99.333 100.667 149 181.334 149 242.001zM645.002 616.999c-36 29.333 -79.667 44 -131 44c-94 0 -172.333 -29 -235 -87c-56.667 -52 -84 -108.667 -82 -170
c0.666992 -25.333 4.66699 -49 12 -71c42.667 52 91 98.667 145 140c86 65.333 183 113.333 291 144zM736.002 182.999c-69.333 -22 -139.667 -33 -211 -33c-86 0 -158.333 16 -217 48c-36.667 -46.667 -59.667 -90 -69 -130c-4 -18 -6 -34.667 -6 -50
c0 -30.667 7.33301 -55.667 22 -75c8 -0.666992 17.333 -1 28 -1c64.667 0.666992 137.667 23 219 67c75.333 40.667 149 94.667 221 162c2.66699 2.66699 7 6.66699 13 12zM289.001 209.999c-28.667 18.667 -52.335 42.001 -71.002 70.001
c-67.333 -78.667 -100.666 -147 -99.999 -205c0.666992 -76.667 39.667 -120 117 -130c-12 20.667 -18 45 -18 73c0 17.333 2.33301 35.666 7 54.999c10.667 44 32.334 89.667 65.001 137z" />
    <glyph glyph-name="P" unicode="P" horiz-adv-x="833" 
d="M1410 608c-1.33301 -1.33301 -5.33105 0.663086 -11.998 5.99609c-8.66699 8 -15.334 13.333 -20.001 16c-29.333 16.667 -63 24.667 -101 24c-50 -0.666992 -99.333 -10.667 -148 -30c-29.333 -12 -52 -24 -68 -36c20 -25.333 30 -56.666 30 -93.999
c0 -34.667 -10 -66.667 -30 -96c-22.667 -33.333 -52.5 -60.833 -89.5 -82.5s-73.833 -32.5 -110.5 -32.5c-16 0 -30.167 1.33301 -42.5 4s-18.5 6.66699 -18.5 12c0 1.33301 0.666992 3 2 5c3.33301 4.66699 9.66602 4.66699 18.999 0c4.66699 -2.66699 12 -5.66699 22 -9
c63.333 -6.66699 125.333 33.666 186 120.999c24.667 36 37 70.667 37 104c0 23.333 -5.33301 43 -16 59c-48 -36.667 -99.333 -86 -154 -148l-114 -137c-175.333 -197.333 -331.666 -312 -468.999 -344c49.333 -76.667 122 -115.334 218 -116.001c44 0 78 10.333 102 31
c9.33301 8 15.333 11.333 18 10c4.66699 -2.66699 2 -8.33398 -8 -17.001c-28 -24 -66 -36 -114 -36c-49.333 0 -94.5 11.167 -135.5 33.5s-73.167 52.833 -96.5 91.5c-33.333 -7.33301 -70 -10.666 -110 -9.99902c-46 0.666992 -84.333 13.334 -115 38.001
c-37.333 29.333 -56 71 -56 125c0 94 36 180.667 108 260c56 61.333 122 111.333 198 150s144.333 57.334 205 56.001c104 65.333 219.333 98 346 98c79.333 0 139 -22 179 -66c72.667 46.667 147.667 70.334 225 71.001c59.333 0.666992 101.666 -10.666 126.999 -33.999
c6 -5.33301 9.33301 -10.666 10 -15.999c1.33301 -6 0 -9.66699 -4 -11zM1040 590.996c-39.333 36 -95.002 54.001 -167.002 54.001c-105.333 0 -206 -28.667 -302 -86c26.667 -8 48 -21.667 64 -41c17.333 -22 25.333 -48 24 -78c-4 -86.667 -56.333 -170.667 -157 -252
c-79.333 -64 -156 -102.667 -230 -116c0.666992 -4 1.33398 -10 2.00098 -18c4.66699 -30 14.334 -58.333 29.001 -85c65.333 22 136 65 212 129c54.667 46 122.334 112.667 203.001 200c67.333 72.667 118.666 126 153.999 160c60 57.333 116 101.666 168 132.999z
M643 441.997c2 28.667 -6 53 -24 73c-16 17.333 -37 29 -63 35c-35.333 -22.667 -67 -46.667 -95 -72c-60 -54.667 -107 -116.334 -141 -185.001c-35.333 -71.333 -51.666 -139.333 -48.999 -204c62 18.667 132.667 60.334 212 125.001
c101.333 83.333 154.666 159.333 159.999 228zM508 552.997c-58.667 -2.66699 -122.999 -26.9951 -192.999 -72.9951c-62 -41.333 -117.667 -92 -167 -152c-76 -92.667 -114 -168.667 -114 -228c0 -51.333 17 -90 51 -116c27.333 -21.333 62.333 -32.333 105 -33
c30.667 -0.666992 63 3.66602 97 12.999c-16.667 31.333 -26.667 66.333 -30 105c-16.667 -1.33301 -30.334 -1.66602 -41.001 -0.999023c-26 1.33301 -46 8.66602 -60 21.999s-21 29.666 -21 48.999c0 12.667 3 25 9 37c7.33301 9.33301 12 13.666 14 12.999
s1.33301 -4.33398 -2 -11.001c-6.66699 -12 -10 -24.333 -10 -37c0 -16.667 5.5 -30.667 16.5 -42s26.167 -17.333 45.5 -18c13.333 -0.666992 29 0.666016 47 3.99902c-4 77.333 12.667 155.333 50 234c34 70.667 80 132 138 184c17.333 16 39 32.667 65 50z" />
    <glyph glyph-name="Q" unicode="Q" horiz-adv-x="828" 
d="M813 228c-21.333 -24.667 -40 -44.666 -56 -59.999c-62 -58.667 -133.333 -107.334 -214 -146.001c-82.667 -40 -157.667 -61 -225 -63c-11.333 0 -22.666 0.333008 -33.999 1c19.333 -60.667 71 -91 155 -91c72 0 135 25.667 189 77c3.33301 3.33301 6 4.33301 8 3
c3.33301 -1.33301 3.33301 -4.66602 0 -9.99902c-32 -36.667 -69.333 -66 -112 -88c-39.333 -20 -75.666 -30 -108.999 -30c-52.667 0 -93.334 13.667 -122.001 41c-26 24.667 -40 58.667 -42 102c-84 16 -128 58.667 -132 128c-4 70.667 24 146.334 84 227.001
c-14 25.333 -22.333 53.333 -25 84c-6.66699 80.667 21.666 148 84.999 202c56.667 48 134 70.667 232 68c55.333 -1.33301 103.333 -17.666 144 -48.999c68 20 131.667 29 191 27c54 -1.33301 98.167 -16.333 132.5 -45s51.5 -66.334 51.5 -113.001
c0 -54.667 -21.333 -107.334 -64 -158.001c-36 -42.667 -81.667 -78.334 -137 -107.001zM999 493.001c0 41.333 -15.9971 75.1709 -47.9971 101.504s-71.333 40.166 -118 41.499c-54.667 2 -112.334 -8.33301 -173.001 -31c16 -18 25.333 -37 28 -57
c1.33301 -4.66699 0 -7.33398 -4 -8.00098s-6 1.33301 -6 6c-6.66699 21.333 -17.334 39 -32.001 53c-78 -30 -159.333 -79.333 -244 -148c-72 -58 -127 -109 -165 -153c25.333 -32 61.666 -58.667 108.999 -80c41.333 58.667 93 115 155 169c52 45.333 106.5 82 163.5 110
s108.167 42 153.5 42c28.667 0 51.667 -6.66699 69 -20c20 -14.667 30 -36.334 30 -65.001c0 -51.333 -27.333 -116.333 -82 -195c44.667 27.333 81.667 60 111 98c35.333 45.333 53 90.666 53 135.999zM901.003 455.006c0 42.667 -21.001 66.333 -63.001 71
c-89.333 9.33301 -197.666 -40.667 -324.999 -150c-54 -46.667 -104 -101.667 -150 -165c53.333 -20.667 114 -31 182 -31c78 0 150.667 14.333 218 43c33.333 34 62.333 69.667 87 107c34 50 51 91.667 51 125zM623.002 619.005c-35.333 26 -78.666 39.667 -129.999 41
c-84 2 -155.667 -21 -215 -69c-62.667 -50.667 -91 -111.667 -85 -183c2 -26.667 9 -51.667 21 -75c38.667 50 88.667 99.333 150 148c79.333 63.333 165.666 109.333 258.999 138zM738.002 198.005c-62.667 -21.333 -127.666 -32 -194.999 -32
c-64.667 0 -127.334 10.667 -188.001 32c-51.333 -72.667 -77 -137 -77 -193c0 -10.667 1 -20.667 3 -30c10 -0.666992 19.333 -1 28 -1c66 2 139 24.333 219 67c76.667 40.667 146.667 93 210 157zM338.003 206.005c-46.667 20.667 -83.668 47.667 -111.001 81
c-63.333 -73.333 -93.333 -137 -90 -191c4 -63.333 42 -102.333 114 -117c0.666992 40 11.334 83 32.001 129c14.667 34 33 66.667 55 98z" />
    <glyph glyph-name="R" unicode="R" horiz-adv-x="893" 
d="M1410 608c-0.666992 -0.666992 -1.66602 -0.99707 -2.99902 -0.99707c-2 0 -5.33301 2.33301 -10 7c-7.33301 7.33301 -13.666 12.666 -18.999 15.999c-24.667 16.667 -58.334 24.667 -101.001 24c-50 -0.666992 -99.333 -10.667 -148 -30c-29.333 -12 -52 -24 -68 -36
c20 -25.333 30 -57 30 -95c0 -36 -10 -68.333 -30 -97c-21.333 -30.667 -50.666 -56.667 -87.999 -78s-74.666 -33 -111.999 -35h-19c-16.667 -49.333 -31.334 -105 -44.001 -167c-10.667 -50 -15.667 -90.333 -15 -121c0.666992 -44 15 -66.667 43 -68
c18.667 -0.666992 37.667 8 57 26c4 4.66699 7.33301 6 10 4c1.33301 -2 -0.333984 -5.66699 -5.00098 -11c-28 -32 -59.667 -47.667 -95 -47c-43.333 0.666992 -65 29 -65 85c0 34.667 9 80.667 27 138c10 32.667 32 86.667 66 162c-14 1.33301 -21 6.33301 -21 15
c0 13.333 8.66699 16.333 26 9c2 -0.666992 7.66699 -4.66699 17 -12c64.667 -5.33301 126.667 34.667 186 120c24.667 36 37 71 37 105c0 24.667 -5.33301 44 -16 58c-48.667 -36.667 -100.667 -86.334 -156 -149.001l-116 -138c-173.333 -194 -320 -319 -440 -375
c50.667 -54.667 115 -82.334 193 -83.001c43.333 -0.666992 77.333 10 102 32c9.33301 8 15.333 11 18 9c2 -1.33301 3 -2.66602 3 -3.99902c0 -2.66699 -3.66699 -7 -11 -13c-28 -23.333 -66 -35.333 -114 -36c-85.333 -0.666992 -154 28.333 -206 87
c-58 -24.667 -117.667 -37 -179 -37c-46 0 -84.333 12 -115 36c-35.333 28 -54 68 -56 120c-4.66699 104 45.333 214.667 150 332c55.333 62 121.333 112.667 198 152s145 57.666 205 54.999c104 64 217 96 339 96c77.333 0 139.666 -21.667 186.999 -65
c72.667 46.667 147.667 70.667 225 72c60 0.666992 102 -10.333 126 -33c14 -13.333 16.333 -23 7 -29zM1040 591.003c-43.333 36 -101.667 54.002 -175 54.002c-103.333 0 -202 -29 -296 -87c55.333 -16.667 83 -56 83 -118c0 -34.667 -11.667 -75.334 -35 -122.001
c-26 -52 -61.667 -99.667 -107 -143c-80.667 -77.333 -158 -124 -232 -140c10 -38 23.667 -69 41 -93c97.333 55.333 230.333 174 399 356c68.667 74 120 127.333 154 160c60 57.333 116 101.666 168 132.999zM636 442.005c0 57.333 -26.332 93.667 -78.999 109
c-33.333 -21.333 -62 -42.333 -86 -63c-61.333 -53.333 -110 -114.5 -146 -183.5s-54 -136.167 -54 -201.5c0 -18 1.33301 -35.667 4 -53c61.333 18.667 132.666 67 213.999 145c46.667 44.667 83.667 91 111 139c24 42.667 36 78.667 36 108zM508.001 555.006
c-57.333 -2 -120.334 -26.333 -189.001 -73c-58 -39.333 -113.333 -89 -166 -149c-54 -62 -93 -114 -117 -156c-31.333 -54.667 -46 -104.667 -44 -150c2 -48.667 18.667 -85.334 50 -110.001c27.333 -22 62.666 -32.333 105.999 -31c48.667 1.33301 100.334 17 155.001 47
c-21.333 30.667 -35.333 63.667 -42 99c-14.667 -2.66699 -29 -3 -43 -1c-48.667 7.33301 -73 31 -73 71c0 10 2 20.833 6 32.5s8 16.5 12 14.5c3.33301 -0.666992 3.33301 -5 0 -13c-4.66699 -10 -7 -20 -7 -30c0 -35.333 19 -56 57 -62c12 -2 27 -1.33301 45 2
c-3.33301 21.333 -5 43.333 -5 66c0 86 24.333 170 73 252c46.667 78.667 107.334 142.334 182.001 191.001z" />
    <glyph glyph-name="S" unicode="S" horiz-adv-x="708" 
d="M1331 598c3.33301 -6.66699 4 -13.6641 2 -20.9971c-2.66699 -8.66699 -7.66699 -13.334 -15 -14.001c-2.66699 0 -7.66699 7.66699 -15 23c-17.333 34.667 -49.666 52 -96.999 52c-66 0 -138.667 -34.667 -218 -104
c-57.333 -51.333 -143.666 -146.666 -258.999 -285.999c-197.333 -239.333 -377.666 -359 -540.999 -359c-15.333 0 -30.333 1 -45 3c-44 6 -78.667 22.333 -104 49s-38 62 -38 106c0 120 69.333 243 208 369c61.333 56 129.666 101 204.999 135
c69.333 31.333 130 47 182 47c33.333 0 60.5 -8.33301 81.5 -25s31.5 -41.667 31.5 -75c0 -24 -5.33301 -49 -16 -75c-16.667 -40.667 -42.667 -85 -78 -133c-38 -52.667 -78.667 -97.667 -122 -135c-114 -98.667 -217 -148 -309 -148c-32.667 0 -53 10.333 -61 31
c-4.66699 9.33301 -3.66699 15 3 17c1.33301 0.666992 3 -1.5 5 -6.5s3.66699 -8.5 5 -10.5c10 -13.333 25.667 -20 47 -20c44 0 92.667 17 146 51c33.333 21.333 81.333 59.333 144 114c40.667 35.333 80 75.333 118 120c43.333 50.667 72 92.667 86 126
c10.667 26 16 49.667 16 71c0 41.333 -20.333 67.666 -61 78.999c-10 2.66699 -21.333 4 -34 4c-44.667 0 -99.334 -17.833 -164.001 -53.5s-130.667 -83.834 -198 -144.501c-144 -130 -216 -242.667 -216 -338c0 -39.333 10.833 -71.333 32.5 -96
s51.167 -39.334 88.5 -44.001c12 -1.33301 24.333 -2 37 -2c75.333 0 155.666 32.667 240.999 98c70.667 54 157.667 142 261 264c118 138.667 217.167 237.167 297.5 295.5s158.5 87.5 234.5 87.5c62 0 101.667 -17.333 119 -52z" />
    <glyph glyph-name="T" unicode="T" horiz-adv-x="1028" 
d="M1921 692c4 -46 -32.335 -82 -109.002 -108c-66 -22 -145 -32.333 -237 -31c-75.333 1.33301 -152.333 6.33301 -231 15c-68.667 -59.333 -175 -165.333 -319 -318c-106 -112.667 -202.333 -196 -289 -250c-108.667 -67.333 -213.667 -98 -315 -92
c-42 2.66699 -76 14.334 -102 35.001c-31.333 25.333 -47 61 -47 107c0 61.333 28.333 132 85 212c43.333 61.333 95.333 119 156 173c64.667 57.333 148.334 111.333 251.001 162c-182 -4.66699 -322.333 -24.334 -421 -59.001c-78 -27.333 -145.667 -70.333 -203 -129
c-61.333 -62 -95 -127 -101 -195c-0.666992 -9.33301 -1 -18 -1 -26c0 -75.333 30 -114.666 90 -117.999c16.667 -1.33301 25 -3 25 -5c0 -8.66699 -7.33301 -13 -22 -13c-35.333 0 -63.166 13.5 -83.499 40.5s-28.5 65.167 -24.5 114.5
c6.66699 80.667 41.667 154.334 105 221.001c56 59.333 124 104 204 134c124.667 47.333 297.667 71.333 519 72c86.667 34 154 49.667 202 47c49.333 -2.66699 76.666 -24.334 81.999 -65.001c49.333 -4.66699 117.333 -12.667 204 -24c40 29.333 72.333 46.666 97 51.999
c6 1.33301 10.667 2 14 2c4.66699 0 6.66699 -1.66699 6 -5c0 -2 -4.66699 -4.33301 -14 -7c-20.667 -6 -46 -21.333 -76 -46c72.667 -8.66699 142.667 -14 210 -16c92.667 -2.66699 166.334 4 221.001 20c68.667 20 101 53 97 99c-2.66699 30 -20.667 43.667 -54 41
c-10.667 -0.666992 -16 0.333008 -16 3s4.66699 5 14 7c5.33301 1.33301 11 2 17 2c41.333 0 63.333 -17.333 66 -52zM1121 618c-6.66699 33.333 -31.001 50 -73.001 50c-44.667 0 -96 -11.667 -154 -35c54.667 -0.666992 130.334 -5.66699 227.001 -15zM1315 570
l-180.999 16.998c-6 -39.333 -34.667 -92.333 -86 -159c-46 -58 -96.333 -111.333 -151 -160c-64.667 -56.667 -128.334 -102.667 -191.001 -138c-66 -36.667 -119.333 -55 -160 -55c-14 0 -26.167 3.83301 -36.5 11.5s-12.5 13.167 -6.5 16.5
c1.33301 0.666992 5.5 -1.66602 12.5 -6.99902s14.833 -8 23.5 -8c34.667 -1.33301 86 19.667 154 63c59.333 37.333 120.666 84.333 183.999 141c148 132.667 229 231.334 243 296.001c-100 6.66699 -176 10 -228 10h-77c-84.667 -44 -171.334 -104 -260.001 -180
c-65.333 -56 -122.666 -115.333 -171.999 -178c-56.667 -73.333 -87 -132.333 -91 -177c-4 -48 8 -84 36 -108c24 -20 56 -30 96 -30c140.667 0 323.334 111.667 548.001 335c44.667 44 106 101.333 184 172c74.667 66.667 127.667 112.667 159 138z" />
    <glyph glyph-name="U" unicode="U" horiz-adv-x="990" 
d="M1399 605c0 -12 -9.00098 -25.9971 -27.001 -41.9971c-26 -24 -70.667 -53.667 -134 -89l-82 -77l-153 -148c-72.667 -72.667 -134.334 -147 -185.001 -223c-16.667 -24.667 -29 -45.667 -37 -63c-12.667 -1.33301 -19 8 -19 28c0 18.667 7 40 21 64
c24.667 43.333 80.334 109 167.001 197c20.667 21.333 46.667 45 78 71l-3 4l-96 -75l-169 -132c-26 -42.667 -60 -83.667 -102 -123c-111.333 -104.667 -240.666 -154.667 -387.999 -150c-74 2.66699 -133.333 23 -178 61c-48 40.667 -71 95.667 -69 165
c2 70.667 29 145 81 223c54 80.667 124.667 149.667 212 207c139.333 92 295 138 467 138c84.667 0 172 -11 262 -33c4.66699 1.33301 10.667 3.33301 18 6s12 3 14 1c1.33301 -1.33301 1.33301 -5.33301 0 -12c0 -0.666992 -0.666992 -2.33398 -2 -5.00098
c17.333 -4.66699 32.666 -10.667 45.999 -18c9.33301 -4.66699 12.333 -9.33398 9 -14.001c-1.33301 -1.33301 -5 -0.333008 -11 3l-6 3c-10 5.33301 -24.333 10.666 -43 15.999c-2 -2.66699 -7.66699 -7.66699 -17 -15s-22.333 -16 -39 -26
c-54 -33.333 -128.333 -86.333 -223 -159c16 -34 22.667 -72.667 20 -116c-2.66699 -38 -12.667 -75.667 -30 -113l102 79l341 250c38.667 38.667 69.334 68 92.001 88c32.667 29.333 55.667 44 69 44c9.33301 0 14 -5 14 -15zM1027 599.003
c-77.333 14.667 -158.668 21.9971 -244.001 21.9971c-148.667 0 -298.334 -49.667 -449.001 -149c-84 -55.333 -153 -121.666 -207 -198.999c-52.667 -74 -79.667 -140.667 -81 -200c-2 -67.333 19 -119.666 63 -156.999c40 -34 93.667 -52 161 -54
c140.667 -4.66699 266 43.666 376 144.999c28 26 53.333 54 76 84c-48 -34.667 -82.667 -59 -104 -73c-86 -54.667 -146.333 -82 -181 -82c-16.667 0 -30.167 5.33301 -40.5 16s-15.5 23.334 -15.5 38.001c0 29.333 17.333 69 52 119c49.333 70.667 127.333 151 234 241
c24.667 20.667 53.334 43.334 86.001 68.001c-32 34 -77.333 51 -136 51c-41.333 0 -82.833 -11 -124.5 -33s-73.167 -49.167 -94.5 -81.5s-33.666 -59.5 -36.999 -81.5c-1.33301 -6.66699 -3.66602 -10 -6.99902 -10s-5 3.33301 -5 10c3.33301 28.667 16.666 60 39.999 94
c22 32 53.667 59.333 95 82c44 24 88.667 36 134 36c63.333 0 112.333 -19.333 147 -58c108 80.667 195.333 138 262 172zM793.997 270c2 42.667 -3.33398 78.665 -16.001 107.998l-109 -89c-78 -65.333 -143.333 -133.666 -196 -204.999
c-36.667 -49.333 -55 -85.333 -55 -108c0 -14.667 9.33301 -22 28 -22c28.667 0 83.334 27 164.001 81c41.333 27.333 88.333 61 141 101c26.667 46.667 41 91.334 43 134.001z" />
    <glyph glyph-name="V" unicode="V" horiz-adv-x="824" 
d="M1650 591c1.33301 -5.33301 1.00098 -8.33594 -0.999023 -9.00293s-4 0 -6 2c-32 36.667 -72 56.667 -120 60c-68 4 -170.667 -36 -308 -120c-95.333 -58.667 -197.666 -132 -306.999 -220l-126 -103c-43.333 -97.333 -115.333 -180 -216 -248
c-104.667 -70.667 -212.334 -106 -323.001 -106c-68.667 0 -124.667 18 -168 54c-45.333 38 -68 89.667 -68 155c0 20.667 2.33301 42 7 64c12 56.667 34.667 113.334 68 170.001c42.667 72.667 97.667 135 165 187c74 57.333 158.333 100.666 253 129.999
c84 26.667 167.333 40 250 40c67.333 0 129.333 -6.33301 186 -19c2.66699 5.33301 6 13.333 10 24c3.33301 6.66699 5.33301 10 6 10c3.33301 -2 6.33301 -5.66699 9 -11c4.66699 -10 7 -20.667 7 -32c10 -3.33301 24.333 -9.16602 43 -17.499s31 -18.166 37 -29.499
c4 -6.66699 4.66699 -11.334 2 -14.001c-0.666992 0 -3.33398 1.66699 -8.00098 5c-8 9.33301 -18 17.333 -30 24c-8.66699 4.66699 -24.334 10.334 -47.001 17.001c-10 -27.333 -30.667 -62.666 -62 -105.999c-23.333 -32 -61.333 -75.333 -114 -130
c8.66699 -22.667 13 -47 13 -73c0 -18 -2 -35.667 -6 -53l79 65c152.667 124.667 269 212.667 349 264c124.667 79.333 224.334 116.333 299.001 111c68 -4.66699 110.333 -35 127 -91zM776.001 355.997c-82 -85.333 -179.667 -178.668 -293 -280.001
c-54 -48 -82.333 -79 -85 -93c-1.33301 -5.33301 0.666992 -8.66602 6 -9.99902c6.66699 -2 21.667 2.66699 45 14c28 14 59.667 33.667 95 59c66.667 48.667 143 108 229 178c8 22.667 12 46.334 12 71.001c0 21.333 -3 41.666 -9 60.999zM928.001 612.995
c-44 10 -99.002 14.6699 -165.002 14.0029c-76 -0.666992 -154.667 -14.334 -236 -41.001c-95.333 -32 -180.666 -78 -255.999 -138c-64.667 -52 -118.334 -109.667 -161.001 -173c-37.333 -56 -61.333 -108.667 -72 -158c-4.66699 -22.667 -7 -44.334 -7 -65.001
c0 -62 21.333 -110 64 -144c38.667 -30.667 88 -46 148 -46c94 0 187.667 27.667 281 83c100 58.667 175.667 135.667 227 231c-72.667 -58.667 -138.667 -108 -198 -148c-72 -48 -124.333 -72 -157 -72c-16.667 0 -24.667 8.66699 -24 26
c1.33301 23.333 27.666 62.666 78.999 117.999c28 30 67.333 69 118 117c66.667 62.667 107.167 101.334 121.5 116.001l64.5 67c-30.667 46.667 -79.667 70 -147 70c-38 0 -77.667 -10 -119 -30c-44.667 -22 -80.334 -51 -107.001 -87c-20 -27.333 -32 -54 -36 -80
c-1.33301 -7.33301 -3.66602 -11 -6.99902 -11c-4.66699 0 -6.66699 3.66699 -6 11c2 28 13.667 57.333 35 88c26.667 38.667 62.334 69 107.001 91s89.334 33 134.001 33c70 0 122.667 -24.333 158 -73c34.667 37.333 68.334 76 101.001 116
c29.333 35.333 49.333 63.666 60 84.999z" />
    <glyph glyph-name="W" unicode="W" horiz-adv-x="1185" 
d="M1993 588c2 -5.33301 1.99902 -8.66992 -0.000976562 -10.0029c-2.66699 0 -5 1 -7 3c-37.333 38.667 -84.333 59.667 -141 63c-123.333 6.66699 -313.333 -106.666 -570 -339.999l-165 -150c-58.667 -53.333 -108.667 -95.333 -150 -126c-64 -48 -113 -72 -147 -72
c-19.333 0 -29.333 8.66699 -30 26c-1.33301 26 18.334 65.333 59.001 118c34 43.333 105 123 213 239c55.333 59.333 102 115.333 140 168c8 11.333 11.333 18.333 10 21c-1.33301 2 -15 -6 -41 -24c-37.333 -26 -82.333 -60 -135 -102l-122 -98l-126 -100
c-42.667 -98 -114.334 -181.333 -215.001 -250c-104.667 -71.333 -212.667 -107 -324 -107c-72.667 0 -130.167 18.833 -172.5 56.5s-63.5 89.167 -63.5 154.5c0 17.333 1.66699 35.333 5 54c10 58.667 35 120.667 75 186c44.667 72 98.667 132.667 162 182
c143.333 111.333 314 167 512 167c64 0 122 -6.33301 174 -19c2.66699 6 5 12.333 7 19c4.66699 10 7.66699 15 9 15c2 -0.666992 4.33301 -4.66699 7 -12c2.66699 -10.667 4 -20.667 4 -30c16 -4.66699 33 -11.334 51 -20.001c16 -7.33301 27.667 -16.666 35 -27.999
c3.33301 -7.33301 3.66602 -12 0.999023 -14c-0.666992 0 -3.33398 1.66699 -8.00098 5c-8 8.66699 -17.667 16.334 -29 23.001s-28.666 13.334 -51.999 20.001c-9.33301 -48.667 -66.333 -127.667 -171 -237c8 -22 12 -46 12 -72c0 -18 -2 -36 -6 -54l79 64
c126 100 219.667 171 281 213c54 36.667 89.667 55 107 55c10.667 0 16 -5 16 -15c0 -9.33301 -10.667 -30 -32 -62c-32 -48.667 -91.333 -122 -178 -220c-40.667 -46 -103.667 -113.333 -189 -202c-43.333 -44.667 -66.333 -75.667 -69 -93
c0.666992 -6 3.66699 -9.33301 9 -10c26 -4.66699 70.5 19.166 133.5 71.499s159.833 139.833 290.5 262.5c128.667 121.333 233.334 209.666 314.001 264.999c115.333 78.667 212.333 115.334 291 110.001c74.667 -5.33301 123.334 -36.666 146.001 -93.999z
M774.999 355.996l-76.999 -78.002c-46.667 -46 -119.334 -113.333 -218.001 -202c-53.333 -48 -81.333 -79 -84 -93c-1.33301 -5.33301 1 -8.66602 7 -9.99902c24.667 -4.66699 72 19.333 142 72c54 40.667 129.667 100.667 227 180c8 22.667 12 46.334 12 71.001
c0 20.667 -3 40.667 -9 60zM927 612.994c-45.333 9.33301 -98.6689 14.001 -160.002 14.001c-87.333 0 -176 -16.667 -266 -50c-86 -31.333 -163.333 -74.333 -232 -129c-65.333 -52 -119.666 -111 -162.999 -177c-40 -59.333 -64 -113.666 -72 -162.999
c-3.33301 -18.667 -5 -36.334 -5 -53.001c0 -63.333 21 -112 63 -146c38 -31.333 88 -47 150 -47c94 0 188 28 282 84c100 60 175.667 138 227 234c-81.333 -66 -147.666 -116.667 -198.999 -152c-70 -48 -122.667 -72 -158 -72c-18.667 0 -26.667 8.66699 -24 26
c4 30.667 30.333 70 79 118l244 237l60 63c-30.667 46.667 -79.334 70 -146.001 70c-36.667 0 -74.334 -9 -113.001 -27c-42.667 -20 -77.5 -46.167 -104.5 -78.5s-41.833 -62.833 -44.5 -91.5c-0.666992 -3.33301 -2.66699 -7 -6 -11c-2.66699 -0.666992 -4.5 0 -5.5 2
s-1.5 5 -1.5 9c2.66699 32 17.834 65.667 45.501 101s62.834 62.666 105.501 81.999c40.667 19.333 82.334 29 125.001 29c69.333 0 121.666 -24 156.999 -72c40.667 42.667 74.667 81 102 115s47.333 62.333 60 85z" />
    <glyph glyph-name="X" unicode="X" horiz-adv-x="961" 
d="M1721 612c5.33301 -8.66699 4.33105 -13.333 -3.00195 -14l-12 11c-28.667 28 -75 42 -139 42c-57.333 0 -128.666 -24.667 -213.999 -74c-82 -48 -170 -114.667 -264 -200c-122 -111.333 -211.333 -212.333 -268 -303c-25.333 -41.333 -40.333 -76.333 -45 -105
c0.666992 -9.33301 -0.333008 -19 -3 -29c-8 -2.66699 -12.333 7 -13 29c-1.33301 30 5.66699 62 21 96c50.667 112.667 141.334 227 272.001 343c202.667 180 380 266 532 258c70 -4 115.333 -22 136 -54zM997.998 453.001
c-23.333 -80 -81.6689 -165.331 -175.002 -255.998c-166 -160.667 -319.667 -268 -461 -322c49.333 -44 111.666 -66 186.999 -66c40.667 0 82 7.83301 124 23.5s77.333 36.834 106 63.501c12 11.333 23.667 25.666 35 42.999
c4.66699 6.66699 8.33398 9.33398 11.001 8.00098c5.33301 -2 5.33301 -7 0 -15c-6 -13.333 -18.333 -28.666 -37 -45.999c-62.667 -59.333 -142.667 -89 -240 -89c-83.333 0 -151.333 23.667 -204 71c-69.333 -23.333 -136 -35 -200 -35c-47.333 0 -87.666 12 -120.999 36
c-40.667 29.333 -61 72 -61 128c0 60 19.333 123.667 58 191c36 63.333 85.333 123 148 179c53.333 48 114.833 90.167 184.5 126.5s133.834 59.166 192.501 68.499c102 69.333 199.667 101.666 293 96.999c52 -2.66699 93 -17.834 123 -45.501s45 -62.834 45 -105.501
c0 -18 -2.66699 -36.333 -8 -55zM967.995 468.003c3.33301 13.333 5.00195 26.667 5.00195 40c0 36 -11.333 66.333 -34 91c-24.667 26 -58.334 39.667 -101.001 41c-83.333 2.66699 -169 -22 -257 -74c15.333 0 26.666 -0.333008 33.999 -1
c79.333 -7.33301 119 -51.333 119 -132c0 -52 -19.333 -109.667 -58 -173c-34 -54.667 -74 -101.334 -120 -140.001c-90.667 -75.333 -179 -122.333 -265 -141c11.333 -30 28.666 -59 51.999 -87c154.667 64.667 306.334 173.334 455.001 326.001
c96 98 152.667 181.333 170 250zM714.997 403.004c2 12 3 23.332 3 33.999c0 35.333 -10.667 63.333 -32 84c-18.667 18.667 -43.667 29 -75 31c-18.667 1.33301 -38 0 -58 -4c-60 -41.333 -110 -87.666 -150 -138.999c-86.667 -111.333 -130 -221.333 -130 -330
c0 -26.667 4.33301 -55.334 13 -86.001c72.667 20.667 156.334 70.334 251.001 149.001c103.333 86 162.666 173 177.999 261zM511.997 538.003c-96 -30 -203.004 -97.668 -321.004 -203.001c-60.667 -54 -110 -110.333 -148 -169c-41.333 -64 -62 -120.333 -62 -169
c0 -51.333 18 -90.333 54 -117c28.667 -20.667 65.334 -31.667 110.001 -33c50.667 -1.33301 111.334 11.667 182.001 39c-25.333 28 -43.333 58 -54 90c-15.333 -2.66699 -30.666 -4 -45.999 -4c-28 0 -50 7.66699 -66 23c-14 13.333 -21 30 -21 50
c0 10 1.66699 19.333 5 28c6.66699 10.667 11 15.667 13 15c1.33301 -0.666992 0.666016 -5.16699 -2.00098 -13.5s-4 -17.166 -4 -26.499c0 -18 6.83301 -33.167 20.5 -45.5s31.834 -18.5 54.501 -18.5c10.667 0 24.334 1.66699 41.001 5c-8.66699 26.667 -13 59 -13 97
c0 108 42 216.333 126 325c36 46.667 79.667 89 131 127z" />
    <glyph glyph-name="Y" unicode="Y" horiz-adv-x="963" 
d="M1730 585c-1.33301 -1.33301 -3.66992 0.00195312 -7.00293 4.00195c-31.333 36 -82.666 55.667 -153.999 59c-99.333 4.66699 -204.666 -36.333 -315.999 -123c-68.667 -53.333 -161.667 -150.333 -279 -291c-71.333 -86 -122 -145.333 -152 -178
c-54 -60 -102.333 -107.333 -145 -142c-169.333 -137.333 -335.333 -206 -498 -206c-72.667 0 -128.667 13.167 -168 39.5s-59 63.5 -59 111.5c0 12 1.33301 24.333 4 37c3.33301 18 11 37.667 23 59c14 26 30 46 48 60c-3.33301 16.667 -5 37.667 -5 63
c0 58.667 15.667 121 47 187c36 74.667 85.667 139.334 149 194.001c70.667 60.667 154 109.667 250 147c104.667 40 209.667 60 315 60c62.667 0 122 -7.33301 178 -22c6.66699 14 10.667 26.667 12 38c10 -12.667 15 -27.667 15 -45
c12 -4.66699 27.333 -11.334 46 -20.001c14.667 -9.33301 19 -16.333 13 -21c-1.33301 -1.33301 -6.66602 1 -15.999 7c-12 7.33301 -26.667 13.666 -44 18.999c-4.66699 -26.667 -12.667 -49 -24 -67c-48.667 -76 -127 -167.667 -235 -275c1.33301 -16 2 -28 2 -36
c0 -36.667 -5.66699 -72.667 -17 -108l137 107l172 139c84.667 67.333 159 122.666 223 165.999c130.667 89.333 240 134 328 134c76 0 128.333 -28.667 157 -86c2.66699 -5.33301 2.66699 -9 0 -11zM953.996 630.002c-50 10.667 -108.333 15.665 -175 14.998
c-96.667 -1.33301 -195.334 -23 -296.001 -65c-90.667 -38.667 -170.334 -88 -239.001 -148c-63.333 -55.333 -113.666 -116 -150.999 -182c-35.333 -63.333 -53 -120.666 -53 -171.999c0 -72 19.667 -127.333 59 -166s93 -58 161 -58c86.667 0 168.167 21.5 244.5 64.5
s132.833 99.5 169.5 169.5c-84 -57.333 -158.667 -98 -224 -122c-24 -8.66699 -43.333 -13 -58 -13c-23.333 0 -35 8.33301 -35 25s20.333 43.667 61 81l143 128c56.667 50.667 102.334 95 137.001 133c-16 38 -42.667 68.667 -80 92c-34.667 20.667 -70.334 31 -107.001 31
c-72 0 -130.667 -23.667 -176 -71c-19.333 -20.667 -32.666 -42 -39.999 -64c-2.66699 -8 -5 -11.667 -7 -11c-5.33301 1.33301 -6.33301 5 -3 11c6 26 19.667 50.667 41 74c46.667 50.667 107.667 76 183 76c42.667 0 82.5 -11.167 119.5 -33.5s64.5 -52.5 82.5 -90.5
c72 76.667 132.667 145.667 182 207c26.667 32.667 47 62.334 61 89.001zM712.996 243l0.00195312 22.999l-45 -43c-26.667 -25.333 -98.334 -88.333 -215.001 -189c-28 -24 -41.333 -40.333 -40 -49c1.33301 -6 6.33301 -9 15 -9c10 0 23.333 3.66699 40 11
c71.333 32 144.666 75.667 219.999 131c16.667 40.667 25 82.334 25 125.001zM1143 449.999c-40 -29.333 -86.3301 -65.334 -138.997 -108.001l-106 -87l-196 -149c-34.667 -79.333 -92.834 -143.666 -174.501 -192.999s-170.834 -74 -267.501 -74
c-126 0 -202.667 54.667 -230 164c-28.667 -28 -47.334 -63.333 -56.001 -106c-2.66699 -12 -4 -23.667 -4 -35c0 -90 70.333 -135 211 -135c138 0 292 72 462 216c60 50.667 142 130.667 246 240z" />
    <glyph glyph-name="Z" unicode="Z" horiz-adv-x="838" 
d="M1068 493c-16 -64 -60.6689 -128.669 -134.002 -194.002c-84 -75.333 -180.667 -125.666 -290 -150.999c25.333 -16 37.333 -40.333 36 -73c-0.666992 -26 -10 -55.667 -28 -89c-15.333 -27.333 -32 -50.333 -50 -69c-148 -148.667 -331.333 -223 -550 -223
c-68.667 0 -125 16.667 -169 50s-64.333 75.666 -61 126.999c3.33301 48.667 21.333 88 54 118c6.66699 6 11.334 8 14.001 6c2 -2 -0.333008 -6.66699 -7 -14c-26 -27.333 -40.333 -64 -43 -110s16 -83.5 56 -112.5s91.667 -43.5 155 -43.5c91.333 0 183.333 21.667 276 65
c78 36.667 149.167 85.167 213.5 145.5s98.166 114.833 101.499 163.5c2 24 -7.66699 40.667 -29 50c-27.333 -8 -49.333 -13 -66 -15c-12 -1.33301 -23 -0.5 -33 2.5s-14 8.16699 -12 15.5c4.66699 18.667 27.667 26.667 69 24c25.333 -1.33301 42.666 -4 51.999 -8
c87.333 18.667 172.666 68 255.999 148c74 70.667 123 139 147 205c8.66699 23.333 13 43.333 13 60c0 37.333 -20.333 58 -61 62c-50.667 4.66699 -105.667 -9 -165 -41c26 -24.667 39 -55.667 39 -93c0 -60 -28 -117 -84 -171c-35.333 -34 -71.666 -62 -108.999 -84
c-41.333 -24 -76 -36 -104 -36c-18 0 -33 5.66699 -45 17s-18 26.333 -18 45c0 32 16.333 71.667 49 119c30.667 44.667 68 84.834 112 120.501s87.333 64.5 130 86.5c-27.333 14 -58.333 21 -93 21c-123.333 -0.666992 -263 -77 -419 -229
c-50.667 -49.333 -94.667 -104.666 -132 -165.999c-40 -65.333 -61.667 -120.666 -65 -165.999s7.33398 -81.166 32.001 -107.499s61.667 -38.833 111 -37.5c54.667 1.33301 112.334 18.666 173.001 51.999c58.667 32.667 103.334 70.667 134.001 114
c2.66699 2.66699 5 3.66699 7 3c4.66699 -0.666992 4 -5 -2 -13c-26 -45.333 -70.833 -85 -134.5 -119s-125.5 -51.667 -185.5 -53c-54.667 -0.666992 -96.334 15.666 -125.001 48.999c-26.667 30.667 -38.667 72 -36 124c2.66699 50 22.5 107.667 59.5 173
s82.5 124.333 136.5 177c70 68.667 148.667 122.334 236 161.001c78.667 35.333 149.334 53 212.001 53c43.333 0 78.666 -9.66699 105.999 -29c60.667 30.667 115.334 46 164.001 46c75.333 0 113 -34.333 113 -103c0 -16.667 -2.33301 -34.334 -7 -53.001z
M797.998 583.998c-38 -22 -75.667 -49 -113 -81c-52 -44 -94.167 -88.167 -126.5 -132.5s-48.5 -79.833 -48.5 -106.5c0 -27.333 16 -41 48 -41c50 0 113.333 37.333 190 112c59.333 58 89 114 89 168c0 33.333 -13 60.333 -39 81z" />
    <glyph glyph-name="bracketleft" unicode="[" 
d="M735 633c-2 -6.66699 -9.33105 -10 -21.998 -10h-109l-669 -748h112c11.333 0 16.666 -3 15.999 -9c-2.66699 -7.33301 -10.334 -11 -23.001 -11h-132c-14 0 -21 2.33301 -21 7c0 6 9.33301 19.333 28 40l631 711c12 14 21.167 22.5 27.5 25.5s18.5 4.5 36.5 4.5h108
c13.333 0 19 -3.33301 17 -10z" />
    <glyph glyph-name="backslash" unicode="\" horiz-adv-x="296" 
d="M173 -92c0.666992 -8.66699 -2 -13 -8 -13s-9.33301 5.66699 -10 17l-30 639c-0.666992 11.333 2 17 8 17s9.33301 -6.66699 10 -20c8.66699 -170.667 18.667 -384 30 -640z" />
    <glyph glyph-name="bracketright" unicode="]" 
d="M587 645c14 0 21 -2.33301 21 -7c0 -6 -9.33301 -19.333 -28 -40l-631 -711c-12 -14 -21.167 -22.5 -27.5 -25.5s-18.5 -4.5 -36.5 -4.5h-108c-13.333 0 -19 3.33301 -17 10s9.33301 10 22 10h109l669 748h-112c-11.333 0 -16.333 3 -15 9c2 7.33301 9.33301 11 22 11
h132z" />
    <glyph glyph-name="asciicircum" unicode="^" horiz-adv-x="565" 
d="M501 183c4.66699 -10.667 2.66504 -15.998 -6.00195 -15.998c-4.66699 0 -10.667 5.33301 -18 16c-28 40.667 -55.333 93.667 -82 159c-102.667 -70 -191.667 -123 -267 -159c-19.333 -9.33301 -34.333 -14 -45 -14c-5.33301 0 -8 1.33301 -8 4
c0 3.33301 2.66699 6.66602 8 9.99902c114.667 67.333 213 132 295 194c12.667 9.33301 24.334 14 35.001 14s17.334 -4.66699 20.001 -14c26 -84.667 48.667 -149.334 68 -194.001z" />
    <glyph glyph-name="underscore" unicode="_" horiz-adv-x="500" 
d="M360 -236h-508v31h508v-31z" />
    <glyph glyph-name="grave" unicode="`" horiz-adv-x="250" 
d="M319 316c-2 -2 -5.66699 -1.33301 -11 2c-12.667 8.66699 -25 21 -37 37c-14.667 20 -22.334 37.333 -23.001 52c-0.666992 18.667 6.33301 28 21 28s21.667 -10.667 21 -32c-1.33301 -30.667 7.33398 -56.334 26.001 -77.001c4 -5.33301 5 -8.66602 3 -9.99902z" />
    <glyph glyph-name="a" unicode="a" horiz-adv-x="314" 
d="M384 286c-88.667 -79.333 -156.333 -147 -203 -203c-28 -33.333 -42 -55 -42 -65c0 -4 1.66699 -6.66699 5 -8c12 -6 44.333 11.667 97 53c22 17.333 53.667 44.333 95 81c5.33301 5.33301 9.33301 5.66602 12 0.999023c2 -4 0.333008 -8.33301 -5 -13l-93 -79
c-49.333 -40 -85 -60 -107 -60c-24 0 -36 11 -36 33c0 14.667 6.66699 32 20 52c-67.333 -56.667 -115.333 -85 -144 -85c-22.667 0 -34 11 -34 33c0 40 26 86.667 78 140c34 34.667 74.167 65 120.5 91s83.833 39 112.5 39c21.333 0 32 -7.33301 32 -22
c0 -14 -10.333 -31 -31 -51c42 34.667 70 54.334 84 59.001c11.333 4 24.333 5.33301 39 4zM266.001 281c-32 0 -96.3311 -46.334 -192.998 -139.001c-61.333 -58.667 -92 -100 -92 -124c0 -4.66699 2 -8 6 -10c9.33301 -4 33.166 7.83301 71.499 35.5
s78.166 62.5 119.499 104.5c66.667 68.667 100 109.334 100 122.001c0 7.33301 -4 11 -12 11z" />
    <glyph glyph-name="b" unicode="b" horiz-adv-x="300" 
d="M745 520c3.33301 -9.33301 0.667969 -15 -7.99902 -17c-2 -0.666992 -7.33301 3.33301 -16 12c-28 28 -64 42 -108 42c-63.333 0 -136 -31 -218 -93c-79.333 -60 -176 -152 -290 -276c93.333 70.667 159.333 106 198 106c19.333 0 29 -9.33301 29 -28
c0 -34 -30 -80.333 -90 -139c-91.333 -89.333 -173 -134 -245 -134c-33.333 0 -50 13 -50 39c0 37.333 41 98.666 123 183.999c106 110.667 202.667 196.334 290 257.001c37.333 26 79.333 48.667 126 68c52 21.333 96 32 132 32c33.333 0 61.666 -4.83301 84.999 -14.5
s37.333 -22.5 42 -38.5zM294.002 278c-32.667 0 -100.666 -39.333 -203.999 -118c-34 -26 -61.833 -53 -83.5 -81s-30.5 -48.333 -26.5 -61c2.66699 -8 9 -12 19 -12c19.333 0 44.666 11.667 75.999 35c21.333 16.667 58.333 49.334 111 98.001l71 66
c32.667 31.333 49 52.666 49 63.999c0 6 -4 9 -12 9z" />
    <glyph glyph-name="c" unicode="c" horiz-adv-x="224" 
d="M259 234c-9.33301 -20 -22.666 -37.0029 -39.999 -51.0029c-11.333 -9.33301 -21 -14 -29 -14c-8.66699 0 -13 4 -13 12c0 10 11.333 22 34 36c29.333 18 44 35 44 51c0 8.66699 -3.66699 13 -11 13c-22 0 -75.333 -40.333 -160 -121
c-63.333 -60.667 -95 -105.667 -95 -135c0 -12.667 7.33301 -19 22 -19c24 0 56.333 13.667 97 41c30.667 20.667 70.667 52.667 120 96c4.66699 4.66699 8.66699 5.33398 12 2.00098c4 -2.66699 3.33301 -6 -2 -10c-28 -28 -63 -57.333 -105 -88
c-45.333 -32.667 -85.333 -51 -120 -55c-19.333 -2 -34.333 1.5 -45 10.5s-16 21.5 -16 37.5c0.666992 43.333 29 91 85 143c33.333 30.667 69.666 56.834 108.999 78.501s70.333 32.5 93 32.5c19.333 0 29 -8.66699 29 -26c0 -9.33301 -3 -20.666 -9 -33.999z" />
    <glyph glyph-name="d" unicode="d" horiz-adv-x="314" 
d="M926 524c4.66699 -10.667 2.33691 -17.6689 -6.99609 -21.002c-0.666992 0 -6 4 -16 12c-26.667 28 -61.334 42 -104.001 42c-58 0 -123.333 -27 -196 -81c-69.333 -51.333 -142.333 -113.333 -219 -186c-96 -91.333 -163.667 -160.333 -203 -207
c-28 -33.333 -42 -55 -42 -65c0 -4 1.66699 -6.66699 5 -8c12.667 -5.33301 45 12.334 97 53.001c19.333 15.333 50.666 42 93.999 80c5.33301 4.66699 9.66602 5.33398 12.999 2.00098c3.33301 -4 1.66602 -8.33301 -5.00098 -13c-28.667 -26 -59.667 -52.333 -93 -79
c-50 -40 -85.667 -60 -107 -60c-24 0 -36 11 -36 33c0 14.667 6.66699 32 20 52c-67.333 -56.667 -115.333 -85 -144 -85c-22.667 0 -34 11 -34 33c0 40 26 86.667 78 140c34 34.667 74.667 64.667 122 90s85 38 113 38c20 0 30 -7 30 -21c0 -9.33301 -4 -19.333 -12 -30
c84 88 173.333 165 268 231s182 99 262 99c63.333 0 102 -16.333 116 -49zM265.003 280.998c-31.333 0 -95.3311 -46.333 -191.998 -139c-61.333 -58.667 -92 -99.667 -92 -123c0 -5.33301 2 -9 6 -11c9.33301 -4 33.166 7.83301 71.499 35.5s78.166 62.5 119.499 104.5
c66.667 68 100 109 100 123c0 6.66699 -4.33301 10 -13 10z" />
    <glyph glyph-name="e" unicode="e" horiz-adv-x="208" 
d="M272 271c0 -20 -17.3311 -42.334 -51.998 -67.001c-13.333 -9.33301 -31.5 -18 -54.5 -26s-41.5 -12 -55.5 -12c-7.33301 0 -12.666 1 -15.999 3c-70 -66 -105 -114.333 -105 -145c0 -12 7.33301 -18 22 -18c22 0 51 11.333 87 34
c39.333 24.667 81.666 58.334 126.999 101.001c6.66699 6 11.334 7.33301 14.001 4s1 -8 -5 -14c-38.667 -35.333 -77 -66.333 -115 -93c-48.667 -34 -89.334 -49.333 -122.001 -46s-47.667 21.333 -45 54c4 40.667 30 84 78 130c33.333 32 71.166 60 113.499 84
s75.166 36 98.499 36c20 0 30 -8.33301 30 -25zM253.002 282.999c-6 4.66699 -27 -6.00098 -63 -32.001c-33.333 -24.667 -63.333 -50 -90 -76c2 -0.666992 4.66699 -1 8 -1c27.333 0 61 15.667 101 47c30.667 24.667 46 43.334 46 56.001c0 2.66699 -0.666992 4.66699 -2 6
z" />
    <glyph glyph-name="f" unicode="f" horiz-adv-x="171" 
d="M755 522c3.33301 -10 0.668945 -16.3301 -7.99805 -18.9971c-1.33301 -0.666992 -8 4.66602 -20 15.999c-27.333 25.333 -62 38 -104 38c-44 0 -85.333 -9.66699 -124 -29c-30 -15.333 -67.667 -41.666 -113 -78.999c-49.333 -40.667 -110.333 -101 -183 -181
c50.667 0 77.334 -0.166992 80.001 -0.5s2.66699 -2.5 0 -6.5c0 -3.33301 -3.33301 -5 -10 -5c-34 0 -61.667 -1 -83 -3l-216 -238c-90.667 -96.667 -174 -168 -250 -214c-96 -58.667 -195 -88 -297 -88c-54.667 0 -98.334 11.667 -131.001 35
c-34.667 24.667 -50 58 -46 100c2.66699 30 12.334 55 29.001 75c11.333 14 20.666 21 27.999 21c2 0 3.66699 -0.666992 5 -2c1.33301 -2 0 -5.33301 -4 -10c-8 -8.66699 -13 -14.334 -15 -17.001c-15.333 -20.667 -23.666 -43.334 -24.999 -68.001
c-2.66699 -38.667 13 -68.667 47 -90c29.333 -18.667 66.666 -28 111.999 -28c88.667 0 178.667 31 270 93c62.667 42 135.667 107.333 219 196c34 38.667 106.667 117 218 235c-13.333 0 -34 -1.33301 -62 -4c-4 -0.666992 -6.5 -0.5 -7.5 0.5s-1.16699 2.5 -0.5 4.5
s3.66699 3.66699 9 5s29.666 3.66602 72.999 6.99902c33.333 36 63 66.333 89 91c48.667 47.333 92 85 130 113c93.333 68.667 181.666 103 264.999 103c72 0 113.667 -17 125 -51z" />
    <glyph glyph-name="g" unicode="g" horiz-adv-x="294" 
d="M367 285c-3.33301 -3.33301 -53.665 -61.002 -150.998 -173.002c-40.667 -46.667 -73.667 -83 -99 -109c-56.667 -60.667 -107.667 -108.334 -153 -143.001c-133.333 -103.333 -257.333 -152.333 -372 -147c-39.333 2 -70.5 11.5 -93.5 28.5s-34.5 40.5 -34.5 70.5
c0 10 1.33301 20.333 4 31c7.33301 30 25.666 58 54.999 84c10 8.66699 18.333 13 25 13c2 0 3.66699 -0.666992 5 -2s-4.33398 -7.66602 -17.001 -18.999c-26 -23.333 -42.333 -48.666 -49 -75.999c-2.66699 -10 -4 -19.333 -4 -28c0 -54 34.667 -82.667 104 -86
c94 -4.66699 204.333 43 331 143c63.333 50 147 132 251 246l-2 2c-90.667 -84.667 -152.334 -127 -185.001 -127c-23.333 0 -35 11.333 -35 34c0 40.667 25.333 87 76 139c34 34.667 75 64.834 123 90.501s86.333 38.5 115 38.5c8.66699 0 15.834 -1.5 21.501 -4.5
s8.5 -8.83301 8.5 -17.5c0 -14 -9.33301 -31.333 -28 -52l3 -2c32 32 52 50.667 60 56c12 8 25.667 11.333 41 10zM262.001 280.998c-31.333 0 -95.667 -46.333 -193 -139c-62 -59.333 -93 -100.333 -93 -123c0 -5.33301 2.33301 -9 7 -11c10 -4 34.167 7.83301 72.5 35.5
s77.833 62.5 118.5 104.5c67.333 69.333 101 110.333 101 123c0 6.66699 -4.33301 10 -13 10z" />
    <glyph glyph-name="h" unicode="h" horiz-adv-x="338" 
d="M743 526c6 -11.333 4.33398 -18.998 -4.99902 -22.998c-2.66699 -0.666992 -9.33398 4.33301 -20.001 15c-27.333 26 -61.666 39 -102.999 39c-64.667 0 -136.667 -29.667 -216 -89c-70.667 -52.667 -165.334 -144.334 -284.001 -275.001
c27.333 21.333 61.333 42.666 102 63.999c48 24.667 83.333 37 106 37s34 -9 34 -27c0 -24 -31 -64.333 -93 -121c-38 -34.667 -64.667 -60.667 -80 -78c-24 -27.333 -36 -45 -36 -53c0 -6 3.66699 -9 11 -9c16.667 0 45 14.333 85 43c24 17.333 57.333 44.333 100 81
c6 5.33301 10.333 6.33301 13 3c2.66699 -4.66699 1.33398 -9.33398 -3.99902 -14.001c-42 -37.333 -77.333 -66 -106 -86c-46.667 -32.667 -82.667 -46.334 -108 -41.001c-16 3.33301 -24 15.333 -24 36c0 16.667 6.66699 34.667 20 54c16 22.667 44.667 53 86 91l62 54
c26.667 24 40 39.667 40 47c0 2 -1 3.33301 -3 4c-11.333 4.66699 -42.833 -6.5 -94.5 -33.5s-93.167 -53.833 -124.5 -80.5c-50.667 -42.667 -101 -101.667 -151 -177c-6 0 -10 5 -12 15c-2 9.33301 -1.33301 17.333 2 24c25.333 52.667 67 111.334 125 176.001
c106 118 207 210.333 303 277c35.333 24.667 76.666 46.334 123.999 65.001c50.667 19.333 93 29 127 29c66.667 0 108 -15.667 124 -47z" />
    <glyph glyph-name="i" unicode="i" horiz-adv-x="170" 
d="M308 373c0 -18.667 -9.33301 -28 -28 -28s-28 9.33301 -28 28s9.33301 28 28 28s28 -9.33301 28 -28zM231 290c-92.667 -83.333 -162 -152.332 -208 -206.999c-26.667 -32 -40 -54 -40 -66c0 -6.66699 3.66699 -10 11 -10c18 0 48 15.667 90 47
c36.667 27.333 71.667 56 105 86c6.66699 4.66699 11.334 5.66699 14.001 3c3.33301 -3.33301 2 -7 -4 -11c-26.667 -26.667 -62 -56.334 -106 -89.001c-46 -34 -81.667 -51 -107 -51s-38 10.333 -38 31c0 32 24.667 73.667 74 125c64 67.333 115.333 111.333 154 132
c15.333 8 33.666 11.333 54.999 10z" />
    <glyph glyph-name="j" unicode="j" horiz-adv-x="143" 
d="M302 373c0 -7.33301 -3 -13.833 -9 -19.5s-12.667 -8.5 -20 -8.5c-18.667 0 -28 9.33301 -28 28s9.33301 28 28 28c7.33301 0 14 -2.83301 20 -8.5s9 -12.167 9 -19.5zM231 290c-44 -36 -116.665 -108.666 -217.998 -217.999c-82.667 -89.333 -153 -157.333 -211 -204
c-128.667 -103.333 -252.334 -155 -371.001 -155c-40.667 0 -73.5 8.66699 -98.5 26s-37.5 41.666 -37.5 72.999c0 48.667 22.333 89.334 67 122.001c11.333 6.66699 18.333 8 21 4c2 -2.66699 -2 -8 -12 -16c-38.667 -32.667 -58 -69.334 -58 -110.001
c0 -25.333 11 -45.5 33 -60.5s49.667 -22.5 83 -22.5c100 0 213.667 54 341 162c51.333 43.333 135.666 127.666 252.999 252.999c54.667 58.667 100 101.334 136 128.001c18.667 14 42.667 20 72 18z" />
    <glyph glyph-name="k" unicode="k" horiz-adv-x="303" 
d="M745 518c1.33301 -7.33301 -1.33008 -12.3359 -7.99707 -15.0029c-3.33301 0 -7.33301 2.66699 -12 8c-26.667 30.667 -63.334 46 -110.001 46c-62.667 0 -133.334 -28.667 -212.001 -86c-37.333 -27.333 -87.333 -71.666 -150 -132.999
c-70 -69.333 -135.333 -140 -196 -212c21.333 18 61.666 48.667 120.999 92c81.333 56 140 82 176 78c23.333 -2.66699 32.666 -14.334 27.999 -35.001c-2 -9.33301 -7 -15.333 -15 -18c-2 0 -8.33301 4.66699 -19 14c-6.66699 5.33301 -15 8.33301 -25 9
c-34.667 1.33301 -71.667 -13 -111 -43c-20 -23.333 -38.333 -59.666 -55 -108.999c-10.667 -32.667 -16 -56.667 -16 -72c0 -13.333 5.33301 -20 16 -20c10 0 34.333 14 73 42l95 81c4 4 7.66699 4.33301 11 1s2.33301 -7.66602 -3 -12.999
c-34.667 -31.333 -67.334 -58.666 -98.001 -81.999c-56 -42.667 -94.667 -62.334 -116 -59.001c-16 2.66699 -24 14.667 -24 36c0 13.333 3.33301 32 10 56c10.667 37.333 25.334 70.333 44.001 99c-10.667 -7.33301 -27 -19.333 -49 -36
c-37.333 -29.333 -64.666 -52.666 -81.999 -69.999c-31.333 -37.333 -54 -67.333 -68 -90c-9.33301 0 -14 8.66699 -14 26c0 4.66699 0.666992 9 2 13c16.667 43.333 59 102 127 176c103.333 112.667 198 200.667 284 264c96.667 71.333 189.667 107 279 107
c25.333 0 49 -4.33301 71 -13c26.667 -10 42 -24 46 -42z" />
    <glyph glyph-name="l" unicode="l" horiz-adv-x="167" 
d="M762 519c1.33301 -9.33301 -1.66699 -14.6699 -9 -16.0029c-2 -0.666992 -6.33301 2.66602 -13 9.99902c-26.667 29.333 -63.667 44 -111 44c-61.333 0 -128.666 -27.333 -201.999 -82c-82 -61.333 -182 -152.666 -300 -273.999
c-94.667 -97.333 -142 -157.666 -142 -180.999c0 -6.66699 4.33301 -10 13 -10c12.667 0 37.667 13 75 39c23.333 16 60.666 46.333 111.999 91c6 5.33301 10.333 6.33301 13 3c3.33301 -2.66699 2.33301 -6.33398 -3 -11.001c-34.667 -33.333 -74 -65.666 -118 -96.999
c-41.333 -29.333 -72.666 -44 -93.999 -44c-22 0 -33 11 -33 33c0 16 7 35.333 21 58c25.333 42 68.666 93.667 129.999 155c94 94.667 188 174.334 282 239.001c37.333 26 78.333 48 123 66c50 20 93.333 30.333 130 31c27.333 0.666992 52 -2.66602 74 -9.99902
c28.667 -9.33301 46 -24 52 -44z" />
    <glyph glyph-name="m" unicode="m" horiz-adv-x="499" 
d="M524 138c2.66699 -2.66699 0.329102 -7.66797 -7.00391 -15.001c-37.333 -34.667 -74.333 -64.667 -111 -90c-46.667 -32.667 -82 -46.334 -106 -41.001c-16 4 -24 16 -24 36c0 16.667 6.66699 34.667 20 54c16 22.667 44.667 53 86 91l62 54
c26 23.333 39 38.666 39 45.999c0 4 -2 6 -6 6c-14 0 -45 -14.333 -93 -43c-50 -29.333 -92 -59 -126 -89c-38.667 -34 -87.667 -87.333 -147 -160c-5.33301 0 -8.66602 5.33301 -9.99902 16c-1.33301 9.33301 -0.666016 17 2.00098 23c18.667 36.667 56.667 85.667 114 147
c4 4.66699 24.333 23 61 55c27.333 24 41 39.333 41 46c0 2 -1 3.33301 -3 4c-11.333 4.66699 -45.833 -10.666 -103.5 -45.999s-104.167 -69.666 -139.5 -102.999c-40 -38 -82.333 -85.333 -127 -142c-5.33301 0 -9 5 -11 15c-1.33301 9.33301 -0.666016 17.333 2.00098 24
c24 45.333 67 101 129 167c32.667 34.667 63.667 61.667 93 81c16 10.667 39 16 69 16c-43.333 -28.667 -90.666 -72.667 -141.999 -132c120.667 97.333 202 142.333 244 135c13.333 -2.66699 20 -11 20 -25c0 -16 -7 -33 -21 -51c77.333 52 129.333 78 156 78
c8.66699 0 16.167 -3 22.5 -9s9.5 -13 9.5 -21c0 -24 -30.667 -63.667 -92 -119c-28.667 -26 -55.167 -51.833 -79.5 -77.5s-36.5 -43.167 -36.5 -52.5c0 -6.66699 3.66699 -10 11 -10c16.667 0 44.334 14 83.001 42s73.667 56.333 105 85
c7.33301 6.66699 12.666 8.33398 15.999 5.00098z" />
    <glyph glyph-name="n" unicode="n" horiz-adv-x="334" 
d="M359 138c3.33301 -3.33301 1.33105 -8.33398 -6.00195 -15.001c-48 -41.333 -85.333 -71.333 -112 -90c-46.667 -32.667 -82 -46.334 -106 -41.001c-16 4 -24 16 -24 36c0 16.667 6.66699 34.667 20 54c16 22.667 44.667 53 86 91l62 54c26.667 24 40 39.667 40 47
c0 2 -1 3.33301 -3 4c-11.333 4.66699 -46.166 -10.833 -104.499 -46.5s-104.5 -69.834 -138.5 -102.501c-38.667 -36.667 -81 -84 -127 -142c-6 0 -9.66699 5 -11 15c-2 9.33301 -1.33301 17.333 2 24c24 46 67 101.667 129 167c35.333 36.667 66 63.667 92 81
c16 10.667 39 16 69 16c-41.333 -28.667 -87.666 -72 -138.999 -130c36 29.333 75.333 57.333 118 84c54.667 33.333 93 50 115 50c21.333 0 32 -9 32 -27c0 -25.333 -31 -65.666 -93 -120.999c-24 -21.333 -50.667 -47.333 -80 -78c-24 -25.333 -36 -42.666 -36 -51.999
c0 -6.66699 3.33301 -10 10 -10c18 0 46 13.667 84 41l109 89c5.33301 4.66699 9.33301 5.33398 12 2.00098z" />
    <glyph glyph-name="o" unicode="o" horiz-adv-x="250" 
d="M285 267c0 -34.667 -30 -82.667 -90 -144c-86.667 -87.333 -152 -131 -196 -131c-28.667 0 -43 15.333 -43 46c0 42 26 89.333 78 142c33.333 34 71 62 113 84c40 21.333 73.667 32 101 32c24.667 0 37 -9.66699 37 -29zM257 282c-34 0 -96 -46.668 -186 -140.001
c-57.333 -59.333 -86 -99.666 -86 -120.999c0 -10.667 5.33301 -16 16 -16c28 0 89 47.667 183 143c57.333 58.667 86 99.667 86 123c0 7.33301 -4.33301 11 -13 11z" />
    <glyph glyph-name="p" unicode="p" horiz-adv-x="305" 
d="M335 367c0 -0.666992 -5.00098 -1.99707 -15.001 -3.99707c-20 -2 -41.667 -12.333 -65 -31c-52 -42 -106.333 -97 -163 -165c28.667 26 62 52 100 78c49.333 33.333 84.333 50 105 50c16 0 24 -10 24 -30c0 -18.667 -7.16699 -41.5 -21.5 -68.5
s-32.166 -50.833 -53.499 -71.5c-91.333 -89.333 -168 -133.333 -230 -132c-10.667 0 -20 3.33301 -28 10c-4.66699 4 -7.33398 9 -8.00098 15s0.666016 9.33301 3.99902 10c4 0.666992 6.66699 -2 8 -8c4 -8 10.333 -12 19 -12c18 -2 39.333 6.5 64 25.5
s66.667 58.5 126 118.5c62.667 64 94 103 94 117c0 4.66699 -3 7 -9 7c-19.333 0 -58 -21.333 -116 -64c-53.333 -40 -100.666 -80.667 -141.999 -122l-127 -128c-43.333 -42 -81 -75.333 -113 -100c-135.333 -104.667 -258.666 -154.334 -369.999 -149.001
c-82 4 -123 37 -123 99c0 10 1.33301 20.333 4 31c8 34.667 25 63 51 85c10.667 9.33301 18 11.666 22 6.99902c1.33301 -2.66699 -1.33398 -7.33398 -8.00098 -14.001c-34 -34 -51 -70 -51 -108c0 -52.667 33.333 -80.667 100 -84c91.333 -4.66699 201 44.333 329 147
c48 38 158.333 146.667 331 326c63.333 65.333 120.333 114 171 146c26.667 16.667 51.334 25 74.001 25c12 0 17.667 -2 17 -6z" />
    <glyph glyph-name="q" unicode="q" horiz-adv-x="298" 
d="M382 286c-56 -50.667 -124.001 -118.335 -204.001 -203.002l-153 -171c-48 -56 -87.333 -106 -118 -150c-16 -23.333 -27.667 -44.666 -35 -63.999c-12 13.333 -13.667 32.333 -5 57c12 32.667 39 75 81 127c15.333 18.667 74 84 176 196l-1 2
c-70.667 -58 -118 -87 -142 -87c-23.333 0 -35 11 -35 33c0 40 26 86.667 78 140c34 34.667 74.5 64.834 121.5 90.501s84.833 38.5 113.5 38.5c8.66699 0 15.834 -1.5 21.501 -4.5s8.5 -8.83301 8.5 -17.5c0 -14 -9.66699 -30.667 -29 -50l1 -1
c40.667 35.333 68 55.333 82 60c11.333 4 24.333 5.33301 39 4zM332.999 158.999c3.33301 -3.33301 2.00098 -7.33398 -3.99902 -12.001c-40.667 -34.667 -103.667 -91.667 -189 -171c-76.667 -77.333 -141.667 -147.666 -195 -210.999c-29.333 -35.333 -49.333 -63 -60 -83
c-4 2.66699 -5.66699 6 -5 10c4 15.333 27.333 48.333 70 99c59.333 69.333 121.666 136.333 186.999 201c52.667 52 113.667 106.667 183 164c4.66699 4.66699 9 5.66699 13 3zM263 280.998c-31.333 0 -95.667 -46.333 -193 -139c-62 -59.333 -93 -100.333 -93 -123
c0 -5.33301 2.33301 -9 7 -11c10 -4 34.167 7.83301 72.5 35.5s77.833 62.5 118.5 104.5c67.333 69.333 101 110.333 101 123c0 6.66699 -4.33301 10 -13 10z" />
    <glyph glyph-name="r" unicode="r" horiz-adv-x="218" 
d="M320 259c-0.666992 -6 -2.66602 -10.835 -5.99902 -14.502s-6.33301 -5.16699 -9 -4.5c-2 2 -6 4.66699 -12 8c-8.66699 4.66699 -17.334 7.33398 -26.001 8.00098c-38 2 -102.667 -40.333 -194 -127c-38.667 -36.667 -81 -84 -127 -142c-5.33301 0 -9 5.33301 -11 16
c-1.33301 10 -0.666016 17.667 2.00098 23c24.667 47.333 67.667 103 129 167c35.333 36.667 65.666 63.334 90.999 80.001c17.333 11.333 40.666 17 69.999 17c-48.667 -32 -95.667 -74.333 -141 -127l3 -4c106 92.667 175.333 136 208 130
c16.667 -3.33301 24.334 -13.333 23.001 -30z" />
    <glyph glyph-name="s" unicode="s" horiz-adv-x="214" 
d="M298 364c0 -14 -16.999 -33.0049 -50.999 -57.0049c-18 -11.333 -40.667 -27.666 -68 -48.999c-8 -8.66699 -14.333 -25.667 -19 -51c-9.33301 -47.333 -16 -76.333 -20 -87c-15.333 -39.333 -42 -71.666 -80 -96.999c56.667 26 115 66 175 120
c3.33301 3.33301 6.66602 3.33301 9.99902 0c4.66699 -3.33301 3.66699 -7.33301 -3 -12c-56 -51.333 -114.333 -90.666 -175 -117.999c-35.333 -16 -70 -23 -104 -21c-32 2 -47.667 14.667 -47 38c0.666992 18 12.667 37.333 36 58l43 36c22 19.333 37.667 29 47 29
c61.333 52.667 101 89.334 119 110.001c27.333 32.667 49.333 56.334 66 71.001c28.667 25.333 48.667 38 60 38c7.33301 0 11 -2.66699 11 -8zM155.001 240.995c-22.667 -25.333 -58.332 -58 -106.999 -98c-3.33301 -9.33301 -18.333 -23 -45 -41l-50 -34
c-15.333 -11.333 -23.333 -23 -24 -35c-1.33301 -13.333 7 -20 25 -20c35.333 0 72.666 21.667 111.999 65c17.333 19.333 35 45.5 53 78.5s30 61.167 36 84.5z" />
    <glyph glyph-name="t" unicode="t" horiz-adv-x="186" 
d="M538 492c-1.33301 -0.666992 -3.00391 -0.331055 -5.00391 1.00195c-4 2.66699 -11 4 -21 4c-27.333 0 -55.666 -9.66699 -84.999 -29c-58.667 -38.667 -133.334 -105.334 -224.001 -200.001c44 0 69.5 -0.166992 76.5 -0.5s8.83301 -3.5 5.5 -9.5
c-1.33301 -2.66699 -5 -4 -11 -4c-32.667 1.33301 -61.334 1 -86.001 -1l-54 -55c-93.333 -96 -140 -155.333 -140 -178c0 -9.33301 5.33301 -14 16 -14c18.667 0 47.334 14.667 86.001 44c36.667 28 72.334 58.333 107.001 91c6.66699 4.66699 11.334 5.66699 14.001 3
c2 -2.66699 -0.333008 -8 -7 -16c-37.333 -34.667 -74.333 -65.667 -111 -93c-40.667 -30.667 -72.667 -46 -96 -46c-28 0 -42 13.667 -42 41c0 26.667 23 66.667 69 120c14.667 17.333 47.334 51.666 98.001 102.999c6.66699 0 -12.666 -1.33301 -57.999 -4
c-8 -0.666992 -12 1 -12 5c0.666992 3.33301 5 5.66602 13 6.99902c16 1.33301 39.667 3 71 5c75.333 76.667 149 139.334 221 188.001c56 38 105.333 57 148 57c19.333 0 29 -5 29 -15c0 -2 -0.666992 -3.33301 -2 -4z" />
    <glyph glyph-name="u" unicode="u" horiz-adv-x="313" 
d="M384 292c-86 -79.333 -153.332 -148.668 -201.999 -208.001c-29.333 -36 -44 -58.333 -44 -67c0 -3.33301 1.66699 -5.66602 5 -6.99902c12.667 -6 43.334 10.333 92.001 49c1.33301 1.33301 33.666 29 96.999 83c6 4 10.333 4.66699 13 2
c3.33301 -3.33301 2.33301 -7 -3 -11c-23.333 -22.667 -55.333 -50 -96 -82c-50 -39.333 -84.667 -58.666 -104 -57.999c-24 1.33301 -36 12.333 -36 33c0 15.333 6.33301 33.666 19 54.999c-8.66699 -8.66699 -20.334 -18.667 -35.001 -30c-50 -38.667 -86 -58 -108 -58
c-22.667 0 -34 9.66699 -34 29c0 33.333 25 76.333 75 129s100.667 93.667 152 123c17.333 10 38 14 62 12c-95.333 -78 -166 -145.333 -212 -202c-28.667 -35.333 -43 -57.333 -43 -66c0 -4 1.66699 -6.66699 5 -8c14 -6.66699 46 10 96 50c23.333 18.667 55 48.667 95 90
c63.333 66 114 110 152 132c14 8.66699 32 12 54 10z" />
    <glyph glyph-name="v" unicode="v" horiz-adv-x="287" 
d="M263 173c-50.667 -46.667 -104.669 -91 -162.002 -133c-42.667 -31.333 -78.334 -47 -107.001 -47c-26.667 0 -40 11.667 -40 35c0 33.333 23 73.666 69 120.999c54.667 56.667 117.334 98 188.001 124c-38.667 0 -74 -5.66699 -106 -17c-8 -2.66699 -15.667 -7 -23 -13
s-11.333 -9 -12 -9c-2.66699 0 -4 2.66699 -4 8c0 14 10.667 24.667 32 32c24 8 55.667 12 95 12c17.333 0 34 -1 50 -3c4 0 6.66699 -1 8 -3c0.666992 -1.33301 -1.66602 -3.66602 -6.99902 -6.99902c-37.333 -24.667 -79.333 -58 -126 -100
c-41.333 -37.333 -71.333 -67.333 -90 -90c-26.667 -32.667 -40 -54 -40 -64c0 -6.66699 4 -10 12 -10c21.333 0 52 14.667 92 44c64 48 122 102 174 162c15.333 18 23 33.333 23 46s2.33301 21.667 7 27s19 8 43 8c11.333 0 17 -3.33301 17 -10
c0 -9.33301 -7.66699 -22.5 -23 -39.5s-38.666 -41.5 -69.999 -73.5z" />
    <glyph glyph-name="w" unicode="w" horiz-adv-x="446" 
d="M498 280c-3.33301 -10.667 -10.334 -22.666 -21.001 -35.999c-15.333 -18.667 -34.333 -39.667 -57 -63c-54.667 -56.667 -103.667 -101.667 -147 -135c-52.667 -40.667 -91.667 -58.334 -117 -53.001c-21.333 4 -32 17 -32 39c0 18 7.66699 39 23 63
c-10.667 -10.667 -25.667 -24.667 -45 -42c-48 -40 -84.667 -60 -110 -60s-38 11 -38 33c0 32 22.667 72.667 68 122c19.333 21.333 46.666 43.666 81.999 66.999c38.667 26.667 74.667 46 108 58c-40 0 -75.667 -5.66699 -107 -17c-8 -2.66699 -15.5 -7 -22.5 -13
s-10.833 -9 -11.5 -9c-3.33301 0 -5 3.33301 -5 10c0 12.667 11.167 22.834 33.5 30.501s57.833 11.5 106.5 11.5c14.667 0 28 -0.666992 40 -2c4.66699 0 7 -1 7 -3l-8 -8c-78 -50.667 -150.333 -114 -217 -190c-26.667 -30.667 -40 -52 -40 -64
c0 -4.66699 1.66699 -7.66699 5 -9c16.667 -7.33301 50.667 11 102 55c44 37.333 82.667 72 116 104c54 52 101.333 85.333 142 100c9.33301 3.33301 15.333 3.33301 18 0c2.66699 -2.66699 1 -6.33398 -5 -11.001c-62 -47.333 -119.667 -105.333 -173 -174
c-22.667 -29.333 -34 -50.333 -34 -63c0 -8.66699 4.33301 -13 13 -13c20.667 0 51.334 16.667 92.001 50c58 46.667 110 101.334 156 164.001c9.33301 12.667 14 24 14 34c0 3.33301 -0.666992 7 -2 11s-2 6.66699 -2 8c0 2 0.666992 3.66699 2 5
c8.66699 10.667 25.334 16 50.001 16c14 0 19.333 -5.33301 16 -16z" />
    <glyph glyph-name="x" unicode="x" horiz-adv-x="302" 
d="M397 273c1.33301 -6 0.00195312 -10 -3.99805 -12c-10.667 3.33301 -21.334 5 -32.001 5c-19.333 0 -63 -29.667 -131 -89c-34 -30 -61.333 -61.667 -82 -95c-15.333 -25.333 -23 -43.666 -23 -54.999c0 -7.33301 2.66699 -11.666 8 -12.999c15.333 -4.66699 41 7 77 35
c44 34 81.667 65.333 113 94c6.66699 6 11 7.33301 13 4c2.66699 -4.66699 1 -9.33398 -5 -14.001c-45.333 -41.333 -80.333 -71 -105 -89c-48.667 -35.333 -85.334 -53 -110.001 -53c-24 0 -36 10.333 -36 31c0 22 14 50.667 42 86l-4 3l-39 -38
c-56.667 -54 -98.334 -81 -125.001 -81c-15.333 0 -25.333 6 -30 18c-2.66699 10.667 -1 18.334 5 23.001c2 0.666992 5 -1 9 -5c8 -4 16.333 -6 25 -6c23.333 0 59.333 21 108 63c24.667 21.333 60.334 57.333 107.001 108c28 30.667 42 55 42 73
c0 7.33301 -4.33301 11 -13 11c-14 0 -38 -15.667 -72 -47l-127 -117c-5.33301 -3.33301 -9 -3.33301 -11 0c-2.66699 2.66699 -2 6 2 10l121 112c44 42 79 62 105 60c21.333 -2 32 -11.333 32 -28c0 -23.333 -20.333 -56.333 -61 -99l3 -2l53 48l55 48
c28.667 23.333 50.667 34.666 66 33.999c14.667 -0.666992 22.667 -8.33398 24 -23.001z" />
    <glyph glyph-name="y" unicode="y" horiz-adv-x="298" 
d="M394 291c0 -0.666992 -2.33105 -2.66602 -6.99805 -5.99902c-9.33301 -5.33301 -22.333 -16 -39 -32c-42 -39.333 -100.333 -99.666 -175 -180.999c-54.667 -59.333 -85.334 -92.333 -92.001 -99c-43.333 -44.667 -84.666 -82.334 -123.999 -113.001
c-63.333 -48.667 -127.833 -86 -193.5 -112s-125.5 -37.667 -179.5 -35c-38 2 -68 11.667 -90 29s-33 40.666 -33 69.999c0 10 1.33301 20.333 4 31c8.66699 35.333 26 64 52 86c12 10 20.333 12.667 25 8c1.33301 -2 -2.66699 -7.66699 -12 -17
c-34 -34 -51 -69.667 -51 -107c0 -52.667 33.333 -80.667 100 -84c94 -4.66699 204.667 43 332 143c57.333 45.333 134 119.666 230 222.999c-16 -14.667 -34.667 -30.334 -56 -47.001c-46 -36.667 -80 -55 -102 -55c-23.333 0 -35 10.333 -35 31c0 32.667 24 74 72 124
c53.333 54.667 105.333 96.334 156 125.001c17.333 9.33301 37.666 13.333 60.999 12c-93.333 -75.333 -164.666 -142.666 -213.999 -201.999c-28 -33.333 -42 -55 -42 -65c0 -6 3 -9 9 -9c17.333 0 47 16.667 89 50c47.333 38 96.666 81 147.999 129l56 53
c25.333 22.667 45.666 37.667 60.999 45c10 4.66699 24 7 42 7c5.33301 0 8 -0.666992 8 -2z" />
    <glyph glyph-name="z" unicode="z" horiz-adv-x="238" 
d="M329 287c1.33301 -6 -2.67188 -11.001 -12.0049 -15.001l-34 -13c-16.667 -8.66699 -42.667 -24.667 -78 -48c-63.333 -41.333 -95.333 -62.333 -96 -63c-40.667 -24 -97.667 -59.667 -171 -107c12.667 6.66699 28.334 10 47.001 10c12 0 28 -1.66699 48 -5
s33.333 -5 40 -5c26 0 52 10.333 78 31c6.66699 5.33301 23.334 21.333 50.001 48c4 5.33301 7 6.33301 9 3c2.66699 -2 2 -5.33301 -2 -10c-8.66699 -11.333 -26 -31 -52 -59c-27.333 -25.333 -48.166 -41.666 -62.499 -48.999s-31.166 -10.333 -50.499 -9
c-7.33301 0.666992 -21.666 4.5 -42.999 11.5s-41.333 10.5 -60 10.5c-11.333 0 -22 -1.66699 -32 -5c-4.66699 -4 -10.334 -9.33301 -17.001 -16c-9.33301 -7.33301 -15.333 -9.66602 -18 -6.99902c-0.666992 4.66699 3.5 11 12.5 19s18.167 14.667 27.5 20
c68 58 126.333 102.667 175 134c32 20.667 89.333 51.667 172 93c-14 -5.33301 -30 -8 -48 -8c-8 0 -19 0.833008 -33 2.5s-24.333 2.5 -31 2.5c-29.333 0 -59.333 -17.667 -90 -53c-2.66699 -6 -6 -7 -10 -3c-4 2 -4 5 0 9c25.333 36 49 60.333 71 73
c17.333 10 38 14.667 62 14c8 0 20.167 -3 36.5 -9s28.5 -9.66699 36.5 -11c14.667 -2.66699 27.667 -2 39 2c16 9.33301 26.333 13.666 31 12.999c2.66699 0 4.33398 -0.333008 5.00098 -1z" />
    <glyph glyph-name="braceleft" unicode="{" 
d="M756 633c-2 -4.66699 -8.00293 -6.33301 -18.0029 -5c-9.33301 1.33301 -19 2 -29 2c-66 0 -134 -42 -204 -126c-20 -24 -39.667 -46.333 -59 -67c-58.667 -62.667 -103 -104 -133 -124c-34.667 -22 -78 -36 -130 -42c13.333 -10 20 -24 20 -42
c0 -39.333 -32 -95.666 -96 -168.999l-64 -69c-29.333 -32 -44 -57.667 -44 -77c0 -20.667 19.667 -35.334 59 -44.001c6.66699 -1.33301 9.33398 -3.66602 8.00098 -6.99902c-1.33301 -2 -7.66602 -2.66699 -18.999 -2c-14 0.666992 -28.667 5.66699 -44 15
c-22.667 12.667 -34 29.667 -34 51c0 23.333 14 50.666 42 81.999l89 100c52 58.667 78 101.667 78 129c0 19.333 -13.333 29.333 -40 30c-12 0 -16.667 3.66699 -14 11c2 4.66699 12.333 7 31 7c34 0 63.667 6 89 18c32.667 15.333 68 43.666 106 84.999l88 99
c90.667 106 179.334 159 266.001 159c13.333 0 27 -1.33301 41 -4c9.33301 -1.33301 13 -4.66602 11 -9.99902z" />
    <glyph glyph-name="bar" unicode="|" horiz-adv-x="408" 
d="M222 -236h-35v1000h35v-1000z" />
    <glyph glyph-name="braceright" unicode="}" 
d="M437 492l-82 -91c-52 -58 -78 -100.667 -78 -128c0 -20 13.667 -30 41 -30c12 0 16.333 -4 13 -12c-2 -4.66699 -12.333 -7 -31 -7c-34 0 -63.667 -6 -89 -18c-32.667 -15.333 -68 -43.666 -106 -84.999l-88 -99c-96 -112 -200.333 -167 -313 -165
c-8.66699 0 -12.334 3 -11.001 9c0.666992 2 6.66699 3 18 3c82.667 -0.666992 162.334 45 239.001 137c20 24 39.667 46.333 59 67c58.667 62.667 103 104 133 124c34.667 22 78 36 130 42c-14.667 10 -22 25 -22 45c0 42 32.667 97.333 98 166
c10.667 10.667 29.167 30.5 55.5 59.5s39.5 53.833 39.5 74.5c0 27.333 -20 41.666 -60 42.999c-6.66699 0 -9 2.33301 -7 7c1.33301 2 7 3.33301 17 4c18 0.666992 35.667 -4.33301 53 -15c20 -12.667 30 -29.667 30 -51c0 -23.333 -13 -50 -39 -80z" />
    <glyph glyph-name="asciitilde" unicode="~" horiz-adv-x="565" 
d="M568 338c4.66699 -2.66699 4.33301 -9.00098 -1 -19.001c-25.333 -47.333 -61.666 -71 -108.999 -71c-20 0 -50 6.33301 -90 19s-68.667 19 -86 19c-28 0 -55 -13 -81 -39c-10 -8.66699 -16 -12.667 -18 -12c-3.33301 0.666992 -5 2.33398 -5 5.00098
s1.66699 7.66699 5 15c21.333 46 59 69 113 69c20 0 50.333 -6 91 -18s69.667 -18 87 -18c28.667 0 54.667 13.667 78 41c7.33301 8 12.666 11 15.999 9z" />
    <glyph glyph-name="section" unicode="&#xa7;" horiz-adv-x="402" 
d="M528 488l-25 13.999c-14 6.66699 -30.667 10 -50 10c-39.333 0 -68.333 -13 -87 -39c-14 -19.333 -19.667 -46.333 -17 -81c2.66699 -17.333 5.66699 -42.333 9 -75c4.66699 -64.667 -15.333 -115 -60 -151c-24.667 -20 -56 -32.667 -94 -38
c0 -44.667 -17 -81.334 -51 -110.001c-42 -35.333 -85.333 -51.666 -130 -48.999c-20 1.33301 -36.833 6.5 -50.5 15.5s-19.167 18.5 -16.5 28.5c2.66699 10.667 9.66699 14.334 21 11.001l28 -16c15.333 -8.66699 33 -13 53 -13c36 0 64 12 84 36
c15.333 18.667 21.666 47 18.999 85c-1.33301 16 -4 41 -8 75c-1.33301 9.33301 -2 18 -2 26c0 48.667 18 88.334 54 119.001c28.667 24 62.334 39 101.001 45c-2.66699 36.667 11.333 69.667 42 99c40 38 84 57 132 57c20.667 0 38 -4.33301 52 -13
c11.333 -8 17 -16.333 17 -25c0 -12.667 -7 -16.334 -21 -11.001zM318 260.999c-2.66699 27.333 -6.33301 63.001 -11 107.001c-40.667 -4.66699 -71.667 -19.334 -93 -44.001c-16 -18 -23 -43.333 -21 -76c2 -38 5.33301 -74 10 -108c36 4 65 16.5 87 37.5
s31.333 48.833 28 83.5z" />
    <glyph glyph-name="copyright" unicode="&#xa9;" horiz-adv-x="737" 
d="M619 257c0 -69.333 -23.832 -128.001 -71.499 -176.001s-105.834 -72 -174.501 -72s-127 23.833 -175 71.5s-72 106.5 -72 176.5c0 68.667 23.833 126.834 71.5 174.501s106.167 71.5 175.5 71.5c68 0 126 -24 174 -72s72 -106 72 -174zM593.001 256.999
c0.666992 60 -20.6689 111.833 -64.002 155.5s-95.333 65.5 -156 65.5c-60 0 -111.667 -21.667 -155 -65s-65 -95.333 -65 -156c0 -61.333 21.5 -113.666 64.5 -156.999s94.833 -65 155.5 -65s112.334 21.667 155.001 65s64.334 95.666 65.001 156.999zM489.998 188.999
l-1.99902 -22.001c-1.33301 -14 -6 -28 -14 -42c-30 -11.333 -58 -17 -84 -17c-46 0 -83.333 10.667 -112 32c-33.333 24 -50 60.333 -50 109c0 48 16.333 85.333 49 112c29.333 24 66.666 36 111.999 36c34 0 63 -6 87 -18c6.66699 -7.33301 9.66699 -21.666 9 -42.999
l-1 -31h-12c-6 52 -34.333 78 -85 78c-33.333 0 -59.833 -11.333 -79.5 -34s-29.5 -54 -29.5 -94s10.167 -71.5 30.5 -94.5s46.833 -34.5 79.5 -34.5c50 0 80 21 90 63h12z" />
    <glyph glyph-name="guillemotleft" unicode="&#xab;" horiz-adv-x="297" 
d="M322 269c4.66699 -3.33301 3.00098 -8.66797 -4.99902 -16.001c-46.667 -42 -95 -80.333 -145 -115c4.66699 -31.333 6 -64.666 4 -99.999c-0.666992 -8.66699 -1 -13.667 -1 -15c-1.33301 -5.33301 -4 -8.33301 -8 -9c-6 0 -9 4.66699 -9 14
c-6.66699 46 -16.334 84.333 -29.001 115c56.667 33.333 116 74 178 122c8 4.66699 13 6 15 4zM221.001 277.998c1.33301 -1.33301 2.00293 -3.00098 2.00293 -5.00098c0 -3.33301 -2.66699 -7.66602 -8 -12.999c-46.667 -44.667 -94.334 -82.667 -143.001 -114
c4.66699 -42 6 -75.667 4 -101c-3.33301 -14.667 -7 -22 -11 -22c-2.66699 -0.666992 -5.33398 4 -8.00098 14c-7.33301 48 -17 86.333 -29 115c48.667 26.667 108.667 67 180 121c5.33301 5.33301 9.66602 7 12.999 5z" />
    <glyph glyph-name="paragraph" unicode="&#xb6;" horiz-adv-x="500" 
d="M708 489c-2.66699 -4 -8.33301 -6.00098 -17 -6.00098h-53l-477 -491c-8.66699 -8.66699 -15.667 -13 -21 -13s-8 2.33301 -8 7c0 2.66699 3 7 9 13l470 484h-58l-477 -491c-8.66699 -8 -15 -12 -19 -12c-2 0 -4 0.666992 -6 2c-4 2 -3 7.33301 3 16l255 262
c-28 6 -42 25.667 -42 59c0 30.667 14.333 60.334 43 89.001c59.333 60 138.333 90 237 90h153c8 0 10.667 -3 8 -9z" />
    <glyph glyph-name="guillemotright" unicode="&#xbb;" horiz-adv-x="297" 
d="M249 143c-46.667 -28.667 -101.999 -68.668 -165.999 -120.001c-4.66699 -6 -9 -7.66699 -13 -5c-3.33301 2 -4 5 -2 9s4 6.66699 6 8c43.333 44.667 87.333 82.667 132 114c-9.33301 37.333 -14 71 -14 101c0 14.667 2.33301 22.334 7 23.001c4 0 7.33301 -5 10 -15
c13.333 -46 26.666 -84.333 39.999 -115zM148.001 151.999c-54.667 -35.333 -109.999 -76 -165.999 -122c-6.66699 -4.66699 -11 -6 -13 -4c-4 2 -3 7.66699 3 17c37.333 37.333 81.333 75.666 132 114.999c-7.33301 32.667 -12 66 -14 100
c-0.666992 14.667 2 22.334 8 23.001c3.33301 0 6.66602 -4.66699 9.99902 -14c10.667 -46 24 -84.333 40 -115z" />
    <glyph glyph-name="afii10023" unicode="&#x401;" horiz-adv-x="822" 
d="M1238 564c-4.66699 -12 -19.3291 -17.668 -43.9961 -17.001c-16 0.666992 -30.667 2.66699 -44 6c-85.333 22 -160.333 37.667 -225 47c-67.333 -25.333 -125.333 -57.666 -174 -96.999c41.333 -31.333 61.333 -73.666 60 -126.999c-2.66699 -86.667 -56 -172 -160 -256
c-118.667 -95.333 -235.334 -146 -350.001 -152c-12 -0.666992 -21.333 -0.666992 -28 0c-4.66699 -56 28.666 -84 99.999 -84c16 0 33 1.66699 51 5c86.667 17.333 188 70.333 304 159c13.333 10 39.666 31.667 78.999 65c18 15.333 29 23 33 23
c1.33301 0 2.33301 -0.333008 3 -1c2.66699 -2.66699 -7.33301 -14.334 -30 -35.001c-19.333 -18 -44 -38.667 -74 -62c-122 -95.333 -227 -150.666 -315 -165.999c-20 -3.33301 -39 -5 -57 -5c-86 0 -131.333 35 -136 105c-102 18.667 -153 84.667 -153 198
c0 56 16.167 114.667 48.5 176s73.166 112.666 122.499 153.999c122.667 102.667 264.667 154 426 154c62.667 0 136.334 -8.66699 221.001 -26c49.333 16 102.666 24 159.999 24c32 0 63.667 -2.66699 95 -8c24 -4 44.333 -11.333 61 -22c19.333 -12.667 29 -27 29 -43
c0 -4.66699 -1 -9.66699 -3 -15zM1227 568.999c1.33301 3.33301 2 7 2 11c0 25.333 -25.333 42.666 -76 51.999c-16.667 2.66699 -34 4 -52 4c-42.667 0 -88.667 -7.66699 -138 -23l192 -49c14.667 -3.33301 28 -5.66602 40 -6.99902c17.333 -2 28 2 32 12zM850.005 609.999
c-54 6.66699 -115.333 10 -184 10c-162 0 -298 -45.667 -408 -137c-46.667 -38.667 -85.667 -88.167 -117 -148.5s-47 -115.833 -47 -166.5c0 -102 45.667 -162.333 137 -181c0 5.33301 0.666992 14 2 26c8.66699 56 37.667 112 87 168c38.667 44 82.667 81 132 111
c65.333 40 133 65.667 203 77c-6 28.667 -1.66699 57.334 13 86.001c10.667 21.333 23.334 39.666 38.001 54.999c-22.667 10 -50.667 15 -84 15c-48.667 0 -97 -10.333 -145 -31s-89.333 -49.667 -124 -87c-54 -58 -81.333 -114 -82 -168c0 -14 2.33301 -27.667 7 -41
c1.33301 -2.66699 1 -5 -1 -7c-4 -2.66699 -7 -1 -9 5c-6.66699 10 -10 24 -10 42c0 66 28.333 127.333 85 184c77.333 77.333 172.333 116 285 116c36 0 65.667 -5.33301 89 -16c33.333 34.667 77.666 64 132.999 88zM796.005 372.999c2 52 -17.001 92 -57.001 120
c-14.667 -12.667 -26.667 -26 -36 -40c-23.333 -34 -35 -61.667 -35 -83c12.667 0 24.667 -2 36 -6c22.667 -8 32 -16.333 28 -25c-3.33301 -7.33301 -16.666 -8 -39.999 -2c-12 3.33301 -23.333 9.66602 -34 18.999c-33.333 -4 -71.333 -20 -114 -48
c-60 -39.333 -113.667 -85.666 -161 -138.999c-50 -57.333 -83.667 -112 -101 -164c-2 -5.33301 -4.33301 -13 -7 -23c6 -0.666992 15.667 -0.666992 29 0c48 2 103.333 17.667 166 47c59.333 28.667 116 65 170 109c101.333 82.667 153.333 161 156 235zM1216 703.999
c0 -17.333 -9 -26 -27 -26s-27 8.66699 -27 26c0 7.33301 2.83301 13.666 8.5 18.999s11.834 8 18.501 8c7.33301 0 13.666 -2.66699 18.999 -8s8 -11.666 8 -18.999zM1121 703.999c0 -17.333 -9 -26 -27 -26s-27 8.66699 -27 26c0 7.33301 2.83301 13.666 8.5 18.999
s11.834 8 18.501 8c7.33301 0 13.666 -2.66699 18.999 -8s8 -11.666 8 -18.999z" />
    <glyph glyph-name="afii10017" unicode="&#x410;" horiz-adv-x="1203" 
d="M1890 588c2 -4.66699 2.66797 -9.33398 2.00098 -14.001c-0.666992 -5.33301 -3 -7.33301 -7 -6c-2 0.666992 -8.33301 8.33398 -19 23.001c-16 22.667 -42 37.667 -78 45c-18 4 -39 4.66699 -63 2c-40 -4.66699 -95 -31.667 -165 -81
c-102 -72 -204.333 -163.333 -307 -274c-72 -77.333 -132.333 -152.333 -181 -225l-36 -57c-14 -19.333 -24.667 -28 -32 -26s-11 8 -11 18s3.33301 23 10 39c0 54.667 -11.667 107.334 -35 158.001c-250 -223.333 -460.667 -335 -632 -335c-54 0 -98.333 11.667 -133 35
c-38.667 25.333 -60.667 62.333 -66 111c-51.333 30 -77 77.333 -77 142c0 14.667 1.33301 30.334 4 47.001c12.667 73.333 52.667 138.666 120 195.999c74 64 163.333 99.667 268 107c123.333 78 249.333 117 378 117c48 0 86.333 -9.66699 115 -29
c33.333 -22 49.333 -55.667 48 -101c-2 -54 -28 -113 -78 -177c10.667 -12.667 24.667 -32.334 42 -59.001l48 44c65.333 60.667 139.333 118.667 222 174c101.333 68.667 194.166 117.5 278.499 146.5s160.833 43.5 229.5 43.5c31.333 0 61.333 -5 90 -15
c35.333 -12 57 -28.333 65 -49zM1683 639c-44.667 -5.33301 -94.333 -18.667 -149 -40c-156.667 -60.667 -311.667 -165.667 -465 -315l-89 -84c22.667 -48 34 -95.333 34 -142c16.667 30 47.167 72.167 91.5 126.5s89.833 103.833 136.5 148.5
c178 172.667 325 274.667 441 306zM978.002 478.999c2.66699 78 -46.667 117 -148 117c-96.667 0 -202 -34 -316 -102c128 -8.66699 238 -49 330 -121c17.333 -13.333 35.333 -30 54 -50c52 60.667 78.667 112.667 80 156zM888.001 312.999
c-19.333 20.667 -39.332 38.668 -59.999 54.001c-44.667 34 -101 61.667 -169 83c-62 19.333 -117.667 29.333 -167 30c-36 -22 -67.333 -44.667 -94 -68c-71.333 -62 -128.833 -125.167 -172.5 -189.5s-67.834 -122.5 -72.501 -174.5
c0 -24.667 8.83301 -41.834 26.5 -51.501s51.5 -14.5 101.5 -14.5c109.333 0 238.333 48.667 387 146c88 57.333 161.333 119 220 185zM946.002 234c-12 20.667 -25.334 40 -40.001 58c-54.667 -65.333 -127.334 -128.333 -218.001 -189
c-135.333 -90.667 -270.666 -136 -405.999 -136c-50.667 0 -93 8.33301 -127 25c14.667 -78.667 73.334 -118 176.001 -118c14 0 28.333 1 43 3c132 15.333 322.667 134.333 572 357zM423.001 475c-92.667 -13.333 -171.333 -49 -236 -107
c-60.667 -54 -96.667 -114.667 -108 -182c-2.66699 -14.667 -4 -28.667 -4 -42c0 -54.667 20.333 -95.667 61 -123c-0.666992 6 -0.333984 16 0.999023 30c12.667 134 88.334 260.333 227.001 379c16 13.333 35.667 28.333 59 45z" />
    <glyph glyph-name="afii10018" unicode="&#x411;" horiz-adv-x="1031" 
d="M35 94c-15.333 20.667 -23.002 51.001 -23.002 91.001c0 81.333 32.333 157.666 97 228.999c57.333 62.667 127.333 109.667 210 141c132.667 56 319 76.667 559 62l199 -25c34.667 26 66 43 94 51c14.667 4 22 4 22 0
c0.666992 -3.33301 -4.66602 -6.66602 -15.999 -9.99902c-22.667 -6.66699 -47 -21.667 -73 -45c75.333 -8.66699 145 -14 209 -16c92.667 -2.66699 166.667 4 222 20c68.667 20 101 53 97 99c-2.66699 30 -20.667 43.667 -54 41c-3.33301 0 -7.66602 -0.666992 -12.999 -2
c-2 -0.666992 -3 -0.333984 -3 0.999023c0 5.33301 4.66699 9 14 11c5.33301 1.33301 11 2 17 2c40 0 61.667 -17.333 65 -52c4 -46 -32.333 -82 -109 -108c-66 -22 -144.667 -32.333 -236 -31c-62.667 1.33301 -140 6.33301 -232 15
c-36.667 -30.667 -80.667 -75.334 -132 -134.001c-43.333 -47.333 -84 -94 -122 -140c-117.333 -132.667 -227.333 -232 -330 -298c52.667 -8 103 -11.667 151 -11c52 0.666992 100.667 11 146 31c50.667 22 88.667 52.667 114 92c18.667 29.333 28 60 28 92
c0 48.667 -19.333 81 -58 97c-9.33301 -1.33301 -17.333 -0.666016 -24 2.00098c-8.66699 4.66699 -10.667 10.334 -6 17.001c3.33301 5.33301 10 7 20 5c6.66699 -2.66699 15 -7.33398 25 -14.001c56 -28.667 84 -72.334 84 -131.001c0 -28.667 -8 -56 -24 -82
c-25.333 -42.667 -70.333 -74.667 -135 -96c-51.333 -17.333 -109.333 -26.333 -174 -27c-52.667 -0.666992 -107.334 4 -164.001 14c-42 -26.667 -84.667 -48 -128 -64c-59.333 -20.667 -114.333 -31 -165 -31c-39.333 0 -72.666 10.667 -99.999 32
c-36 28.667 -54 72.334 -54 131.001c0 17.333 0.666992 31 2 41zM39.998 116.001c12 77.333 58.333 161.335 139 252.002c48 54 110.167 100.333 186.5 139s152.166 56 227.499 52c37.333 -2.66699 65 -19.334 83 -50.001c18 -22.667 27 -49.334 27 -80.001
c0 -83.333 -41.333 -164.666 -124 -243.999c-80 -77.333 -161 -129.666 -243 -156.999c6.66699 -0.666992 20 -3.66699 40 -9c22.667 -6 46.667 -11 72 -15c78 56 181.667 154 311 294c142.667 143.333 239.334 233.666 290.001 270.999
c-50.667 6.66699 -108 12.667 -172 18c-244 15.333 -426.667 -1.33398 -548 -50.001c-75.333 -29.333 -140.333 -71.333 -195 -126c-63.333 -62 -98.333 -128 -105 -198c-0.666992 -10 -1 -19.333 -1 -28c0 -36 4 -59 12 -69zM58.998 90.0029
c10.667 -11.333 30.667 -18.3311 60 -20.998c8 1.33301 16 1.33301 24 0c0.666992 -4 -1.83301 -7.66699 -7.5 -11s-11.5 -5 -17.5 -5c-26 2 -46.333 9 -61 21c-1.33301 -5.33301 -2.33301 -12.333 -3 -21c-2.66699 -54 12.666 -94.333 45.999 -121
c24.667 -19.333 54.667 -29 90 -29c44.667 0 90.667 10.333 138 31c39.333 18.667 74.333 38.334 105 59.001l-61 14c-13.333 3.33301 -33.666 7.33301 -60.999 12c-32 -6 -65.333 -13.667 -100 -23c-24.667 -6.66699 -37.334 -7.66699 -38.001 -3
c-1.33301 20 17.667 33.667 57 41c18.667 3.33301 47.334 3.33301 86.001 0c3.33301 0 6.33301 0.666992 9 2c67.333 23.333 145 75.666 233 156.999c86.667 79.333 130 159.333 130 240c0 27.333 -10.167 52.666 -30.5 75.999s-46.833 35.666 -79.5 36.999
c-77.333 -2 -148.333 -25 -213 -69c-55.333 -36 -106.333 -80.333 -153 -133c-90 -101.333 -141 -186 -153 -254z" />
    <glyph glyph-name="afii10019" unicode="&#x412;" horiz-adv-x="1031" 
d="M1453 607c-1.33301 -0.666992 -4.33301 1.33301 -9 6c-6.66699 6.66699 -13.667 12.334 -21 17.001c-30 19.333 -65 28.333 -105 27c-49.333 -1.33301 -98.333 -12.333 -147 -33c-28 -12 -50.667 -24.333 -68 -37c20 -26 30 -56.333 30 -91c0 -34 -10 -65 -30 -93
s-50.333 -52 -91 -72c-35.333 -17.333 -70.666 -28.333 -105.999 -33c47.333 -28 71 -68.667 71 -122c0 -28.667 -8 -56 -24 -82c-25.333 -42.667 -70.333 -74.667 -135 -96c-51.333 -17.333 -109.333 -26.333 -174 -27c-52.667 -0.666992 -107.334 4 -164.001 14
c-42 -26.667 -84.667 -48 -128 -64c41.333 -64.667 108.333 -95.334 201 -92.001c50 2 90.667 14.333 122 37c10 7.33301 16 10.333 18 9c2.66699 -2.66699 -0.333008 -8 -9 -16c-12 -10.667 -30.667 -20.167 -56 -28.5s-51.333 -12.833 -78 -13.5
c-100.667 -2.66699 -171.334 30.333 -212.001 99c-50 -17.333 -100.333 -26 -151 -26c-39.333 0 -72.666 10.667 -99.999 32c-36 28.667 -54 72.334 -54 131.001c0 100.667 48.667 205.667 146 315c48 54 110.167 100.333 186.5 139s143.833 56.334 202.5 53.001
c103.333 67.333 217 101 341 101c38.667 0 75 -6 109 -18s59.333 -27.333 76 -46c80 50 155.333 75.333 226 76c57.333 0.666992 98.333 -11 123 -35c8.66699 -8.66699 13 -17.334 13 -26.001c0 -2.66699 -1 -4.33398 -3 -5.00098zM1094 581
c-48 -36 -99 -85.668 -153 -149.001l-114 -138c-117.333 -132.667 -227.333 -232 -330 -298c52.667 -8 103 -11.667 151 -11c52 0.666992 100.667 11 146 31c50.667 22 88.667 52.667 114 92c18.667 29.333 28 60 28 92c0 48.667 -19.333 81 -58 97
c-9.33301 -1.33301 -17.333 -0.666016 -24 2.00098c-8.66699 4.66699 -10.667 10.334 -6 17.001c3.33301 5.33301 10 7 20 5c6.66699 -2.66699 15 -7.33398 25 -14.001c72 6.66699 131.333 43 178 109c25.333 36 38 71.333 38 106c0 24 -5 43.667 -15 59zM1084 591.999
c-34 34 -92.999 51 -176.999 51c-106.667 0 -206 -30 -298 -90c28 -8.66699 50.333 -23.334 67 -44.001c18 -22.667 27 -49.334 27 -80.001c0 -83.333 -41.333 -164.666 -124 -243.999c-80 -77.333 -161 -129.666 -243 -156.999c6.66699 -0.666992 20 -3.66699 40 -9
c22.667 -6 46.667 -11 72 -15c78 56 181.667 154 311 294c135.333 146.667 243.666 244.667 324.999 294zM688.001 432.999c0 27.333 -8.83301 51 -26.5 71s-40.167 33 -67.5 39c-10.667 -8 -31 -24.333 -61 -49c-69.333 -58 -123.333 -124 -162 -198
c-36 -68 -55 -135 -57 -201c-0.666992 -21.333 0 -41.666 2 -60.999c3.33301 0 6.33301 0.666992 9 2c67.333 23.333 145 75.666 233 156.999c86.667 79.333 130 159.333 130 240zM548.001 545.999c-55.333 -2 -116.329 -25.0039 -182.996 -69.0039
c-55.333 -36 -106.333 -80.333 -153 -133c-101.333 -114 -154 -211 -158 -291c-2.66699 -54 12.666 -94.333 45.999 -121c24.667 -19.333 54.667 -29 90 -29c44.667 0 90.667 10.333 138 31c-11.333 24 -19.666 52 -24.999 84
c-26.667 -5.33301 -57.334 -12.666 -92.001 -21.999c-24.667 -6.66699 -37.334 -7.66699 -38.001 -3c-1.33301 20 17.667 33.667 57 41c18.667 3.33301 42.667 3 72 -1c-2 20.667 -2.66699 41.334 -2 62.001c3.33301 86.667 27.666 170.834 72.999 252.501
s103.666 147.834 174.999 198.501zM433.005 -7.00488l-61.001 14c-13.333 3.33301 -31.333 7.33301 -54 12c4 -28 11.667 -54 23 -78c30.667 14 61.334 31.333 92.001 52z" />
    <glyph glyph-name="afii10020" unicode="&#x413;" horiz-adv-x="1043" 
d="M1923 692c4 -46 -32.332 -81.998 -108.999 -107.998c-66 -22 -144.667 -32.333 -236 -31c-62.667 1.33301 -140 6.33301 -232 15c-72.667 -65.333 -158.334 -150.333 -257.001 -255l-46 -47c-118 -123.333 -218.333 -211.333 -301 -264
c-100.667 -63.333 -200 -95 -298 -95c-110 0 -165 46.333 -165 139c0 10.667 0.666992 21.667 2 33c7.33301 57.333 33.666 119 78.999 185c42 60.667 94.333 117.667 157 171c74 62.667 157.333 116.667 250 162c-190 -4 -331.333 -24 -424 -60
c-75.333 -29.333 -140.333 -71.333 -195 -126c-63.333 -62 -98.333 -128 -105 -198c-0.666992 -10 -1 -19.333 -1 -28c0 -73.333 30.333 -112 91 -116c8 1.33301 16 1.33301 24 0c0.666992 -4 -1.83301 -7.66699 -7.5 -11s-11.5 -5 -17.5 -5
c-32 -0.666992 -57.667 11.166 -77 35.499s-29 56.5 -29 96.5c0 81.333 32.333 157.666 97 228.999c57.333 62.667 127.333 109.667 210 141c138.667 52 310.667 78 516 78c88 36 157.667 52 209 48c49.333 -4 77.666 -25.333 84.999 -64l199 -25c34.667 26 66 43 94 51
c14.667 4 22 4 22 0c0.666992 -3.33301 -4.66602 -6.66602 -15.999 -9.99902c-22.667 -6.66699 -47 -21.667 -73 -45c75.333 -8.66699 145 -14 209 -16c92.667 -2.66699 166.667 4 222 20c68.667 20 101 53 97 99c-2.66699 30 -20.667 43.667 -54 41
c-3.33301 0 -7.66602 -0.666992 -12.999 -2c-2 -0.666992 -3 -0.333984 -3 0.999023c0 5.33301 4.66699 9 14 11c5.33301 1.33301 11 2 17 2c40 0 61.667 -17.333 65 -52zM1128 618.002c-7.33301 32 -31.334 48.668 -72.001 50.001
c-46 1.33301 -99.667 -10.334 -161 -35.001c72.667 -0.666992 150.334 -5.66699 233.001 -15zM862 262.003c32.667 27.333 66.6689 59.332 102.002 95.999c99.333 98.667 154 175.334 164 230.001c-92 6.66699 -163 10 -213 10h-97c-87.333 -46.667 -174 -106.667 -260 -180
c-65.333 -56 -121.333 -113.667 -168 -173c-54.667 -70 -85.334 -129.667 -92.001 -179c-1.33301 -10 -2 -19.333 -2 -28c0 -75.333 46.667 -113 140 -113c125.333 0 302.666 108.667 531.999 326l73 72c68.667 68 161 150.333 277 247c-53.333 6 -112 11.667 -176 17
c-8.66699 -60.667 -57.334 -140 -146.001 -238l-105 -97c-51.333 -50 -104.333 -94 -159 -132c-99.333 -68.667 -192.333 -103 -279 -103c-63.333 0 -93 26.333 -89 79c1.33301 17.333 6.33301 25.333 15 24c2.66699 -0.666992 3.33398 -3.66699 2.00098 -9
c-2.66699 -10 -4 -15.667 -4 -17c-2 -20.667 5.66699 -37 23 -49c14 -10 31.333 -15 52 -15c62 0 149 38.333 261 115c60 41.333 109.667 80.333 149 117z" />
    <glyph glyph-name="afii10021" unicode="&#x414;" horiz-adv-x="1161" 
d="M1448 604c-1.33301 0 -4.33398 2 -9.00098 6c-6 7.33301 -13 13.333 -21 18c-29.333 18 -64 26.667 -104 26c-76.667 -1.33301 -148 -25 -214 -71c56 -48.667 84 -116 84 -202c0 -18.667 -1.66699 -36 -5 -52c-20.667 -102.667 -75 -188 -163 -256
c-90.667 -70 -209.667 -103 -357 -99c-44.667 1.33301 -102.334 5.66602 -173.001 12.999c-43.333 -26.667 -84.666 -47.667 -123.999 -63c44 -62.667 111 -92.334 201 -89.001c46 2 83.333 12.333 112 31c10 6.66699 16 9.66699 18 9c4 -2.66699 1.33301 -8 -8 -16
c-27.333 -23.333 -68 -35.666 -122 -36.999c-99.333 -2.66699 -172 29.333 -218 96c-53.333 -18.667 -106 -28 -158 -28c-39.333 0 -72.666 10.667 -99.999 32c-36 28.667 -54 72.334 -54 131.001c0 100.667 48.667 205.667 146 315
c47.333 53.333 107.333 99.666 180 138.999c76 40.667 143 60.667 201 60c16 0 29.333 -1.66699 40 -5c95.333 58.667 193 88 293 88c79.333 0 144.333 -19 195 -57c76.667 50 152.667 75.667 228 77c58 0.666992 99 -10.666 123 -33.999c8.66699 -8.66699 13 -17 13 -25
c0 -4 -1.33301 -6.33301 -4 -7zM1137 348c4 22 6.00098 43.334 6.00098 64.001c0 68 -18.667 121.667 -56 161c-44.667 -37.333 -93.334 -86 -146.001 -146l-113 -133c-116 -130 -224 -228.333 -324 -295c51.333 -6 103.666 -9 156.999 -9c130.667 0 241.334 42 332.001 126
c81.333 75.333 129.333 152.666 144 231.999zM1077 583.001c-46.667 34 -109.666 51.001 -188.999 51.001c-86.667 0 -173.334 -27.667 -260.001 -83c50 -25.333 75 -66 75 -122c0 -76.667 -41.667 -158 -125 -244c-72 -74.667 -152.667 -127 -242 -157
c33.333 -8.66699 71.333 -16 114 -22c79.333 57.333 183 154.666 311 291.999c114.667 123.333 220 218.333 316 285zM688.001 433.002c0 50.667 -24.667 87.335 -74 110.002c-61.333 -42 -114.333 -91.667 -159 -149c-91.333 -116.667 -137 -223.334 -137 -320.001
c0 -12.667 1 -26 3 -40l4 2c79.333 29.333 157 81.666 233 156.999c86.667 86 130 166 130 240zM583.001 551.003c-10.667 1.33301 -18.3301 2 -22.9971 2c-58 0 -121.667 -23 -191 -69c-55.333 -37.333 -107.666 -84 -156.999 -140
c-101.333 -115.333 -154 -212.333 -158 -291c-2.66699 -54 12.666 -94.333 45.999 -121c24.667 -19.333 54.667 -29 90 -29c43.333 0 91 11.333 143 34c-13.333 26.667 -22.333 53.667 -27 81c-22 -4 -53.667 -11.333 -95 -22c-24.667 -8 -37.334 -9 -38.001 -3
c-1.33301 20 17.667 33.667 57 41c19.333 3.33301 43.666 3 72.999 -1c-1.33301 20 -2 35 -2 45c0 114 40.667 222.667 122 326c45.333 57.333 98.666 106.333 159.999 147zM435.005 -4.99707l-63.001 12l-48 9c4.66699 -25.333 13 -49.333 25 -72
c26.667 12.667 55.334 29.667 86.001 51z" />
    <glyph glyph-name="afii10022" unicode="&#x415;" horiz-adv-x="822" 
d="M1238 564c-4.66699 -12 -19.3291 -17.668 -43.9961 -17.001c-16 0.666992 -30.667 2.66699 -44 6c-85.333 22 -160.333 37.667 -225 47c-67.333 -25.333 -125.333 -57.666 -174 -96.999c41.333 -31.333 61.333 -73.666 60 -126.999c-2.66699 -86.667 -56 -172 -160 -256
c-118.667 -95.333 -235.334 -146 -350.001 -152c-12 -0.666992 -21.333 -0.666992 -28 0c-4.66699 -56 28.666 -84 99.999 -84c16 0 33 1.66699 51 5c86.667 17.333 188 70.333 304 159c13.333 10 39.666 31.667 78.999 65c18 15.333 29 23 33 23
c1.33301 0 2.33301 -0.333008 3 -1c2.66699 -2.66699 -7.33301 -14.334 -30 -35.001c-19.333 -18 -44 -38.667 -74 -62c-122 -95.333 -227 -150.666 -315 -165.999c-20 -3.33301 -39 -5 -57 -5c-86 0 -131.333 35 -136 105c-102 18.667 -153 84.667 -153 198
c0 56 16.167 114.667 48.5 176s73.166 112.666 122.499 153.999c122.667 102.667 264.667 154 426 154c62.667 0 136.334 -8.66699 221.001 -26c49.333 16 102.666 24 159.999 24c32 0 63.667 -2.66699 95 -8c24 -4 44.333 -11.333 61 -22c19.333 -12.667 29 -27 29 -43
c0 -4.66699 -1 -9.66699 -3 -15zM1227 568.999c1.33301 3.33301 2 7 2 11c0 25.333 -25.333 42.666 -76 51.999c-16.667 2.66699 -34 4 -52 4c-42.667 0 -88.667 -7.66699 -138 -23l192 -49c14.667 -3.33301 28 -5.66602 40 -6.99902c17.333 -2 28 2 32 12zM850.005 609.999
c-54 6.66699 -115.333 10 -184 10c-162 0 -298 -45.667 -408 -137c-46.667 -38.667 -85.667 -88.167 -117 -148.5s-47 -115.833 -47 -166.5c0 -102 45.667 -162.333 137 -181c0 5.33301 0.666992 14 2 26c8.66699 56 37.667 112 87 168c38.667 44 82.667 81 132 111
c65.333 40 133 65.667 203 77c-6 28.667 -1.66699 57.334 13 86.001c10.667 21.333 23.334 39.666 38.001 54.999c-22.667 10 -50.667 15 -84 15c-48.667 0 -97 -10.333 -145 -31s-89.333 -49.667 -124 -87c-54 -58 -81.333 -114 -82 -168c0 -14 2.33301 -27.667 7 -41
c1.33301 -2.66699 1 -5 -1 -7c-4 -2.66699 -7 -1 -9 5c-6.66699 10 -10 24 -10 42c0 66 28.333 127.333 85 184c77.333 77.333 172.333 116 285 116c36 0 65.667 -5.33301 89 -16c33.333 34.667 77.666 64 132.999 88zM796.005 372.999c2 52 -17.001 92 -57.001 120
c-14.667 -12.667 -26.667 -26 -36 -40c-23.333 -34 -35 -61.667 -35 -83c12.667 0 24.667 -2 36 -6c22.667 -8 32 -16.333 28 -25c-3.33301 -7.33301 -16.666 -8 -39.999 -2c-12 3.33301 -23.333 9.66602 -34 18.999c-33.333 -4 -71.333 -20 -114 -48
c-60 -39.333 -113.667 -85.666 -161 -138.999c-50 -57.333 -83.667 -112 -101 -164c-2 -5.33301 -4.33301 -13 -7 -23c6 -0.666992 15.667 -0.666992 29 0c48 2 103.333 17.667 166 47c59.333 28.667 116 65 170 109c101.333 82.667 153.333 161 156 235z" />
    <glyph glyph-name="afii10024" unicode="&#x416;" horiz-adv-x="1363" 
d="M549 -191c22 0.666992 42.9971 3.00195 62.9971 7.00195c8 1.33301 12.667 0.666016 14 -2.00098c2 -5.33301 -1.66699 -9 -11 -11c-13.333 -5.33301 -35.666 -7.33301 -66.999 -6c-83.333 0 -151.333 23.667 -204 71c-69.333 -23.333 -136 -35 -200 -35
c-47.333 0 -87.666 12 -120.999 36c-40.667 29.333 -61 72 -61 128c0 60 19.333 123.667 58 191c36 63.333 85.333 123 148 179c53.333 48 114.833 90.167 184.5 126.5s133.834 59.166 192.501 68.499c102 69.333 199.667 101.666 293 96.999
c52 -2.66699 93 -17.834 123 -45.501s45 -62.834 45 -105.501c0 -18 -2.66699 -36.333 -8 -55c-26 -68 -48.667 -112.333 -68 -133c65.333 58.667 142.666 118.334 231.999 179.001c54.667 37.333 109.334 64 164.001 80c17.333 5.33301 38 10 62 14
c16.667 4 24.667 1.66699 24 -7c-22 -3.33301 -42 -12.666 -60 -27.999c-26.667 -22 -59 -56.667 -97 -104l-102 -133c-34 -44 -86.333 -107.667 -157 -191c114 98 199.333 169.333 256 214c130.667 102.667 264 186.667 400 252c80.667 38.667 157.667 58 231 58
c80 0 131.333 -20.333 154 -61c7.33301 -13.333 6.66602 -21.333 -2.00098 -24c-1.33301 -0.666992 -8 6.33301 -20 21c-28.667 34.667 -71.667 52 -129 52c-17.333 0 -37 -1.66699 -59 -5c-12.667 -3.33301 -24.667 -7.66602 -36 -12.999
c-93.333 -42.667 -210 -135.334 -350 -278.001c-95.333 -94 -171.333 -186.333 -228 -277c-25.333 -41.333 -40.333 -76.333 -45 -105c0.666992 -9.33301 -0.333008 -19 -3 -29c-8 -2.66699 -12.333 7 -13 29c-1.33301 30 5.66699 62 21 96
c50.667 112.667 132.667 220.334 246 323.001c122.667 114 239 194.333 349 241c-37.333 -9.33301 -73 -22.666 -107 -39.999c-138.667 -70.667 -271 -155.334 -397 -254.001l-317 -262c-12 -18 -26 -36.667 -42 -56c-28.667 -35.333 -49 -53 -61 -53
c-2 0 -4.16699 0.666992 -6.5 2s-3.5 3.66602 -3.5 6.99902c0 11.333 8 25.333 24 42c14 14.667 39 37.334 75 68.001l162 248c72.667 103.333 145 177.666 217 222.999c26.667 16.667 47.334 27.667 62.001 33c-15.333 -3.33301 -28.333 -6.66602 -39 -9.99902
c-40.667 -12.667 -93 -40 -157 -82c-85.333 -56 -200.666 -151 -345.999 -285c-172 -166 -328.667 -276 -470 -330c49.333 -44 111.666 -66 186.999 -66zM967.997 468.002c3.33301 13.333 5.00195 26.667 5.00195 40c0 36 -11.333 66.333 -34 91
c-24.667 26 -58.334 39.667 -101.001 41c-83.333 2.66699 -169 -22 -257 -74c15.333 0 26.666 -0.333008 33.999 -1c79.333 -7.33301 119 -51.333 119 -132c0 -52 -19.333 -109.667 -58 -173c-34 -54.667 -74 -101.334 -120 -140.001
c-90.667 -75.333 -179 -122.333 -265 -141c11.333 -30 28.666 -59 51.999 -87c154.667 64.667 306.334 173.334 455.001 326.001c96 98 152.667 181.333 170 250zM714.999 403.003c2 12 3 23.332 3 33.999c0 35.333 -10.667 63.333 -32 84c-18.667 18.667 -43.667 29 -75 31
c-18.667 1.33301 -38 0 -58 -4c-60 -41.333 -110 -87.666 -150 -138.999c-86.667 -111.333 -130 -221.333 -130 -330c0 -26.667 4.33301 -55.334 13 -86.001c72.667 20.667 156.334 70.334 251.001 149.001c103.333 86 162.666 173 177.999 261zM511.999 538.002
c-96 -30 -203.004 -97.668 -321.004 -203.001c-60.667 -54 -110 -110.333 -148 -169c-41.333 -64 -62 -120.333 -62 -169c0 -51.333 18 -90.333 54 -117c28.667 -20.667 65.334 -31.667 110.001 -33c50.667 -1.33301 111.334 11.667 182.001 39
c-25.333 28 -43.333 58 -54 90c-15.333 -2.66699 -30.666 -4 -45.999 -4c-28 0 -50 7.66699 -66 23c-14 13.333 -21 30 -21 50c0 10 1.66699 19.333 5 28c6.66699 10.667 11 15.667 13 15c1.33301 -0.666992 0.666016 -5.16699 -2.00098 -13.5s-4 -17.166 -4 -26.499
c0 -18 6.83301 -33.167 20.5 -45.5s31.834 -18.5 54.501 -18.5c10.667 0 24.334 1.66699 41.001 5c-8.66699 26.667 -13 59 -13 97c0 108 42 216.333 126 325c36 46.667 79.667 89 131 127z" />
    <glyph glyph-name="afii10025" unicode="&#x417;" horiz-adv-x="838" 
d="M1068 493c-16 -64 -60.6689 -128.669 -134.002 -194.002c-84 -75.333 -180.667 -125.666 -290 -150.999c25.333 -16 37.333 -40.333 36 -73c-0.666992 -26 -10 -55.667 -28 -89c-15.333 -27.333 -32 -50.333 -50 -69c-148 -148.667 -331.333 -223 -550 -223
c-68.667 0 -125 16.667 -169 50s-64.333 75.666 -61 126.999c3.33301 48.667 21.333 88 54 118c6.66699 6 11.334 8 14.001 6c2 -2 -0.333008 -6.66699 -7 -14c-26 -27.333 -40.333 -64 -43 -110s16 -83.5 56 -112.5s91.667 -43.5 155 -43.5c91.333 0 183.333 21.667 276 65
c78 36.667 149.167 85.167 213.5 145.5s98.166 114.833 101.499 163.5c2 24 -7.66699 40.667 -29 50c-27.333 -8 -49.333 -13 -66 -15c-12 -1.33301 -23 -0.5 -33 2.5s-14 8.16699 -12 15.5c4.66699 18.667 27.667 26.667 69 24c25.333 -1.33301 42.666 -4 51.999 -8
c87.333 18.667 172.666 68 255.999 148c74 70.667 123 139 147 205c8.66699 23.333 13 43.333 13 60c0 37.333 -20.333 58 -61 62c-50.667 4.66699 -105.667 -9 -165 -41c26 -24.667 39 -55.667 39 -93c0 -60 -28 -117 -84 -171c-35.333 -34 -71.666 -62 -108.999 -84
c-41.333 -24 -76 -36 -104 -36c-18 0 -33 5.66699 -45 17s-18 26.333 -18 45c0 32 16.333 71.667 49 119c30.667 44.667 68 84.834 112 120.501s87.333 64.5 130 86.5c-27.333 14 -58.333 21 -93 21c-123.333 -0.666992 -263 -77 -419 -229
c-50.667 -49.333 -94.667 -104.666 -132 -165.999c-40 -65.333 -61.667 -120.666 -65 -165.999s7.33398 -81.166 32.001 -107.499s61.667 -38.833 111 -37.5c54.667 1.33301 112.334 18.666 173.001 51.999c58.667 32.667 103.334 70.667 134.001 114
c2.66699 2.66699 5 3.66699 7 3c4.66699 -0.666992 4 -5 -2 -13c-26 -45.333 -70.833 -85 -134.5 -119s-125.5 -51.667 -185.5 -53c-54.667 -0.666992 -96.334 15.666 -125.001 48.999c-26.667 30.667 -38.667 72 -36 124c2.66699 50 22.5 107.667 59.5 173
s82.5 124.333 136.5 177c70 68.667 148.667 122.334 236 161.001c78.667 35.333 149.334 53 212.001 53c43.333 0 78.666 -9.66699 105.999 -29c60.667 30.667 115.334 46 164.001 46c75.333 0 113 -34.333 113 -103c0 -16.667 -2.33301 -34.334 -7 -53.001z
M797.998 583.998c-38 -22 -75.667 -49 -113 -81c-52 -44 -94.167 -88.167 -126.5 -132.5s-48.5 -79.833 -48.5 -106.5c0 -27.333 16 -41 48 -41c50 0 113.333 37.333 190 112c59.333 58 89 114 89 168c0 33.333 -13 60.333 -39 81z" />
    <glyph glyph-name="afii10026" unicode="&#x418;" horiz-adv-x="990" 
d="M1399 605c0 -12 -9.00098 -25.9971 -27.001 -41.9971c-26 -24 -70.667 -53.667 -134 -89l-82 -77l-153 -148c-72.667 -72.667 -134.334 -147 -185.001 -223c-16.667 -24.667 -29 -45.667 -37 -63c-12.667 -1.33301 -19 8 -19 28c0 18.667 7 40 21 64
c24.667 43.333 80.334 109 167.001 197c20.667 21.333 46.667 45 78 71l-3 4l-96 -75l-169 -132c-26 -42.667 -60 -83.667 -102 -123c-111.333 -104.667 -240.666 -154.667 -387.999 -150c-74 2.66699 -133.333 23 -178 61c-48 40.667 -71 95.667 -69 165
c2 70.667 29 145 81 223c54 80.667 124.667 149.667 212 207c139.333 92 295 138 467 138c84.667 0 172 -11 262 -33c4.66699 1.33301 10.667 3.33301 18 6s12 3 14 1c1.33301 -1.33301 1.33301 -5.33301 0 -12c0 -0.666992 -0.666992 -2.33398 -2 -5.00098
c17.333 -4.66699 32.666 -10.667 45.999 -18c9.33301 -4.66699 12.333 -9.33398 9 -14.001c-1.33301 -1.33301 -5 -0.333008 -11 3l-6 3c-10 5.33301 -24.333 10.666 -43 15.999c-2 -2.66699 -7.66699 -7.66699 -17 -15s-22.333 -16 -39 -26
c-54 -33.333 -128.333 -86.333 -223 -159c16 -34 22.667 -72.667 20 -116c-2.66699 -38 -12.667 -75.667 -30 -113l102 79l341 250c38.667 38.667 69.334 68 92.001 88c32.667 29.333 55.667 44 69 44c9.33301 0 14 -5 14 -15zM1027 599.003
c-77.333 14.667 -158.668 21.9971 -244.001 21.9971c-148.667 0 -298.334 -49.667 -449.001 -149c-84 -55.333 -153 -121.666 -207 -198.999c-52.667 -74 -79.667 -140.667 -81 -200c-2 -67.333 19 -119.666 63 -156.999c40 -34 93.667 -52 161 -54
c140.667 -4.66699 266 43.666 376 144.999c28 26 53.333 54 76 84c-48 -34.667 -82.667 -59 -104 -73c-86 -54.667 -146.333 -82 -181 -82c-16.667 0 -30.167 5.33301 -40.5 16s-15.5 23.334 -15.5 38.001c0 29.333 17.333 69 52 119c49.333 70.667 127.333 151 234 241
c24.667 20.667 53.334 43.334 86.001 68.001c-32 34 -77.333 51 -136 51c-41.333 0 -82.833 -11 -124.5 -33s-73.167 -49.167 -94.5 -81.5s-33.666 -59.5 -36.999 -81.5c-1.33301 -6.66699 -3.66602 -10 -6.99902 -10s-5 3.33301 -5 10c3.33301 28.667 16.666 60 39.999 94
c22 32 53.667 59.333 95 82c44 24 88.667 36 134 36c63.333 0 112.333 -19.333 147 -58c108 80.667 195.333 138 262 172zM793.997 270c2 42.667 -3.33398 78.665 -16.001 107.998l-109 -89c-78 -65.333 -143.333 -133.666 -196 -204.999
c-36.667 -49.333 -55 -85.333 -55 -108c0 -14.667 9.33301 -22 28 -22c28.667 0 83.334 27 164.001 81c41.333 27.333 88.333 61 141 101c26.667 46.667 41 91.334 43 134.001z" />
    <glyph glyph-name="afii10027" unicode="&#x419;" horiz-adv-x="990" 
d="M1399 605c0 -12 -9.00098 -25.9971 -27.001 -41.9971c-26 -24 -70.667 -53.667 -134 -89l-82 -77l-153 -148c-72.667 -72.667 -134.334 -147 -185.001 -223c-16.667 -24.667 -29 -45.667 -37 -63c-12.667 -1.33301 -19 8 -19 28c0 18.667 7 40 21 64
c24.667 43.333 80.334 109 167.001 197c20.667 21.333 46.667 45 78 71l-3 4l-96 -75l-169 -132c-26 -42.667 -60 -83.667 -102 -123c-111.333 -104.667 -240.666 -154.667 -387.999 -150c-74 2.66699 -133.333 23 -178 61c-48 40.667 -71 95.667 -69 165
c2 70.667 29 145 81 223c54 80.667 124.667 149.667 212 207c139.333 92 295 138 467 138c84.667 0 172 -11 262 -33c4.66699 1.33301 10.667 3.33301 18 6s12 3 14 1c1.33301 -1.33301 1.33301 -5.33301 0 -12c0 -0.666992 -0.666992 -2.33398 -2 -5.00098
c17.333 -4.66699 32.666 -10.667 45.999 -18c9.33301 -4.66699 12.333 -9.33398 9 -14.001c-1.33301 -1.33301 -5 -0.333008 -11 3l-6 3c-10 5.33301 -24.333 10.666 -43 15.999c-2 -2.66699 -7.66699 -7.66699 -17 -15s-22.333 -16 -39 -26
c-54 -33.333 -128.333 -86.333 -223 -159c16 -34 22.667 -72.667 20 -116c-2.66699 -38 -12.667 -75.667 -30 -113l102 79l341 250c38.667 38.667 69.334 68 92.001 88c32.667 29.333 55.667 44 69 44c9.33301 0 14 -5 14 -15zM1027 599.003
c-77.333 14.667 -158.668 21.9971 -244.001 21.9971c-148.667 0 -298.334 -49.667 -449.001 -149c-84 -55.333 -153 -121.666 -207 -198.999c-52.667 -74 -79.667 -140.667 -81 -200c-2 -67.333 19 -119.666 63 -156.999c40 -34 93.667 -52 161 -54
c140.667 -4.66699 266 43.666 376 144.999c28 26 53.333 54 76 84c-48 -34.667 -82.667 -59 -104 -73c-86 -54.667 -146.333 -82 -181 -82c-16.667 0 -30.167 5.33301 -40.5 16s-15.5 23.334 -15.5 38.001c0 29.333 17.333 69 52 119c49.333 70.667 127.333 151 234 241
c24.667 20.667 53.334 43.334 86.001 68.001c-32 34 -77.333 51 -136 51c-41.333 0 -82.833 -11 -124.5 -33s-73.167 -49.167 -94.5 -81.5s-33.666 -59.5 -36.999 -81.5c-1.33301 -6.66699 -3.66602 -10 -6.99902 -10s-5 3.33301 -5 10c3.33301 28.667 16.666 60 39.999 94
c22 32 53.667 59.333 95 82c44 24 88.667 36 134 36c63.333 0 112.333 -19.333 147 -58c108 80.667 195.333 138 262 172zM793.997 270c2 42.667 -3.33398 78.665 -16.001 107.998l-109 -89c-78 -65.333 -143.333 -133.666 -196 -204.999
c-36.667 -49.333 -55 -85.333 -55 -108c0 -14.667 9.33301 -22 28 -22c28.667 0 83.334 27 164.001 81c41.333 27.333 88.333 61 141 101c26.667 46.667 41 91.334 43 134.001zM1206 691.998c0 5.33301 2.00195 7.99902 6.00195 7.99902c2.66699 0 5.66699 -2 9 -6
c6.66699 -11.333 13.667 -30.333 21 -57c57.333 30.667 100.666 51 129.999 61c9.33301 4 14 3.66699 14 -1c4.66699 -3.33301 3.66699 -6.66602 -3 -9.99902c-54 -30.667 -103 -61 -147 -91c-8 -5.33301 -13 -8 -15 -8c-4.66699 0 -7 4.33301 -7 13
c-0.666992 30 -3.33398 60.333 -8.00098 91z" />
    <glyph glyph-name="afii10028" unicode="&#x41a;" horiz-adv-x="1038" 
d="M1813 610c4 -11.333 3.66895 -17.3311 -0.998047 -17.998c1.33301 0.666992 -1.66699 4.33398 -9 11.001c-14.667 20.667 -42.334 31.667 -83.001 33c-81.333 3.33301 -188.333 -24.667 -321 -84c-85.333 -38 -176.333 -85 -273 -141
c-70.667 -40.667 -116.667 -69.667 -138 -87c-22 -60 -40 -126 -54 -198c-8.66699 -45.333 -13 -86.333 -13 -123c0 -40.667 12.667 -61.334 38 -62.001c17.333 -0.666992 36.666 6.66602 57.999 21.999c3.33301 3.33301 6 4 8 2s1.33301 -5 -2 -9
c-28 -30.667 -60 -45.334 -96 -44.001c-40 2 -60.333 28.667 -61 80c-0.666992 34.667 5.33301 81.667 18 141c11.333 52.667 32.333 114.334 63 185.001c42 34 97.667 70.667 167 110c114.667 66 200.667 112 258 138c150.667 69.333 266 101.666 346 96.999
c51.333 -3.33301 83 -21 95 -53zM1269 585.002c-0.666992 -0.666992 -8.66504 1.99902 -23.998 7.99902c-20 8 -43.667 15.333 -71 22c-140.667 33.333 -294.334 50 -461.001 50c-86.667 0 -166 -15 -238 -45c-80.667 -34 -126 -78 -136 -132
c-0.666992 -10.667 -1.66699 -20.667 -3 -30c118 66 229.667 95.333 335 88c78 -5.33301 117 -38.666 117 -99.999c0 -12 -1.66699 -24.667 -5 -38c-20.667 -81.333 -86 -169 -196 -263c-55.333 -47.333 -114 -85.333 -176 -114c-57.333 -26 -105.666 -39 -144.999 -39
c-22.667 0 -41.667 5.66699 -57 17c-18 14 -25.333 33.667 -22 59c2 16 6.66699 23.333 14 22c2.66699 -0.666992 3.33398 -3.33398 2.00098 -8.00098c-2.66699 -8.66699 -4 -14 -4 -16c-2 -20.667 4.66699 -36.334 20 -47.001c12.667 -9.33301 29 -14 49 -14
c68 0 165.667 52 293 156c120.667 98.667 190 181 208 247c3.33301 13.333 5 25.666 5 36.999c0 54.667 -34.333 84 -103 88c-48 2.66699 -103.667 -7.33301 -167 -30c-56.667 -19.333 -111.334 -46 -164.001 -80c8 -28.667 26.333 -50 55 -64
c10.667 -4.66699 15.667 -7.66699 15 -9c-2 -5.33301 -8.33301 -5.66602 -19 -0.999023c-31.333 12.667 -52.333 35 -63 67c-17.333 -11.333 -35.333 -24.666 -54 -39.999c-78 -64.667 -138 -128.667 -180 -192c-39.333 -60 -59 -113.667 -59 -161c0 -48 17.333 -85 52 -111
c30 -22.667 68.333 -34 115 -34c84.667 0 180.667 39 288 117c77.333 56 183.666 151.667 318.999 287c80.667 80.667 140.667 138 180 172c51.333 44.667 100.666 80.334 147.999 107.001c27.333 15.333 52.333 23 75 23c11.333 -1.33301 16.666 -3.66602 15.999 -6.99902
c0 -1.33301 -5 -2.33301 -15 -3c-19.333 -2 -41.666 -11 -66.999 -27c-68.667 -43.333 -158 -128.666 -268 -255.999c-130 -150.667 -256 -262.334 -378 -335.001c-105.333 -62.667 -202.666 -94 -291.999 -94c-51.333 0 -94 12 -128 36
c-42.667 29.333 -63.667 72.333 -63 129s18.667 115.667 54 177c38.667 66.667 95.334 130 170.001 190c27.333 22 54.666 40.333 81.999 55c-0.666992 13.333 0.333008 27.666 3 42.999c14 70.667 60.667 124.667 140 162c68.667 32 151.667 48 249 48
c138.667 0 291.667 -23.667 459 -71c19.333 -5.33301 45.666 -15 78.999 -29c14 -6 19.333 -11.667 16 -17z" />
    <glyph glyph-name="afii10029" unicode="&#x41b;" horiz-adv-x="954" 
d="M298 51c6 2.66699 16.332 8.66797 30.999 18.001c33.333 21.333 81.333 59.333 144 114c40.667 35.333 80 75.333 118 120c43.333 50.667 72 92.667 86 126c10.667 26 16 49.667 16 71c-0.666992 19.333 -5.66699 34.666 -15 45.999c-30 -12 -65 -31.667 -105 -59
c-83.333 -55.333 -150.333 -124.333 -201 -207c-47.333 -77.333 -71.666 -147.333 -72.999 -210zM310.999 -63.999c-17.333 22 -28.998 50.668 -34.998 86.001c-28.667 -10 -59.334 -15 -92.001 -15s-53 10.333 -61 31c-4.66699 9.33301 -3.66699 15 3 17
c1.33301 0.666992 3 -1.5 5 -6.5s3.66699 -8.5 5 -10.5c10 -13.333 25.667 -20 47 -20c32 0 63 7.33301 93 22c-2.66699 10.667 -1.83398 36.167 2.49902 76.5s27.5 97.5 69.5 171.5c44.667 78 109.334 149 194.001 213c44.667 32 83.334 54.667 116.001 68
c-12.667 10.667 -32.667 15.334 -60 14.001c-44.667 0 -99.334 -17.833 -164.001 -53.5s-130.667 -83.834 -198 -144.501c-144 -130 -216 -242.667 -216 -338c0 -39.333 10.833 -71.333 32.5 -96s51.167 -39.334 88.5 -44.001c12 -1.33301 24.333 -2 37 -2
c45.333 0 89.666 10.333 132.999 31zM331.001 -53.998c24.667 12 53.999 31 87.999 57c70.667 54 160.667 143 270 267c83.333 94 184.333 170.667 303 230c64.667 36 124.334 62 179.001 78c20.667 6 39.334 11.667 56.001 17c-85.333 15.333 -170.333 23 -255 23
c-83.333 2.66699 -176.333 -19.333 -279 -66c11.333 -16.667 16.666 -34.667 15.999 -54c0 -24 -5.33301 -49 -16 -75c-16.667 -40.667 -42.667 -85 -78 -133c-38 -52.667 -78.667 -97.667 -122 -135c-73.333 -63.333 -138 -105 -194 -125c6 -34 16.667 -62 32 -84z
M348 -74.998c35.333 -38.667 89.999 -61.001 163.999 -67.001c137.333 -2.66699 254 47.333 350 150c10 10.667 16.333 14.667 19 12c4.66699 -2.66699 1.33398 -10.334 -9.99902 -23.001c-98.667 -105.333 -218.334 -156.666 -359.001 -153.999
c-82.667 4.66699 -144 29 -184 73c-45.333 -18 -92 -27 -140 -27c-15.333 0 -30.333 1 -45 3c-44 6 -78.667 22.333 -104 49s-38 62 -38 106c0 120 69.333 243 208 369c61.333 56 129.666 101 204.999 135c69.333 31.333 130 47 182 47c33.333 0 58.333 -7.66699 75 -23
c104.667 46 205 68 301 66c78 0 162 -10.667 252 -32c37.333 -8.66699 63.333 -18 78 -28c9.33301 -6.66699 12.333 -11.667 9 -15c-1.33301 -1.33301 -7 0.666992 -17 6c-7.33301 4 -19.666 8.33301 -36.999 13c-23.333 -6.66699 -48.333 -20 -75 -40
c-16.667 -14 -48 -46.333 -94 -97c-37.333 -45.333 -73.666 -93 -108.999 -143c-58.667 -74 -113.667 -160 -165 -258c-22.667 -40.667 -39.334 -60.667 -50.001 -60c-9.33301 0.666992 -14 8.33398 -14 23.001c0 8.66699 6 27 18 55c42 89.333 94.333 176 157 260
c82.667 103.333 160.334 178.666 233.001 225.999c26 14.667 46.333 24.667 61 30c-15.333 -3.33301 -28.333 -6.66602 -39 -9.99902c-40.667 -12.667 -100.667 -42.667 -180 -90c-98 -60 -184.333 -135 -259 -225c-144.667 -172.667 -275.667 -283 -393 -331z" />
    <glyph glyph-name="afii10030" unicode="&#x41c;" horiz-adv-x="1281" 
d="M1978 592c7.33301 -13.333 6.66602 -21.3359 -2.00098 -24.0029c-1.33301 -0.666992 -8 6.33301 -20 21c-28.667 34.667 -71.667 52 -129 52c-17.333 0 -37 -1.66699 -59 -5c-12.667 -3.33301 -24.667 -7.66602 -36 -12.999c-93.333 -42.667 -226.333 -154.667 -399 -336
c-96.667 -102 -166.667 -185 -210 -249c-23.333 -34.667 -40.333 -51.667 -51 -51c-9.33301 0.666992 -14 8.33398 -14 23.001c0 8.66699 2.33301 18 7 28c13.333 29.333 46 74.666 98 135.999c50 58 101.333 112.333 154 163c151.333 144 282 239.333 392 286
c-37.333 -9.33301 -73 -22.666 -107 -39.999c-138.667 -70.667 -271 -155.334 -397 -254.001l-317 -262c-12 -18 -26 -36.667 -42 -56c-28.667 -35.333 -49 -53 -61 -53c-2 0 -4.16699 0.666992 -6.5 2s-3.5 3.66602 -3.5 6.99902c0 11.333 8 25.333 24 42
c14 14.667 39 37.334 75 68.001l162 248c72.667 103.333 145 177.666 217 222.999c26.667 16.667 47.334 27.667 62.001 33c-15.333 -3.33301 -28.333 -6.66602 -39 -9.99902c-40.667 -12.667 -93 -40 -157 -82c-85.333 -56 -170.666 -125.333 -255.999 -208
c-122 -118.667 -220 -206 -294 -262c-54.667 -42 -109 -73.333 -163 -94c36.667 -43.333 93 -65.666 169 -66.999c137.333 -2.66699 254 47.333 350 150c10 10.667 16.333 14.667 19 12c4.66699 -2.66699 1.33398 -10.334 -9.99902 -23.001
c-98.667 -105.333 -218.334 -156.666 -359.001 -153.999c-82.667 1.33301 -144.334 26.333 -185.001 75c-54.667 -19.333 -107.667 -29 -159 -29c-144 0 -210.667 61 -200 183c8 95.333 63.667 190 167 284c49.333 45.333 106.666 82 171.999 110s126.333 42 183 42
c18.667 0 36 -2.33301 52 -7c60 42 129.333 75.333 208 100c84 26.667 169 40 255 40c78 0 162 -10.667 252 -32c37.333 -8.66699 63.333 -18 78 -28c9.33301 -6.66699 12.333 -11.667 9 -15c-1.33301 -1.33301 -7 0.666992 -17 6c-7.33301 4 -19.666 8.33301 -36.999 13
c-22 -3.33301 -42 -12.666 -60 -27.999c-26.667 -22 -59 -56.667 -97 -104l-102 -133c-34 -44 -86.333 -107.667 -157 -191c114 98 199.333 169.333 256 214c130.667 102.667 264 186.667 400 252c80.667 38.667 157.667 58 231 58c80 0 131.333 -20.333 154 -61z
M1327 592.997c-88 16.667 -174.332 25 -258.999 25c-71.333 0 -147.333 -12.667 -228 -38c-74 -24 -142 -55 -204 -93c37.333 -23.333 54.666 -61 51.999 -113c-4.66699 -88 -53.667 -170 -147 -246c-54 -44 -113.333 -77.667 -178 -101c5.33301 -32 14.333 -59 27 -81
c48 21.333 102.333 55 163 101c65.333 49.333 153.666 124 264.999 224c102 91.333 197 167 285 227c54.667 37.333 109.334 64 164.001 80c20.667 6 40.667 11 60 15zM673.001 372.997c4 50 -12.667 85 -50 105c-74.667 -49.333 -137.334 -115.333 -188.001 -198
c-47.333 -77.333 -71.666 -147.333 -72.999 -210v-22c51.333 21.333 105 55 161 101c94.667 77.333 144.667 152 150 224zM591.001 489.997c-11.333 2.66699 -23.999 3.99707 -37.999 3.99707c-46 0 -99.667 -15.333 -161 -46c-58.667 -29.333 -114 -67.333 -166 -114
c-113.333 -101.333 -173.333 -190 -180 -266c-9.33301 -107.333 51 -161 181 -161c47.333 0 96.666 10.667 147.999 32c-14.667 24.667 -24 52 -28 82c-38.667 -12 -72.667 -18 -102 -18c-30 0 -55.333 6.66699 -76 20c-12.667 8 -19 17.333 -19 28
c0 2.66699 1 4.33398 3 5.00098s4 -0.666016 6 -3.99902c3.33301 -5.33301 5.66602 -8.66602 6.99902 -9.99902c16.667 -16 43.334 -24 80.001 -24c30 0 62.667 7.33301 98 22c0 20.667 0.666992 48.667 2 84s23 90 65 164c44.667 78 104.667 145.333 180 202z" />
    <glyph glyph-name="afii10031" unicode="&#x41d;" horiz-adv-x="1048" 
d="M1868 581c2.66699 -4.66699 4 -9.66406 4 -14.9971c-0.666992 -5.33301 -3 -8.33301 -7 -9c-2.66699 -0.666992 -6.66699 2 -12 8c-8.66699 11.333 -13.667 17.666 -15 18.999c-29.333 29.333 -74.333 44 -135 44c-118.667 0 -239.667 -43 -363 -129
c-68 -47.333 -148.333 -119.333 -241 -216c-72.667 -76 -139.667 -156.333 -201 -241l-31 -43c-8.66699 -11.333 -16.334 -17.333 -23.001 -18c-9.33301 -0.666992 -14 4.66602 -14 15.999c0 28.667 36.667 87.667 110 177c15.333 30.667 23 59.334 23 86.001
c0 28 -8.33301 53 -25 75l-40 -44c-122.667 -142.667 -249.334 -246 -380.001 -310c-92.667 -46 -182.334 -70.333 -269.001 -73c-57.333 -2 -105.666 8.66699 -144.999 32c-48 28 -71.667 71.667 -71 131c1.33301 118.667 72.333 223 213 313
c24 15.333 55 31.666 93 48.999c-10.667 18 -14 37.667 -10 59c13.333 68 65 120.333 155 157c71.333 28.667 150.333 43 237 43c150.667 0 311.334 -22.333 482.001 -67c28 -7.33301 53.667 -15.666 77 -24.999c12.667 -5.33301 19 -10.333 19 -15
c0 -0.666992 -0.333008 -1.33398 -1 -2.00098c-0.666992 -1.33301 -9 1 -25 7c-25.333 9.33301 -48.666 16 -69.999 20c-157.333 30.667 -322.333 46 -495 46c-88 0 -165.667 -13.333 -233 -40c-78.667 -30.667 -123 -73.667 -133 -129c-4 -20.667 -1 -37 9 -49
c98 38 193.667 55.667 287 53c34 -0.666992 64 -7.33398 90 -20.001c28.667 -14.667 46.667 -34 54 -58c54.667 -2 101 -16.333 139 -43c146.667 138 248.667 210.667 306 218c6.66699 0.666992 12.334 0.666992 17.001 0c6 -0.666992 8.66699 -2.66699 8 -6l-25 -6
c-56.667 -13.333 -149.667 -90 -279 -230c19.333 -23.333 29 -50.666 29 -81.999c0 -19.333 -4 -39.333 -12 -60c43.333 50 84.333 93 123 129c100 93.333 188.667 162.666 266 207.999c117.333 68 235.333 102 354 102c30.667 0 60.667 -5 90 -15
c35.333 -11.333 58.666 -27 69.999 -47zM772 382.003c0.666992 6.66699 0 13.667 -2 21c-111.333 0 -226.333 -29.667 -345 -89c-48 -24 -92 -54 -132 -90c-50 -44 -77.333 -84.333 -82 -121c-2.66699 -22 3.33301 -40 18 -54s33 -21 55 -21c64 0 146.667 31.333 248 94
c60.667 37.333 114.334 80.333 161.001 129c49.333 52 75.666 95.667 78.999 131zM912 362.003c-30 22 -72.666 35.3301 -127.999 39.9971c1.33301 -9.33301 1.66602 -16.666 0.999023 -21.999c-3.33301 -40 -29.666 -86 -78.999 -138c-44 -47.333 -98.333 -91 -163 -131
c-102 -63.333 -187.333 -95 -256 -95c-27.333 0 -49.333 7.33301 -66 22c-18.667 16.667 -26.334 39.334 -23.001 68.001c4.66699 38.667 32.667 81.334 84 128.001c44.667 41.333 93.334 74.333 146.001 99c74 34.667 140.667 58 200 70c38.667 7.33301 85 11 139 11
c-16 42 -59 63 -129 63c-112.667 0 -232.667 -39.667 -360 -119c-65.333 -40.667 -119.333 -88.167 -162 -142.5s-64 -103.5 -64 -147.5c0 -54 21.333 -93.333 64 -118c33.333 -20 75.666 -29.333 126.999 -28c152.667 3.33301 348 123.333 586 360z" />
    <glyph glyph-name="afii10032" unicode="&#x41e;" horiz-adv-x="857" 
d="M1020 443c-26 -98 -97.9951 -175.334 -215.995 -232.001c-22.667 -26.667 -43.334 -48.334 -62.001 -65.001c-66.667 -61.333 -141.334 -112.333 -224.001 -153c-84.667 -41.333 -161 -63.333 -229 -66h-19c26 -23.333 64.333 -35 115 -35c74 0 138.667 26.667 194 80
c4 4 7.33301 5 10 3c2 -1.33301 1.66699 -4.66602 -1 -9.99902c-24.667 -24.667 -56.334 -45.5 -95.001 -62.5s-75.667 -25.5 -111 -25.5c-60.667 0 -105.334 17 -134.001 51c-98 10.667 -148.667 59.334 -152 146.001c-2.66699 70 31.333 151.667 102 245
c-9.33301 24.667 -14.333 51 -15 79c-2 72.667 26.667 136 86 190c63.333 58 143 87 239 87c61.333 0 112.666 -18 153.999 -54c69.333 18.667 133 26 191 22c52 -3.33301 93.333 -17 124 -41c34 -25.333 51 -60.333 51 -105c0 -16.667 -2.66699 -34.667 -8 -54z
M999.005 445.999c4.66699 18 6.99805 35 6.99805 51c0 40 -14.667 71.667 -44 95c-27.333 21.333 -63 33.333 -107 36c-48.667 2.66699 -106.667 -6.66602 -174 -27.999c14.667 -18.667 22.334 -37.667 23.001 -57c0.666992 -4.66699 -1 -7.66699 -5 -9
c-4 -0.666992 -6 2 -6 8c-5.33301 19.333 -14.333 37 -27 53c-96 -33.333 -188 -84.666 -276 -153.999c-60.667 -47.333 -114.667 -97 -162 -149c16 -28 39.333 -51.333 70 -70c38 51.333 94.667 107.666 170 168.999c54 43.333 114.333 78.666 181 105.999
c64.667 26.667 121.667 40 171 40c71.333 0 107 -29.667 107 -89c0 -51.333 -32.667 -120 -98 -206c90.667 53.333 147.334 121.333 170.001 204zM910.003 449.999c0 48 -29.668 72 -89.001 72c-97.333 0 -208.666 -50.333 -333.999 -151
c-70 -56.667 -126.333 -110.334 -169 -161.001c56 -30.667 126.333 -46 211 -46c82 0 159.333 14.667 232 44c99.333 100.667 149 181.334 149 242.001zM645.002 616.999c-36 29.333 -79.667 44 -131 44c-94 0 -172.333 -29 -235 -87c-56.667 -52 -84 -108.667 -82 -170
c0.666992 -25.333 4.66699 -49 12 -71c42.667 52 91 98.667 145 140c86 65.333 183 113.333 291 144zM736.002 182.999c-69.333 -22 -139.667 -33 -211 -33c-86 0 -158.333 16 -217 48c-36.667 -46.667 -59.667 -90 -69 -130c-4 -18 -6 -34.667 -6 -50
c0 -30.667 7.33301 -55.667 22 -75c8 -0.666992 17.333 -1 28 -1c64.667 0.666992 137.667 23 219 67c75.333 40.667 149 94.667 221 162c2.66699 2.66699 7 6.66699 13 12zM289.001 209.999c-28.667 18.667 -52.335 42.001 -71.002 70.001
c-67.333 -78.667 -100.666 -147 -99.999 -205c0.666992 -76.667 39.667 -120 117 -130c-12 20.667 -18 45 -18 73c0 17.333 2.33301 35.666 7 54.999c10.667 44 32.334 89.667 65.001 137z" />
    <glyph glyph-name="afii10033" unicode="&#x41f;" horiz-adv-x="1048" 
d="M1187 611c-146.667 30 -306.334 45.001 -479.001 45.001c-88 0 -165.667 -13.333 -233 -40c-78.667 -30.667 -123 -73.667 -133 -129c-4 -20.667 -1 -37 9 -49c98 38 193.667 55.667 287 53c34 -0.666992 64 -7.33398 90 -20.001c28.667 -14.667 46.667 -34 54 -58
c54.667 -2 101 -16.333 139 -43c58.667 62.667 147.334 143 266.001 241zM1333 501.001c-63.333 -48.667 -141.33 -121.331 -233.997 -217.998c-72.667 -76 -139.667 -156.333 -201 -241l-31 -43c-8.66699 -11.333 -16.334 -17.333 -23.001 -18
c-9.33301 -0.666992 -14 4.66602 -14 15.999c0 28.667 45 97.667 135 207c43.333 50 84.333 93 123 129c121.333 113.333 216 185.333 284 216c39.333 15.333 70 19.666 92 12.999c5.33301 -1.33301 9.66602 -4 12.999 -8s3.66602 -7.66699 0.999023 -11
c-1.33301 -2.66699 -6 -3.66699 -14 -3c-14 2.66699 -22 4 -24 4c-25.333 5.33301 -61 -9 -107 -43zM772.003 382.004c0.666992 6.66699 0 13.667 -2 21c-111.333 0 -226.333 -29.667 -345 -89c-48 -24 -92 -54 -132 -90c-50 -44 -77.333 -84.333 -82 -121
c-2.66699 -22 3.33301 -40 18 -54s33 -21 55 -21c64 0 146.667 31.333 248 94c60.667 37.333 114.334 80.333 161.001 129c49.333 52 75.666 95.667 78.999 131zM912.003 362.004c-30 22 -72.666 35.3301 -127.999 39.9971
c1.33301 -9.33301 1.66602 -16.666 0.999023 -21.999c-3.33301 -40 -29.666 -86 -78.999 -138c-44 -47.333 -98.333 -91 -163 -131c-102 -63.333 -187.333 -95 -256 -95c-27.333 0 -49.333 7.33301 -66 22c-18.667 16.667 -26.334 39.334 -23.001 68.001
c4.66699 38.667 32.667 81.334 84 128.001c44.667 41.333 93.334 74.333 146.001 99c74 34.667 140.667 58 200 70c38.667 7.33301 85 11 139 11c-16 42 -59 63 -129 63c-112.667 0 -232.667 -39.667 -360 -119c-65.333 -40.667 -119.333 -88.167 -162 -142.5
s-64 -103.5 -64 -147.5c0 -54 21.333 -93.333 64 -118c33.333 -20 75.666 -29.333 126.999 -28c152.667 3.33301 348 123.333 586 360zM1207 631.001c34.667 26 66 43.001 94 51.001c14.667 4 22 4 22 0c0.666992 -3.33301 -4.66602 -6.66602 -15.999 -9.99902
c-22.667 -6.66699 -47 -21.667 -73 -45c75.333 -8.66699 145 -14 209 -16c92.667 -2.66699 166.667 4 222 20c68.667 20 101 53 97 99c-2.66699 30 -20.667 43.667 -54 41c-3.33301 0 -7.66602 -0.666992 -12.999 -2c-2 -0.666992 -3 -0.333984 -3 0.999023
c0 5.33301 4.66699 9 14 11c5.33301 1.33301 11 2 17 2c40 0 61.667 -17.333 65 -52c4 -46 -32.333 -82 -109 -108c-66 -22 -144.667 -32.333 -236 -31c-62.667 1.33301 -140 6.33301 -232 15c-72.667 -65.333 -160.334 -152.333 -263.001 -261l-50 -55
c-122.667 -142.667 -249.334 -246 -380.001 -310c-92.667 -46 -182.334 -70.333 -269.001 -73c-57.333 -2 -105.666 8.66699 -144.999 32c-48 28 -71.667 71.667 -71 131c1.33301 118.667 72.333 223 213 313c24 15.333 55 31.666 93 48.999c-10.667 18 -14 37.667 -10 59
c13.333 68 65 120.333 155 157c71.333 28.667 150.333 43 237 43c150.667 0 312.667 -20.333 486 -61z" />
    <glyph glyph-name="afii10034" unicode="&#x420;" horiz-adv-x="833" 
d="M1410 608c-1.33301 -1.33301 -5.33105 0.663086 -11.998 5.99609c-8.66699 8 -15.334 13.333 -20.001 16c-29.333 16.667 -63 24.667 -101 24c-50 -0.666992 -99.333 -10.667 -148 -30c-29.333 -12 -52 -24 -68 -36c20 -25.333 30 -56.666 30 -93.999
c0 -34.667 -10 -66.667 -30 -96c-22.667 -33.333 -52.5 -60.833 -89.5 -82.5s-73.833 -32.5 -110.5 -32.5c-16 0 -30.167 1.33301 -42.5 4s-18.5 6.66699 -18.5 12c0 1.33301 0.666992 3 2 5c3.33301 4.66699 9.66602 4.66699 18.999 0c4.66699 -2.66699 12 -5.66699 22 -9
c63.333 -6.66699 125.333 33.666 186 120.999c24.667 36 37 70.667 37 104c0 23.333 -5.33301 43 -16 59c-48 -36.667 -99.333 -86 -154 -148l-114 -137c-175.333 -197.333 -331.666 -312 -468.999 -344c49.333 -76.667 122 -115.334 218 -116.001c44 0 78 10.333 102 31
c9.33301 8 15.333 11.333 18 10c4.66699 -2.66699 2 -8.33398 -8 -17.001c-28 -24 -66 -36 -114 -36c-49.333 0 -94.5 11.167 -135.5 33.5s-73.167 52.833 -96.5 91.5c-33.333 -7.33301 -70 -10.666 -110 -9.99902c-46 0.666992 -84.333 13.334 -115 38.001
c-37.333 29.333 -56 71 -56 125c0 94 36 180.667 108 260c56 61.333 122 111.333 198 150s144.333 57.334 205 56.001c104 65.333 219.333 98 346 98c79.333 0 139 -22 179 -66c72.667 46.667 147.667 70.334 225 71.001c59.333 0.666992 101.666 -10.666 126.999 -33.999
c6 -5.33301 9.33301 -10.666 10 -15.999c1.33301 -6 0 -9.66699 -4 -11zM1040 590.996c-39.333 36 -95.002 54.001 -167.002 54.001c-105.333 0 -206 -28.667 -302 -86c26.667 -8 48 -21.667 64 -41c17.333 -22 25.333 -48 24 -78c-4 -86.667 -56.333 -170.667 -157 -252
c-79.333 -64 -156 -102.667 -230 -116c0.666992 -4 1.33398 -10 2.00098 -18c4.66699 -30 14.334 -58.333 29.001 -85c65.333 22 136 65 212 129c54.667 46 122.334 112.667 203.001 200c67.333 72.667 118.666 126 153.999 160c60 57.333 116 101.666 168 132.999z
M643 441.997c2 28.667 -6 53 -24 73c-16 17.333 -37 29 -63 35c-35.333 -22.667 -67 -46.667 -95 -72c-60 -54.667 -107 -116.334 -141 -185.001c-35.333 -71.333 -51.666 -139.333 -48.999 -204c62 18.667 132.667 60.334 212 125.001
c101.333 83.333 154.666 159.333 159.999 228zM508 552.997c-58.667 -2.66699 -122.999 -26.9951 -192.999 -72.9951c-62 -41.333 -117.667 -92 -167 -152c-76 -92.667 -114 -168.667 -114 -228c0 -51.333 17 -90 51 -116c27.333 -21.333 62.333 -32.333 105 -33
c30.667 -0.666992 63 3.66602 97 12.999c-16.667 31.333 -26.667 66.333 -30 105c-16.667 -1.33301 -30.334 -1.66602 -41.001 -0.999023c-26 1.33301 -46 8.66602 -60 21.999s-21 29.666 -21 48.999c0 12.667 3 25 9 37c7.33301 9.33301 12 13.666 14 12.999
s1.33301 -4.33398 -2 -11.001c-6.66699 -12 -10 -24.333 -10 -37c0 -16.667 5.5 -30.667 16.5 -42s26.167 -17.333 45.5 -18c13.333 -0.666992 29 0.666016 47 3.99902c-4 77.333 12.667 155.333 50 234c34 70.667 80 132 138 184c17.333 16 39 32.667 65 50z" />
    <glyph glyph-name="afii10035" unicode="&#x421;" horiz-adv-x="913" 
d="M1305 543c-1.33301 -19.333 -13.6699 -29.3359 -37.0029 -30.0029c-25.333 -0.666992 -78 10.333 -158 33c-58 16.667 -111.667 29 -161 37c-142 -48.667 -269.667 -123 -383 -223c-76 -67.333 -139.333 -135.333 -190 -204c-54 -74 -83.333 -135.333 -88 -184
c30.667 0.666992 64 7 100 19c34.667 73.333 88.667 150 162 230c55.333 60.667 115.666 110.334 180.999 149.001c68.667 41.333 126.334 60.666 173.001 57.999c20.667 -1.33301 37.334 -8.66602 50.001 -21.999c14.667 -16 20.667 -37 18 -63
c-3.33301 -38 -27 -86 -71 -144c-40.667 -53.333 -88.334 -102.666 -143.001 -147.999c-60 -49.333 -123 -90.333 -189 -123c-76 -37.333 -143.333 -56 -202 -56l-3 -18c-2 -28.667 5 -51 21 -67c13.333 -13.333 31 -20 53 -20c51.333 0 96.333 22.333 135 67
c9.33301 10.667 15 15.667 17 15c6.66699 -2 3.66699 -10.333 -9 -25c-41.333 -47.333 -90 -71 -146 -71c-26 0 -47 8 -63 24c-18.667 18 -26.667 44.333 -24 79c0.666992 6 1.33398 11.667 2.00098 17c-59.333 4.66699 -93 32.667 -101 84c-61.333 4 -109 23.667 -143 59
c-36 37.333 -53.333 88.333 -52 153c0.666992 54.667 16.667 111.334 48 170.001c34 64 79.667 118.667 137 164c120 94 266.333 141 439 141c90.667 0 181 -12 271 -36c70.667 18 136.334 27 197.001 27c46.667 0 85.334 -8.33301 116.001 -25s45 -39 43 -67zM1292 547.997
c1.33301 22.667 -13.333 41 -44 55c-28 12.667 -62.333 19 -103 19c-44.667 0 -95.667 -8.66699 -153 -26l121 -36l74 -22c32.667 -8.66699 58.667 -12.667 78 -12c17.333 0.666992 26.333 8 27 22zM955.997 342.997c2 21.333 -2.33301 38.3311 -13 50.998
s-24.334 19.334 -41.001 20.001c-43.333 2.66699 -98.333 -17.333 -165 -60c-62 -38.667 -119.667 -87.334 -173 -146.001c-66 -72 -116.667 -141.667 -152 -209c44 15.333 87.667 37.333 131 66c56 36.667 100.667 74.334 134 113.001c10.667 12.667 18.667 26 24 40
c2.66699 6.66699 5 10 7 10c4 0 5.33301 -5 4 -15c-5.33301 -17.333 -15 -34 -29 -50c-36.667 -42 -80 -79.667 -130 -113c-44 -29.333 -94.333 -53.333 -151 -72c-16 -32 -27 -62 -33 -90c102.667 0 228 62 376 186c52.667 44 99.334 91 140.001 141
c44 54.667 67.667 97.334 71 128.001zM893.997 591.995c-73.333 10.667 -144.667 16 -214 16c-78 0 -156 -11.333 -234 -34c-80.667 -22.667 -146 -53.334 -196 -92.001c-56 -43.333 -100.667 -94.333 -134 -153c-30.667 -54.667 -46.334 -107 -47.001 -157
c-0.666992 -59.333 14.833 -106.166 46.5 -140.499s75.834 -54.166 132.501 -59.499c-0.666992 59.333 25 127.333 77 204c44 64 99.333 125.333 166 184c120.667 105.333 255 182.666 403 231.999zM378.996 -28.0049c-31.333 -8 -61.668 -13 -91.001 -15
c3.33301 -38 25 -60.333 65 -67c4.66699 24 13.334 51.333 26.001 82z" />
    <glyph glyph-name="afii10036" unicode="&#x422;" horiz-adv-x="1264" 
d="M1181 206c43.333 50 84.335 93.0029 123.002 129.003c100 93.333 188.667 162.666 266 207.999c117.333 68 235.333 102 354 102c30.667 0 60.667 -5 90 -15c35.333 -11.333 58.666 -27 69.999 -47c2.66699 -4.66699 4 -9.66699 4 -15
c-0.666992 -5.33301 -3 -8.33301 -7 -9c-2.66699 -0.666992 -6.66699 2 -12 8c-8.66699 11.333 -13.667 17.666 -15 18.999c-29.333 29.333 -74.333 44 -135 44c-118.667 0 -239.667 -43 -363 -129c-68 -47.333 -148.333 -119.333 -241 -216
c-72.667 -76 -139.667 -156.333 -201 -241l-31 -43c-8.66699 -11.333 -16.334 -17.333 -23.001 -18c-9.33301 -0.666992 -14 4.66602 -14 15.999c0 28.667 45 97.667 135 207zM1187 611.003c-146.667 30 -306.334 45.001 -479.001 45.001c-88 0 -165.667 -13.333 -233 -40
c-78.667 -30.667 -123 -73.667 -133 -129c-4 -20.667 -1 -37 9 -49c98 38 193.667 55.667 287 53c34 -0.666992 64 -7.33398 90 -20.001c28.667 -14.667 46.667 -34 54 -58c54.667 -2 101 -16.333 139 -43c58.667 62.667 147.334 143 266.001 241zM772.002 382.004
c0.666992 6.66699 0 13.667 -2 21c-111.333 0 -226.333 -29.667 -345 -89c-48 -24 -92 -54 -132 -90c-50 -44 -77.333 -84.333 -82 -121c-2.66699 -22 3.33301 -40 18 -54s33 -21 55 -21c64 0 146.667 31.333 248 94c60.667 37.333 114.334 80.333 161.001 129
c49.333 52 75.666 95.667 78.999 131zM912.002 362.004c-30 22 -72.666 35.3301 -127.999 39.9971c1.33301 -9.33301 1.66602 -16.666 0.999023 -21.999c-3.33301 -40 -29.666 -86 -78.999 -138c-44 -47.333 -98.333 -91 -163 -131c-102 -63.333 -187.333 -95 -256 -95
c-27.333 0 -49.333 7.33301 -66 22c-18.667 16.667 -26.334 39.334 -23.001 68.001c4.66699 38.667 32.667 81.334 84 128.001c44.667 41.333 93.334 74.333 146.001 99c74 34.667 140.667 58 200 70c38.667 7.33301 85 11 139 11c-16 42 -59 63 -129 63
c-112.667 0 -232.667 -39.667 -360 -119c-65.333 -40.667 -119.333 -88.167 -162 -142.5s-64 -103.5 -64 -147.5c0 -54 21.333 -93.333 64 -118c33.333 -20 75.666 -29.333 126.999 -28c152.667 3.33301 348 123.333 586 360zM1207 631.001c34.667 26 66 43.001 94 51.001
c14.667 4 22 4 22 0c0.666992 -3.33301 -4.66602 -6.66602 -15.999 -9.99902c-22.667 -6.66699 -47 -21.667 -73 -45c75.333 -8.66699 145 -14 209 -16c92.667 -2.66699 166.667 4 222 20c68.667 20 101 53 97 99c-2.66699 30 -20.667 43.667 -54 41
c-3.33301 0 -7.66602 -0.666992 -12.999 -2c-2 -0.666992 -3 -0.333984 -3 0.999023c0 5.33301 4.66699 9 14 11c5.33301 1.33301 11 2 17 2c40 0 61.667 -17.333 65 -52c4 -46 -32.333 -82 -109 -108c-66 -22 -144.667 -32.333 -236 -31
c-62.667 1.33301 -140 6.33301 -232 15c-72.667 -65.333 -160.334 -152.333 -263.001 -261l-50 -55c-122.667 -142.667 -249.334 -246 -380.001 -310c-92.667 -46 -182.334 -70.333 -269.001 -73c-57.333 -2 -105.666 8.66699 -144.999 32c-48 28 -71.667 71.667 -71 131
c1.33301 118.667 72.333 223 213 313c24 15.333 55 31.666 93 48.999c-10.667 18 -14 37.667 -10 59c13.333 68 65 120.333 155 157c71.333 28.667 150.333 43 237 43c150.667 0 312.667 -20.333 486 -61zM1333 501.002c-63.333 -48.667 -141.33 -121.331 -233.997 -217.998
c-72.667 -76 -139.667 -156.333 -201 -241l-31 -43c-8.66699 -11.333 -16.334 -17.333 -23.001 -18c-9.33301 -0.666992 -14 4.66602 -14 15.999c0 28.667 45 97.667 135 207c43.333 50 84.333 93 123 129c121.333 113.333 216 185.333 284 216
c39.333 15.333 70 19.666 92 12.999c5.33301 -1.33301 9.66602 -4 12.999 -8s3.66602 -7.66699 0.999023 -11c-1.33301 -2.66699 -6 -3.66699 -14 -3c-14 2.66699 -22 4 -24 4c-25.333 5.33301 -61 -9 -107 -43z" />
    <glyph glyph-name="afii10037" unicode="&#x423;" horiz-adv-x="963" 
d="M1730 585c-1.33301 -1.33301 -3.66992 0.00195312 -7.00293 4.00195c-31.333 36 -82.666 55.667 -153.999 59c-99.333 4.66699 -204.666 -36.333 -315.999 -123c-68.667 -53.333 -161.667 -150.333 -279 -291c-71.333 -86 -122 -145.333 -152 -178
c-54 -60 -102.333 -107.333 -145 -142c-169.333 -137.333 -335.333 -206 -498 -206c-72.667 0 -128.667 13.167 -168 39.5s-59 63.5 -59 111.5c0 12 1.33301 24.333 4 37c3.33301 18 11 37.667 23 59c14 26 30 46 48 60c-3.33301 16.667 -5 37.667 -5 63
c0 58.667 15.667 121 47 187c36 74.667 85.667 139.334 149 194.001c70.667 60.667 154 109.667 250 147c104.667 40 209.667 60 315 60c62.667 0 122 -7.33301 178 -22c6.66699 14 10.667 26.667 12 38c10 -12.667 15 -27.667 15 -45
c12 -4.66699 27.333 -11.334 46 -20.001c14.667 -9.33301 19 -16.333 13 -21c-1.33301 -1.33301 -6.66602 1 -15.999 7c-12 7.33301 -26.667 13.666 -44 18.999c-4.66699 -26.667 -12.667 -49 -24 -67c-48.667 -76 -127 -167.667 -235 -275c1.33301 -16 2 -28 2 -36
c0 -36.667 -5.66699 -72.667 -17 -108l137 107l172 139c84.667 67.333 159 122.666 223 165.999c130.667 89.333 240 134 328 134c76 0 128.333 -28.667 157 -86c2.66699 -5.33301 2.66699 -9 0 -11zM953.996 630.002c-50 10.667 -108.333 15.665 -175 14.998
c-96.667 -1.33301 -195.334 -23 -296.001 -65c-90.667 -38.667 -170.334 -88 -239.001 -148c-63.333 -55.333 -113.666 -116 -150.999 -182c-35.333 -63.333 -53 -120.666 -53 -171.999c0 -72 19.667 -127.333 59 -166s93 -58 161 -58c86.667 0 168.167 21.5 244.5 64.5
s132.833 99.5 169.5 169.5c-84 -57.333 -158.667 -98 -224 -122c-24 -8.66699 -43.333 -13 -58 -13c-23.333 0 -35 8.33301 -35 25s20.333 43.667 61 81l143 128c56.667 50.667 102.334 95 137.001 133c-16 38 -42.667 68.667 -80 92c-34.667 20.667 -70.334 31 -107.001 31
c-72 0 -130.667 -23.667 -176 -71c-19.333 -20.667 -32.666 -42 -39.999 -64c-2.66699 -8 -5 -11.667 -7 -11c-5.33301 1.33301 -6.33301 5 -3 11c6 26 19.667 50.667 41 74c46.667 50.667 107.667 76 183 76c42.667 0 82.5 -11.167 119.5 -33.5s64.5 -52.5 82.5 -90.5
c72 76.667 132.667 145.667 182 207c26.667 32.667 47 62.334 61 89.001zM712.996 243l0.00195312 22.999l-45 -43c-26.667 -25.333 -98.334 -88.333 -215.001 -189c-28 -24 -41.333 -40.333 -40 -49c1.33301 -6 6.33301 -9 15 -9c10 0 23.333 3.66699 40 11
c71.333 32 144.666 75.667 219.999 131c16.667 40.667 25 82.334 25 125.001zM1143 449.999c-40 -29.333 -86.3301 -65.334 -138.997 -108.001l-106 -87l-196 -149c-34.667 -79.333 -92.834 -143.666 -174.501 -192.999s-170.834 -74 -267.501 -74
c-126 0 -202.667 54.667 -230 164c-28.667 -28 -47.334 -63.333 -56.001 -106c-2.66699 -12 -4 -23.667 -4 -35c0 -90 70.333 -135 211 -135c138 0 292 72 462 216c60 50.667 142 130.667 246 240z" />
    <glyph glyph-name="afii10038" unicode="&#x424;" horiz-adv-x="912" 
d="M508 553c-58.667 -2.66699 -122.999 -26.9951 -192.999 -72.9951c-62 -41.333 -117.667 -92 -167 -152c-76 -92.667 -114 -168.667 -114 -228c0 -51.333 17 -90 51 -116c27.333 -21.333 62.333 -32.333 105 -33c30.667 -0.666992 63 3.66602 97 12.999
c-16.667 31.333 -26.667 66.333 -30 105c-16.667 -1.33301 -30.334 -1.66602 -41.001 -0.999023c-26 1.33301 -46 8.66602 -60 21.999s-21 29.666 -21 48.999c0 12.667 3 25 9 37c7.33301 9.33301 12 13.666 14 12.999s1.33301 -4.33398 -2 -11.001
c-6.66699 -12 -10 -24.333 -10 -37c0 -16.667 5.5 -30.667 16.5 -42s26.167 -17.333 45.5 -18c13.333 -0.666992 29 0.666016 47 3.99902c-4 77.333 12.667 155.333 50 234c34 70.667 80 132 138 184c17.333 16 39 32.667 65 50zM639.001 213.005
c-28 8.66699 -47.668 21.667 -59.001 39c-130.667 -110.667 -233.334 -170.667 -308.001 -180c0.666992 -4 1.33398 -10 2.00098 -18c4.66699 -30 14.334 -58.333 29.001 -85c65.333 22 136 65 212 129c36.667 30.667 78 69 124 115zM604 533.005
c-12 9.33301 -28.002 15.001 -48.002 17.001c-35.333 -22.667 -67 -46.667 -95 -72c-60 -54.667 -107 -116.334 -141 -185.001c-35.333 -71.333 -51.666 -139.333 -48.999 -204c62 18.667 158.333 81.667 289 189c-37.333 91.333 -22.666 176.333 44.001 255zM1003 568.006
c-32.667 36 -91.332 51.998 -175.999 47.998c-71.333 -5.33301 -131.333 -36.666 -180 -93.999c50 -73.333 39 -153.666 -33 -240.999c6 -16 20.667 -31.667 44 -47l75 80c57.333 62 103.666 110 138.999 144c60 57.333 103.667 94 131 110zM1017 578.004
c73.333 54 145.666 83.333 216.999 88c-93.333 16 -182.333 24 -267 24c-83.333 2.66699 -178.666 -20.333 -285.999 -69c-35.333 -14 -73 -35.333 -113 -64c22.667 -3.33301 38 -8 46 -14c61.333 58 132.333 88.667 213 92c82.667 5.33301 146 -13.667 190 -57z
M1030 564.004c31.333 -35.333 48.668 -78.334 52.001 -129.001c0 -34.667 -12.333 -71.667 -37 -111c-22.667 -33.333 -55 -63.333 -97 -90s-86.333 -40 -133 -40c-16 0 -32.667 1.33301 -50 4s-26 6.66699 -26 12c0 1.33301 0.666992 3 2 5
c13.333 4.66699 24.666 4.66699 33.999 0c4.66699 -2.66699 12 -5.66699 22 -9c73.333 -6.66699 145.333 38.666 216 135.999c24.667 46 37 85.667 37 119s-11 64.333 -33 93c-24.667 -16 -65 -57 -121 -123l-114 -137c-175.333 -197.333 -331.666 -312 -468.999 -344
c49.333 -76.667 122 -115.334 218 -116.001c44 0 78 10.333 102 31c9.33301 8 15.333 11.333 18 10c4.66699 -2.66699 2 -8.33398 -8 -17.001c-28 -24 -66 -36 -114 -36c-49.333 0 -94.5 11.167 -135.5 33.5s-73.167 52.833 -96.5 91.5
c-33.333 -7.33301 -70 -10.666 -110 -9.99902c-46 0.666992 -84.333 13.334 -115 38.001c-37.333 29.333 -56 71 -56 125c0 94 36 180.667 108 260c56 61.333 122 111.333 198 150s144.333 57.334 205 56.001c51.333 36.667 96.333 62.667 135 78c107.333 48 209 71 305 69
c93.333 0 192.333 -14.333 297 -43c68 0 114.667 -11.667 140 -35c6 -5.33301 9.33301 -10.666 10 -15.999c1.33301 -6 0 -9.66699 -4 -11c-1.33301 -1.33301 -5.33301 0.666992 -12 6c-8.66699 8 -15.334 13.333 -20.001 16c-29.333 16.667 -63 24.667 -101 24
c-50 -0.666992 -99.333 -10.667 -148 -30c-34.667 -16.667 -67.667 -36.667 -99 -60zM636.002 510.003c-42.667 -63.333 -55 -130 -37 -200c58 75.333 70.333 142 37 200z" />
    <glyph glyph-name="afii10039" unicode="&#x425;" horiz-adv-x="961" 
d="M1721 612c5.33301 -8.66699 4.33105 -13.333 -3.00195 -14l-12 11c-28.667 28 -75 42 -139 42c-57.333 0 -128.666 -24.667 -213.999 -74c-82 -48 -170 -114.667 -264 -200c-122 -111.333 -211.333 -212.333 -268 -303c-25.333 -41.333 -40.333 -76.333 -45 -105
c0.666992 -9.33301 -0.333008 -19 -3 -29c-8 -2.66699 -12.333 7 -13 29c-1.33301 30 5.66699 62 21 96c50.667 112.667 141.334 227 272.001 343c202.667 180 380 266 532 258c70 -4 115.333 -22 136 -54zM997.998 453.001
c-23.333 -80 -81.6689 -165.331 -175.002 -255.998c-166 -160.667 -319.667 -268 -461 -322c49.333 -44 111.666 -66 186.999 -66c40.667 0 82 7.83301 124 23.5s77.333 36.834 106 63.501c12 11.333 23.667 25.666 35 42.999
c4.66699 6.66699 8.33398 9.33398 11.001 8.00098c5.33301 -2 5.33301 -7 0 -15c-6 -13.333 -18.333 -28.666 -37 -45.999c-62.667 -59.333 -142.667 -89 -240 -89c-83.333 0 -151.333 23.667 -204 71c-69.333 -23.333 -136 -35 -200 -35c-47.333 0 -87.666 12 -120.999 36
c-40.667 29.333 -61 72 -61 128c0 60 19.333 123.667 58 191c36 63.333 85.333 123 148 179c53.333 48 114.833 90.167 184.5 126.5s133.834 59.166 192.501 68.499c102 69.333 199.667 101.666 293 96.999c52 -2.66699 93 -17.834 123 -45.501s45 -62.834 45 -105.501
c0 -18 -2.66699 -36.333 -8 -55zM967.995 468.003c3.33301 13.333 5.00195 26.667 5.00195 40c0 36 -11.333 66.333 -34 91c-24.667 26 -58.334 39.667 -101.001 41c-83.333 2.66699 -169 -22 -257 -74c15.333 0 26.666 -0.333008 33.999 -1
c79.333 -7.33301 119 -51.333 119 -132c0 -52 -19.333 -109.667 -58 -173c-34 -54.667 -74 -101.334 -120 -140.001c-90.667 -75.333 -179 -122.333 -265 -141c11.333 -30 28.666 -59 51.999 -87c154.667 64.667 306.334 173.334 455.001 326.001
c96 98 152.667 181.333 170 250zM714.997 403.004c2 12 3 23.332 3 33.999c0 35.333 -10.667 63.333 -32 84c-18.667 18.667 -43.667 29 -75 31c-18.667 1.33301 -38 0 -58 -4c-60 -41.333 -110 -87.666 -150 -138.999c-86.667 -111.333 -130 -221.333 -130 -330
c0 -26.667 4.33301 -55.334 13 -86.001c72.667 20.667 156.334 70.334 251.001 149.001c103.333 86 162.666 173 177.999 261zM511.997 538.003c-96 -30 -203.004 -97.668 -321.004 -203.001c-60.667 -54 -110 -110.333 -148 -169c-41.333 -64 -62 -120.333 -62 -169
c0 -51.333 18 -90.333 54 -117c28.667 -20.667 65.334 -31.667 110.001 -33c50.667 -1.33301 111.334 11.667 182.001 39c-25.333 28 -43.333 58 -54 90c-15.333 -2.66699 -30.666 -4 -45.999 -4c-28 0 -50 7.66699 -66 23c-14 13.333 -21 30 -21 50
c0 10 1.66699 19.333 5 28c6.66699 10.667 11 15.667 13 15c1.33301 -0.666992 0.666016 -5.16699 -2.00098 -13.5s-4 -17.166 -4 -26.499c0 -18 6.83301 -33.167 20.5 -45.5s31.834 -18.5 54.501 -18.5c10.667 0 24.334 1.66699 41.001 5c-8.66699 26.667 -13 59 -13 97
c0 108 42 216.333 126 325c36 46.667 79.667 89 131 127z" />
    <glyph glyph-name="afii10040" unicode="&#x426;" horiz-adv-x="990" 
d="M293 -142c125.333 -2 242.998 47.6631 352.998 148.996c28 26 53.333 54 76 84c-48 -34.667 -82.667 -59 -104 -73c-86 -54.667 -146.333 -82 -181 -82c-16.667 0 -30.167 5.33301 -40.5 16s-15.5 23.334 -15.5 38.001c0 29.333 17.333 69 52 119
c49.333 70.667 127.333 151 234 241c24.667 20.667 53.334 43.334 86.001 68.001c-32 34 -77.333 51 -136 51c-41.333 0 -82.833 -11 -124.5 -33s-73.167 -49.167 -94.5 -81.5s-33.666 -59.5 -36.999 -81.5c-1.33301 -6.66699 -3.66602 -10 -6.99902 -10s-5 3.33301 -5 10
c3.33301 28.667 16.666 60 39.999 94c22 32 53.667 59.333 95 82c44 24 88.667 36 134 36c63.333 0 112.333 -19.333 147 -58c108 80.667 195.333 138 262 172c-77.333 14.667 -158.666 22 -243.999 22c-148.667 0 -298.334 -49.667 -449.001 -149
c-84 -55.333 -153 -121.666 -207 -198.999c-52.667 -74 -79.667 -140.667 -81 -200c-2 -67.333 19 -119.666 63 -156.999c40 -34 95.333 -52.333 166 -55c8 26 27.667 50.333 59 73c11.333 6.66699 18.333 8 21 4c2 -2.66699 -2 -8 -12 -16c-26 -22 -42.667 -43.333 -50 -64
zM288.998 -154.004c-2.66699 -9.33301 -4.00195 -20.667 -4.00195 -34c0 -25.333 11 -45.5 33 -60.5s49.667 -22.5 83 -22.5c100 0 213.667 54 341 162c28.667 24 51.334 45.333 68.001 64c-32 4 -48 16 -48 36c0 18.667 7 40 21 64c24.667 43.333 80.334 109 167.001 197
c20.667 21.333 46.667 45 78 71l-3 4l-96 -75l-169 -132c-26 -42.667 -60 -83.667 -102 -123c-111.333 -104.667 -234.333 -155 -369 -151zM793.996 269.995c2 42.667 -3.33398 78.665 -16.001 107.998l-109 -89c-78 -65.333 -143.333 -133.666 -196 -204.999
c-36.667 -49.333 -55 -85.333 -55 -108c0 -14.667 9.33301 -22 28 -22c28.667 0 83.334 27 164.001 81c41.333 27.333 88.333 61 141 101c26.667 46.667 41 91.334 43 134.001zM269.995 -154.007c-74 3.33301 -133.331 24.0039 -177.998 62.0039
c-48 40.667 -71 95.667 -69 165c2 70.667 29 145 81 223c54 80.667 124.667 149.667 212 207c139.333 92 295 138 467 138c84.667 0 172 -11 262 -33c4.66699 1.33301 10.667 3.33301 18 6s12 3 14 1c1.33301 -1.33301 1.33301 -5.33301 0 -12
c0 -0.666992 -0.666992 -2.33398 -2 -5.00098c17.333 -4.66699 32.666 -10.667 45.999 -18c9.33301 -4.66699 12.333 -9.33398 9 -14.001c-1.33301 -1.33301 -5 -0.333008 -11 3l-6 3c-10 5.33301 -24.333 10.666 -43 15.999c-2 -2.66699 -7.66699 -7.66699 -17 -15
s-22.333 -16 -39 -26c-54 -33.333 -128.333 -86.333 -223 -159c16 -34 22.667 -72.667 20 -116c-2.66699 -38 -12.667 -75.667 -30 -113l102 79l341 250c38.667 38.667 69.334 68 92.001 88c32.667 29.333 55.667 44 69 44c9.33301 0 14 -5 14 -15c0 -12 -9 -26 -27 -42
c-26 -24 -70.667 -53.667 -134 -89l-82 -77l-153 -148c-72.667 -72.667 -134.334 -147 -185.001 -223c-22 -39.333 -12.333 -61 29 -65c18 -3.33301 -6.33301 -34.333 -73 -93c-128.667 -103.333 -252.334 -155 -371.001 -155c-40.667 0 -73.5 8.66699 -98.5 26
s-37.5 41.666 -37.5 72.999c0 14.667 1 26 3 34z" />
    <glyph glyph-name="afii10041" unicode="&#x427;" horiz-adv-x="990" 
d="M794 184c-42 -84 -87.334 -146.33 -136.001 -186.997c-111.333 -104.667 -240.666 -154.667 -387.999 -150c-74 2.66699 -133.333 23 -178 61c-48 40.667 -71 95.667 -69 165c2 70.667 29 145 81 223c54 80.667 124.667 149.667 212 207c139.333 92 295 138 467 138
c84.667 0 172 -11 262 -33c4.66699 1.33301 10.667 3.33301 18 6s12 3 14 1c1.33301 -1.33301 1.33301 -5.33301 0 -12c0 -0.666992 -0.666992 -2.33398 -2 -5.00098c17.333 -4.66699 32.666 -10.667 45.999 -18c9.33301 -4.66699 12.333 -9.33398 9 -14.001
c-1.33301 -1.33301 -5 -0.333008 -11 3l-6 3c-10 5.33301 -24.333 10.666 -43 15.999c-2 -2.66699 -7.66699 -7.66699 -17 -15s-22.333 -16 -39 -26c-54 -33.333 -128.333 -86.333 -223 -159c16 -34 22.667 -72.667 20 -116c0 -20 -4 -42.333 -12 -67l50 34l375 249
c38.667 38.667 69.334 68 92.001 88c32.667 29.333 55.667 44 69 44c9.33301 0 14 -5 14 -15c0 -12 -9 -26 -27 -42c-26 -24 -70.667 -53.667 -134 -89l-82 -77l-153 -148c-72.667 -72.667 -134.334 -147 -185.001 -223c-16.667 -24.667 -29 -45.667 -37 -63
c-12.667 -1.33301 -19 8 -19 28c0 18.667 7 40 21 64c24.667 43.333 80.334 109 167.001 197c20.667 21.333 46.667 45 78 71l-3 4l-168 -105zM771.999 173.003c-38 -19.333 -67.002 -31.333 -87.002 -36c-19.333 -4 -37.666 -2.33301 -54.999 5s-27 26.333 -29 57
c4 44 27.667 90.667 71 140c27.333 32.667 54.333 59 81 79c-32 34 -77.333 51 -136 51c-41.333 0 -82.833 -11 -124.5 -33s-73.167 -49.167 -94.5 -81.5s-33.666 -59.5 -36.999 -81.5c-1.33301 -6.66699 -3.66602 -10 -6.99902 -10s-5 3.33301 -5 10
c3.33301 28.667 16.666 60 39.999 94c22 32 53.667 59.333 95 82c44 24 88.667 36 134 36c63.333 0 112.333 -19.333 147 -58c108 80.667 195.333 138 262 172c-77.333 14.667 -158.666 22 -243.999 22c-148.667 0 -298.334 -49.667 -449.001 -149
c-84 -55.333 -153 -121.666 -207 -198.999c-52.667 -74 -79.667 -140.667 -81 -200c-2 -67.333 19 -119.666 63 -156.999c40 -34 93.667 -52 161 -54c140.667 -4.66699 266 43.666 376 144.999c45.333 41.333 87.333 96.666 126 165.999zM779.997 195.003
c9.33301 27.333 13.999 52.334 13.999 75.001c2 42.667 -3.33301 78.667 -16 108c-26.667 -18.667 -54.667 -43.334 -84 -74.001c-30 -33.333 -49.333 -66.333 -58 -99c-2 -37.333 14.333 -53 49 -47c20.667 0 52.334 12.333 95.001 37z" />
    <glyph glyph-name="afii10042" unicode="&#x428;" horiz-adv-x="1372" 
d="M836 61c-24 -33.333 -36.002 -61.3301 -36.002 -83.9971c0 -14.667 9.33301 -22 28 -22c28.667 0 83.334 27 164.001 81c41.333 27.333 88.333 61 141 101l132 102l341 250c38.667 38.667 69.334 68 92.001 88c32.667 29.333 55.667 44 69 44c9.33301 0 14 -5 14 -15
c0 -12 -9 -26 -27 -42c-26 -24 -70.667 -53.667 -134 -89l-82 -77l-153 -148c-72.667 -72.667 -134.334 -147 -185.001 -223c-16.667 -24.667 -29 -45.667 -37 -63c-12.667 -1.33301 -19 8 -19 28c0 18.667 7 40 21 64c24.667 43.333 80.334 109 167.001 197
c20.667 21.333 46.667 45 78 71l-3 4l-96 -75l-194 -151c-56.667 -41.333 -95.667 -69 -117 -83c-86 -54.667 -146.333 -82 -181 -82c-16.667 0 -30.167 5.33301 -40.5 16s-15.5 23.334 -15.5 38.001c0 29.333 14 63 42 101c36.667 46.667 85 100 145 160
c20.667 21.333 46.667 45 78 71l-3 4l-96 -75l-169 -132c-26 -42.667 -60 -83.667 -102 -123c-111.333 -104.667 -240.666 -154.667 -387.999 -150c-74 2.66699 -133.333 23 -178 61c-48 40.667 -71 95.667 -69 165c2 70.667 29 145 81 223
c54 80.667 124.667 149.667 212 207c139.333 92 295 138 467 138c84.667 0 172 -11 262 -33c4.66699 1.33301 10.667 3.33301 18 6s12 3 14 1c1.33301 -1.33301 1.33301 -5.33301 0 -12c0 -0.666992 -0.666992 -2.33398 -2 -5.00098
c17.333 -4.66699 32.666 -10.667 45.999 -18c9.33301 -4.66699 12.333 -9.33398 9 -14.001c-1.33301 -1.33301 -5 -0.333008 -11 3l-6 3c-10 5.33301 -24.333 10.666 -43 15.999c-2 -2.66699 -7.66699 -7.66699 -17 -15s-22.333 -16 -39 -26
c-54 -33.333 -128.333 -86.333 -223 -159c16 -34 22.667 -72.667 20 -116c-2.66699 -38 -12.667 -75.667 -30 -113l102 79l341 250c38.667 38.667 69.334 68 92.001 88c32.667 29.333 55.667 44 69 44c9.33301 0 14 -5 14 -15c0 -12 -9 -26 -27 -42
c-26 -24 -70.667 -53.667 -134 -89l-82 -77l-153 -148c-72.667 -72.667 -128.334 -135.334 -167.001 -188.001zM1027 599.003c-77.333 14.667 -158.668 21.9971 -244.001 21.9971c-148.667 0 -298.334 -49.667 -449.001 -149c-84 -55.333 -153 -121.666 -207 -198.999
c-52.667 -74 -79.667 -140.667 -81 -200c-2 -67.333 19 -119.666 63 -156.999c40 -34 93.667 -52 161 -54c140.667 -4.66699 266 43.666 376 144.999c28 26 53.333 54 76 84c-48 -34.667 -82.667 -59 -104 -73c-86 -54.667 -146.333 -82 -181 -82
c-16.667 0 -30.167 5.33301 -40.5 16s-15.5 23.334 -15.5 38.001c0 29.333 17.333 69 52 119c49.333 70.667 127.333 151 234 241c24.667 20.667 53.334 43.334 86.001 68.001c-32 34 -77.333 51 -136 51c-41.333 0 -82.833 -11 -124.5 -33s-73.167 -49.167 -94.5 -81.5
s-33.666 -59.5 -36.999 -81.5c-1.33301 -6.66699 -3.66602 -10 -6.99902 -10s-5 3.33301 -5 10c3.33301 28.667 16.666 60 39.999 94c22 32 53.667 59.333 95 82c44 24 88.667 36 134 36c63.333 0 112.333 -19.333 147 -58c108 80.667 195.333 138 262 172zM793.996 270
c2 42.667 -3.33398 78.665 -16.001 107.998l-109 -89c-78 -65.333 -143.333 -133.666 -196 -204.999c-36.667 -49.333 -55 -85.333 -55 -108c0 -14.667 9.33301 -22 28 -22c28.667 0 83.334 27 164.001 81c41.333 27.333 88.333 61 141 101
c26.667 46.667 41 91.334 43 134.001z" />
    <glyph glyph-name="afii10043" unicode="&#x429;" horiz-adv-x="1372" 
d="M1165 56c24.667 43.333 80.332 109.001 166.999 197.001c20.667 21.333 46.667 45 78 71l-3 4l-96 -75l-194 -151c-56.667 -41.333 -95.667 -69 -117 -83c-86 -54.667 -146.333 -82 -181 -82c-16.667 0 -30.167 5.33301 -40.5 16s-15.5 23.334 -15.5 38.001
c0 29.333 14 63 42 101c36.667 46.667 85 100 145 160c20.667 21.333 46.667 45 78 71l-3 4l-96 -75l-169 -132c-26 -42.667 -60 -83.667 -102 -123c-111.333 -104.667 -240.666 -154.667 -387.999 -150c-74 2.66699 -133.333 23 -178 61c-48 40.667 -71 95.667 -69 165
c2 70.667 29 145 81 223c54 80.667 124.667 149.667 212 207c139.333 92 295 138 467 138c84.667 0 172 -11 262 -33c4.66699 1.33301 10.667 3.33301 18 6s12 3 14 1c1.33301 -1.33301 1.33301 -5.33301 0 -12c0 -0.666992 -0.666992 -2.33398 -2 -5.00098
c17.333 -4.66699 32.666 -10.667 45.999 -18c9.33301 -4.66699 12.333 -9.33398 9 -14.001c-1.33301 -1.33301 -5 -0.333008 -11 3l-6 3c-10 5.33301 -24.333 10.666 -43 15.999c-2 -2.66699 -7.66699 -7.66699 -17 -15s-22.333 -16 -39 -26
c-54 -33.333 -128.333 -86.333 -223 -159c16 -34 22.667 -72.667 20 -116c-2.66699 -38 -12.667 -75.667 -30 -113l102 79l341 250c38.667 38.667 69.334 68 92.001 88c32.667 29.333 55.667 44 69 44c9.33301 0 14 -5 14 -15c0 -12 -9 -26 -27 -42
c-26 -24 -70.667 -53.667 -134 -89l-82 -77l-153 -148c-72.667 -72.667 -128.334 -135.334 -167.001 -188.001c-24 -33.333 -36 -61.333 -36 -84c0 -14.667 9.33301 -22 28 -22c28.667 0 83.334 27 164.001 81c41.333 27.333 88.333 61 141 101l132 102l341 250
c38.667 38.667 69.334 68 92.001 88c32.667 29.333 55.667 44 69 44c9.33301 0 14 -5 14 -15c0 -12 -9 -26 -27 -42c-26 -24 -70.667 -53.667 -134 -89l-82 -77l-153 -148c-72.667 -72.667 -134.334 -147 -185.001 -223c-22 -40 -12.333 -62 29 -66
c18 -3.33301 -6.33301 -34.333 -73 -93c-128.667 -103.333 -252.334 -155 -371.001 -155c-40.667 0 -73.5 8.66699 -98.5 26s-37.5 41.666 -37.5 72.999c0 19.333 3.66699 38.333 11 57c12.667 26.667 31.334 48.334 56.001 65.001c11.333 6.66699 18.333 8 21 4
c2 -2.66699 -2 -8 -12 -16c-20.667 -15.333 -37.334 -36.666 -50.001 -63.999c-6 -14 -8.66699 -29.333 -8 -46c0 -25.333 11 -45.5 33 -60.5s49.667 -22.5 83 -22.5c100 0 213.667 54 341 162c28.667 24 51.334 45.333 68.001 64c-32 4 -48 16 -48 36
c0 18.667 7 40.334 21 65.001zM1027 599.001c-77.333 14.667 -158.668 21.9971 -244.001 21.9971c-148.667 0 -298.334 -49.667 -449.001 -149c-84 -55.333 -153 -121.666 -207 -198.999c-52.667 -74 -79.667 -140.667 -81 -200c-2 -67.333 19 -119.666 63 -156.999
c40 -34 93.667 -52 161 -54c140.667 -4.66699 266 43.666 376 144.999c28 26 53.333 54 76 84c-48 -34.667 -82.667 -59 -104 -73c-86 -54.667 -146.333 -82 -181 -82c-16.667 0 -30.167 5.33301 -40.5 16s-15.5 23.334 -15.5 38.001c0 29.333 17.333 69 52 119
c49.333 70.667 127.333 151 234 241c24.667 20.667 53.334 43.334 86.001 68.001c-32 34 -77.333 51 -136 51c-41.333 0 -82.833 -11 -124.5 -33s-73.167 -49.167 -94.5 -81.5s-33.666 -59.5 -36.999 -81.5c-1.33301 -6.66699 -3.66602 -10 -6.99902 -10s-5 3.33301 -5 10
c3.33301 28.667 16.666 60 39.999 94c22 32 53.667 59.333 95 82c44 24 88.667 36 134 36c63.333 0 112.333 -19.333 147 -58c108 80.667 195.333 138 262 172zM793.996 269.998c2 42.667 -3.33398 78.665 -16.001 107.998l-109 -89
c-78 -65.333 -143.333 -133.666 -196 -204.999c-36.667 -49.333 -55 -85.333 -55 -108c0 -14.667 9.33301 -22 28 -22c28.667 0 83.334 27 164.001 81c41.333 27.333 88.333 61 141 101c26.667 46.667 41 91.334 43 134.001z" />
    <glyph glyph-name="afii10044" unicode="&#x42a;" horiz-adv-x="1170" 
d="M468 96c29.333 16.667 54.6621 32.667 75.9951 48c57.333 42 109 86.667 155 134c50.667 52 80.334 95.333 89.001 130c2.66699 11.333 4 22.333 4 33c0 28 -10 49.833 -30 65.5s-46 24.5 -78 26.5c-92 5.33301 -201 -29.667 -327 -105c9.33301 -26 24.333 -47 45 -63
c12 -9.33301 17.5 -16.166 16.5 -20.499s-10.5 0.166992 -28.5 13.5c-20.667 15.333 -36 35.666 -46 60.999c-6.66699 -4 -20 -12.667 -40 -26c-82 -56 -146 -113.667 -192 -173c-43.333 -55.333 -65.666 -106 -66.999 -152c-1.33301 -54 19.667 -93.333 63 -118
c32.667 -18.667 75.667 -28 129 -28c72 0 151.333 25.333 238 76c-18.667 19.333 -26.667 39.333 -24 60c-57.333 -27.333 -114.333 -41 -171 -41c-63.333 0 -93 26.333 -89 79c1.33301 17.333 6.33301 25.333 15 24c2.66699 -0.666992 3.33398 -3.66699 2.00098 -9
c-2.66699 -10 -4 -15.667 -4 -17c-2 -20.667 5.66699 -37 23 -49c14 -10 31.333 -15 52 -15c46 0 102.667 18.333 170 55c4.66699 48.667 23.334 88 56.001 118c6.66699 6 11.334 8 14.001 6c2 -2 -0.333008 -6.66699 -7 -14c-26 -27.333 -40.667 -60.333 -44 -99z
M469.996 66c-2.66699 -20.667 4.33594 -40 21.0029 -58c96 56.667 206.667 148 332 274c87.333 87.333 150.666 148 189.999 182c52.667 44.667 103.667 79.334 153 104.001c26 12.667 49.333 19 70 19c8 0 12 -2.33301 12 -7c0 -0.666992 -4 -1.66699 -12 -3
c-21.333 -3.33301 -42.333 -11 -63 -23c-70 -40 -163.667 -127.667 -281 -263c-124 -143.333 -248.333 -246.333 -373 -309c58 -44 127.667 -61.667 209 -53c104.667 20.667 198.667 71 282 151c74 70.667 123 139 147 205c8.66699 23.333 13 43.333 13 60
c0 37.333 -20.333 58 -61 62c-32 -11.333 -58.667 -28.666 -80 -51.999c-14 -11.333 -25.167 -17 -33.5 -17s-13.5 3.66699 -15.5 11c-4.66699 18.667 12 36.667 50 54c22.667 10.667 43.667 17.334 63 20.001c75.333 0 113 -34.333 113 -103
c0 -16.667 -2.33301 -34.334 -7 -53.001c-16 -64 -60.667 -128.667 -134 -194c-84 -75.333 -194.667 -128.666 -332 -159.999c-93.333 -10.667 -171.333 9.33301 -234 60c-86.667 -43.333 -172 -65 -256 -65c-146.667 0 -217.334 54.333 -212.001 163
c6 126.667 85.667 241.667 239 345c25.333 16.667 47.666 30 66.999 40c-1.33301 12 -0.666016 24 2.00098 36c13.333 69.333 63.333 122.666 150 159.999c72 31.333 154.333 47 247 47c154.667 0 313.667 -23.667 477 -71c28 -8 53.667 -17.667 77 -29
c15.333 -7.33301 21.666 -13.333 18.999 -18c0 -0.666992 -8.66699 2.33301 -26 9c-20.667 8 -44 15 -70 21c-148 35.333 -306.667 53 -476 53c-83.333 0 -162 -13.667 -236 -41c-100 -36.667 -150 -89.667 -150 -159c117.333 61.333 228.333 88.666 333 81.999
c34.667 -2 63.5 -12 86.5 -30s34.5 -42.667 34.5 -74c0 -50.667 -30.667 -111.334 -92 -182.001c-48 -55.333 -99.333 -102 -154 -140c-29.333 -20 -59 -38 -89 -54z" />
    </font>
</defs>
</svg>
