<svg xmlns="http://www.w3.org/2000/svg" width="407" height="89.653"><g data-name="Сгруппировать 24"><g data-name="Сгруппировать 533" style="isolation:isolate" fill="#fff"><path data-name="Контур 431" d="M159.546 57.37c0 .139-.153.255-.46.357a.987.987 0 00-.613.46c-.168.751-.357 1.619-.562 2.611q-.613 2.6-1.794 7.827h.2q2.713-.1 2.713 1.182c0 .2-.066.306-.2.306a2.3 2.3 0 01-.438-.255 2.792 2.792 0 00-1.452-.255 9.7 9.7 0 00-1.028.051q-1.893 7.67-4.858 11.919-5.523 8.088-11.771 8.081a6.078 6.078 0 01-4.114-1.43 4.806 4.806 0 01-1.666-3.836q0-5.471 7.776-10.489a33.451 33.451 0 0112.794-5.223q.35-1.937 1.174-5.879-3.425 6.083-6.091 6.091c-1.058 0-1.583-.584-1.583-1.743q0-2.6 2.56-6.4t4.96-4.6a4.641 4.641 0 011.692-.357 4.18 4.18 0 011.736.489c.682.32 1.025.684 1.025 1.093zm-5.522 12.232a28.846 28.846 0 00-8.038 2.918 30.924 30.924 0 00-7.163 4.7q-3.829 3.687-3.837 7.316a4.268 4.268 0 001.255 3.2 4.531 4.531 0 003.253 1.2 9.5 9.5 0 006.244-2.662 20.647 20.647 0 004.347-5.369 34.547 34.547 0 003.94-11.303zm3.122-12.079a2.214 2.214 0 00-.46-.051c-1.364 0-2.786.868-4.253 2.611q-3.118 3.786-3.122 6.193c0 .715.241 1.072.715 1.072.751 0 1.729-.78 2.918-2.356a29.309 29.309 0 004.203-7.469z"/><path data-name="Контур 432" d="M178.278 62.534a1.778 1.778 0 01-.306.875 18.617 18.617 0 01-3.333 4.092 7.072 7.072 0 01-4.604 2.253c-1.911 0-2.859-1.2-2.859-3.581a13.584 13.584 0 01.766-3.224c-1.2 1.736-1.962 2.816-2.3 3.224q-1.685 1.991-3.02 1.991c-1.123 0-1.685-.948-1.685-2.867a9.711 9.711 0 011.072-3.939c.78-1.772 1.641-2.655 2.56-2.655.511 0 .766.131.766.408 0 .036-.43.81-1.306 2.327a7.987 7.987 0 00-1.306 3.509c0 1.087.328 1.634.977 1.634q1.63 0 5.879-7.469c.241-.481.6-1.145 1.08-2a1.014 1.014 0 01.766-.408 1.168 1.168 0 01.839.387 1.229 1.229 0 01.387.89c0-.029-.605 1.109-1.816 3.428a13.02 13.02 0 00-1.816 5.376q0 1.794 1.685 1.794a5.3 5.3 0 003.282-1.641 22.317 22.317 0 002.757-3.071 11.513 11.513 0 011.386-1.641c.098.002.149.111.149.308z"/><path data-name="Контур 433" d="M191.422 69.806q0 .306-.153.306a1.279 1.279 0 01-.46-.255 2.677 2.677 0 00-1.437-.255 9.662 9.662 0 00-1.021.051q-.1 4.956-4.858 11.919-5.525 8.086-11.817 8.082a6 6 0 01-4.1-1.43 4.853 4.853 0 01-1.634-3.837q0-5.471 7.776-10.489a33.525 33.525 0 0112.744-5.223c-.036-2.145-.875-3.224-2.509-3.224a4.332 4.332 0 00-1.561.489 4.334 4.334 0 01-1.408.489c-.438 0-.664-.2-.664-.613a1.267 1.267 0 01.46-.773q5.525-5.066 5.529-6.8c0-.751-.43-1.131-1.284-1.131q-3.118 0-6.55 5.478c-.233.343-.408.511-.5.511-.146 0-.212-.087-.212-.255a1.249 1.249 0 01.212-.62 12.392 12.392 0 012.958-3.981 6.663 6.663 0 014.4-1.9q2.768 0 2.765 2.3 0 2.506-4.092 5.777h.153a3.753 3.753 0 012.9 1.2 4.821 4.821 0 011.349 2.991h.212c1.6-.029 2.516.2 2.757.722a1.735 1.735 0 01.045.471zm-4.96-.2a28.656 28.656 0 00-8.082 2.918 29.408 29.408 0 00-7.112 4.7q-3.9 3.687-3.9 7.316a4.268 4.268 0 001.255 3.2 4.608 4.608 0 003.3 1.2q5.832 0 10.591-8.031 3.849-6.5 3.948-11.307z"/><path data-name="Контур 434" d="M209.891 62.899a1.48 1.48 0 01-.306.715c-1.5 2.422-2.91 3.975-4.245 4.654a4 4 0 01-1.838.467c-2.086 0-3.122-1.473-3.122-4.406a11.562 11.562 0 01.1-1.532q-3.436 6.083-6.091 6.091c-1.058 0-1.583-.584-1.583-1.743q0-2.659 2.553-6.419t4.967-4.581a4.349 4.349 0 011.685-.357 2.924 2.924 0 012.664 1.273.888.888 0 01.153.357c0 .036-.117.088-.357.153a.83.83 0 00-.511.365 11.611 11.611 0 00-1.225 5.981q0 3.687 1.583 3.684 1.127 0 3.195-2.48a19.25 19.25 0 012.225-2.48c.109.003.153.083.153.258zm-7.52-5.376a2.1 2.1 0 00-.46-.051q-2.046 0-4.245 2.611-3.118 3.786-3.122 6.193c0 .715.241 1.072.715 1.072.751 0 1.721-.78 2.918-2.356a29.077 29.077 0 004.198-7.469z"/><path data-name="Контур 435" d="M225.085 62.533a1.757 1.757 0 01-.3.875 18.617 18.617 0 01-3.333 4.092 7.072 7.072 0 01-4.6 2.254c-1.911 0-2.859-1.2-2.859-3.581a13.583 13.583 0 01.766-3.224c-1.2 1.736-1.962 2.816-2.3 3.224q-1.685 1.991-3.02 1.991c-1.123 0-1.685-.948-1.685-2.867a9.711 9.711 0 011.072-3.939c.78-1.772 1.641-2.655 2.56-2.655.511 0 .766.131.766.408 0 .036-.43.81-1.306 2.327a7.987 7.987 0 00-1.306 3.509c0 1.087.328 1.634.97 1.634q1.641 0 5.886-7.469c.241-.481.6-1.145 1.08-2a1.014 1.014 0 01.766-.408 1.168 1.168 0 01.839.387 1.229 1.229 0 01.387.89c0-.029-.605 1.109-1.816 3.428a13.02 13.02 0 00-1.816 5.376q0 1.794 1.685 1.794a5.3 5.3 0 003.282-1.641 22.316 22.316 0 002.757-3.071 12.5 12.5 0 011.379-1.641c.103.001.146.11.146.307zm-1.582-12.276a.588.588 0 00-.2.263q-3.479 3.829-6.806 3.319a3.08 3.08 0 01-2.918-3.166 5.651 5.651 0 01.153-.875c.109-.343.241-.489.416-.46s.306.321.408.868a3.935 3.935 0 00.66 1.487 2.779 2.779 0 001.95 1.073q2.6.46 5.522-2.407c.241-.27.438-.394.613-.357a.244.244 0 01.202.255z"/><path data-name="Контур 436" d="M231.073 59.726a1.634 1.634 0 00.306-.511l.336-.773c.117-.27.233-.532.357-.788a1.941 1.941 0 01.328-.54 1.164 1.164 0 01.824-.357 1.042 1.042 0 011.175 1.182 1.282 1.282 0 01-.2.613q-2.867 4.7-2.867 7.469c0 1.291.613 1.94 1.845 1.94a4.74 4.74 0 003.071-1.481 16.08 16.08 0 002.4-2.765 6.431 6.431 0 011.229-1.487c.1 0 .153.109.153.306a1.727 1.727 0 01-.314.875q-3.477 5.777-7.206 5.789c-1.948 0-2.918-1.233-2.918-3.684a11.828 11.828 0 01.613-3.844c-.817.212-1.656.445-2.509.715s-1.736.605-2.655.977c-.073.27-.16.54-.255.8a5.638 5.638 0 00-.263.8 10.649 10.649 0 01-.919 3.268 1.428 1.428 0 01-1.174.868q-.46 0-.46-.919a.951.951 0 01.095-.408 33.351 33.351 0 001.131-3.144 60.428 60.428 0 001.123-4.274c.066-.27.139-.605.2-1s.175-.861.306-1.4a1.8 1.8 0 01.715-.722 2.028 2.028 0 011.028-.357c.233 0 .357.1.357.306a8.956 8.956 0 01-.408 1.561q-.416 1.3-1.174 3.764c.474-.175 1.05-.372 1.736-.591s1.488-.467 2.407-.737a5.842 5.842 0 001.021-.314c.172-.386.362-.765.566-1.137z"/><path data-name="Контур 437" d="M249.703 63.103a.736.736 0 01-.109.306 12.767 12.767 0 01-3.837 3.684 9.192 9.192 0 01-4.96 1.794q-3.228 0-3.224-4.048a10.17 10.17 0 012.3-5.828c1.634-2.254 3.326-3.377 5.062-3.377a1.14 1.14 0 01.9.46 1.5 1.5 0 01.379.97c0 1.058-.8 2.334-2.4 3.837a12.6 12.6 0 01-3.939 2.662 8.154 8.154 0 00-.357 2.152c0 1.393.627 2.093 1.889 2.093a7.6 7.6 0 004.044-1.479 15.425 15.425 0 003.333-2.918c.233-.343.474-.511.715-.511a.181.181 0 01.204.203zm-5.018-5.427a.542.542 0 00-.613-.613q-.766 0-2.254 2.356a12.609 12.609 0 00-1.583 3.115 8.992 8.992 0 002.768-1.991 4.437 4.437 0 001.682-2.867z"/><path data-name="Контур 438" d="M266.684 62.534a1.778 1.778 0 01-.306.875 15.731 15.731 0 01-4.4 4.4q-3.271 2.456-5.528 2.456c-.306 0-.766-.015-1.379-.051h-1.327a11.121 11.121 0 01-1.539-.357 56.122 56.122 0 01-4.3 8.593q-3.84 6.248-6.244 6.244c-.853 0-1.277-.635-1.277-1.9q0-2.506 4.6-9.307 3.271-4.508 6.6-9.059v-.306c0-1.225-.015-2.3-.051-3.224q-1.948 3.173-2.451 3.173c-.212 0-.314-.117-.314-.357a.679.679 0 01.153-.408 10.181 10.181 0 002.262-5.681 1.311 1.311 0 00-.277-.846.928.928 0 01-.284-.533c0-.139.525-.2 1.583-.2q1.74 0 1.743 3.479c0 .343-.029.846-.08 1.51s-.073 1.152-.073 1.459a33.513 33.513 0 013.173-4.814q2.659-3.271 4.449-3.275c1.087 0 1.634.8 1.634 2.407a15.36 15.36 0 01-2.119 7.006 14.327 14.327 0 01-4.632 5.573q4.453-.1 9.876-6.9.208-.263.306-.263c.136 0 .202.109.202.306zm-15.552 4.661a.138.138 0 00-.1-.051c-.139 0-.328.168-.569.511-.81 1.233-2.042 3.034-3.676 5.427a43.443 43.443 0 00-2.715 4.653q-1.893 3.633-1.9 4.7 0 .46.306.46 2.254 0 6.193-7.367a32.829 32.829 0 002.2-6.7 2.378 2.378 0 01-.051-.511 2.149 2.149 0 01.312-1.122zm9.665-9.315c0-1.058-.284-1.583-.868-1.583a1.416 1.416 0 00-.511.1c-1.225.547-2.524 2.13-3.888 4.763a33.534 33.534 0 00-2.458 5.981 11.9 11.9 0 001.794 1.94c1.5-.642 2.881-2.268 4.143-4.858a15 15 0 001.788-6.343z"/></g><g data-name="Сгруппировать 23" fill="#fff"><path data-name="Контур 1" d="M5.463 30.337c0 .219.036.314.2.314.408 0 4.34 0 5.077-.058.766-.066 1.211-.131 1.5-.452.219-.255.35-.416.474-.416.1 0 .168.066.168.255a30.779 30.779 0 00-.379 3.837c0 .35-.036.605-.226.605-.168 0-.226-.124-.226-.284a3.445 3.445 0 00-.124-1.058c-.131-.445-.416-.985-1.663-1.116-.864-.096-4.027-.173-4.564-.173a.215.215 0 00-.226.182v8.318c0 2.108.576 2.626 3.706 2.626a9.241 9.241 0 003.064-.357c.832-.35 1.218-.992 1.444-2.3.058-.35.124-.481.284-.481.19 0 .19.255.19.481a31.94 31.94 0 01-.416 3.1c-.219.824-.474.824-1.721.824-4.829 0-6.966-.19-7.892-.19-.824 0-2.429.095-3.137.095-.35 0-.511-.066-.511-.255 0-.095.066-.19.255-.19a3.513 3.513 0 00.956-.131c.511-.16.671-.445.868-1.371a64.455 64.455 0 00.219-7.316v-5.613c0-5.369-.029-6.711-.095-7.25a1.413 1.413 0 00-1.342-1.466 6.028 6.028 0 00-1.087-.1c-.124 0-.255-.058-.255-.19 0-.19.168-.255.511-.255 1.437 0 3.45.095 3.611.095 3.45 0 6.711-.029 7.221-.066s1.277-.095 1.408-.124c.19-.066.321-.19.445-.19s.19.19.19.35c0 .226-.16.605-.255 1.5-.029.314-.095 1.721-.16 2.108-.036.16-.095.321-.255.321s-.226-.131-.226-.357a3.313 3.313 0 00-.292-1.211c-.19-.416-.956-1.058-2.837-1.058-.19 0-3.071-.095-3.705-.095-.131 0-.19.066-.19.292z"/><path data-name="Контур 2" d="M28.28 43.656a12.035 12.035 0 01-1.247-.124c-.956-.131-1.152-.832-1.247-1.765-.168-1.335-.168-3.859-.168-6.93v-3.144h.168c1.029 1.269 4.413 4.975 6.966 7.637a5.157 5.157 0 01.9-1.422 4.187 4.187 0 01.78-.656c-2.451-2.495-5.857-6.032-6.441-6.674.671-.8 6.229-6.229 7.032-7a11.993 11.993 0 013.45-2.743 4.611 4.611 0 011.787-.445c.255 0 .321-.066.321-.226s-.124-.226-.481-.226c-.8 0-2.9.095-3.064.095-.766 0-1.758-.095-2.4-.095-.219 0-.379.066-.379.226 0 .124.124.19.284.255a.622.622 0 01.416.671c0 .54-.824 1.371-1.721 2.3-1.16 1.247-6.937 7.126-7.477 7.732h-.124v-1.9c0-4.982 0-5.879.058-6.9.066-1.116.321-1.656 1.182-1.816a4.921 4.921 0 01.8-.095c.124 0 .255-.066.255-.19 0-.2-.168-.255-.511-.255-.963 0-2.808.095-3.1.095-.19 0-2.079-.095-3.516-.095-.35 0-.511.058-.511.255 0 .124.124.19.255.19a6.022 6.022 0 011.087.095c1.058.226 1.306.737 1.371 1.816.066 1.021.066 1.918.066 6.9v5.617c0 3.071 0 5.587-.168 6.937-.124.926-.284 1.627-.926 1.758a5.285 5.285 0 01-.956.131c-.19 0-.255.095-.255.19 0 .19.168.255.511.255.963 0 2.808-.095 3.071-.095s2.1.095 3.669.095c.35 0 .511-.095.511-.255.007-.104-.058-.199-.248-.199z"/><path data-name="Контур 3" d="M56.636 20.659c.474 1.211 5.493 14.406 7.44 19.257 1.152 2.845 2.079 3.355 2.75 3.552a4.163 4.163 0 001.28.191c.19 0 .321.029.321.19 0 .19-.292.255-.642.255-.481 0-2.808 0-5.018-.066-.605-.029-.956-.029-.956-.219a.237.237 0 01.226-.226.452.452 0 00.255-.445 1 1 0 00-.066-.416l-2.976-7.856a.277.277 0 00-.284-.2h-6.871a.335.335 0 00-.321.255l-1.911 5.66a6.544 6.544 0 00-.445 2.145c0 .635.664.926 1.211.926h.321c.219 0 .321.066.321.19 0 .19-.2.255-.481.255-.766 0-2.145-.095-2.495-.095s-2.108.095-3.611.095c-.416 0-.605-.066-.605-.255 0-.124.131-.19.292-.19.219 0 .664-.036.926-.066 1.466-.19 2.108-1.408 2.677-3.005l7.262-19.832c.379-1.058.511-1.247.7-1.247s.317.153.7 1.147zm1.911 12.874c.168 0 .168-.095.131-.219l-3.034-8.629c-.095-.255-.168-.35-.255-.35-.066 0-.168.124-.226.35l-2.808 8.629c-.066.16 0 .219.095.219z"/><path data-name="Контур 4" d="M77.866 34.836c0 3.071 0 5.595.168 6.937.095.926.284 1.634 1.24 1.758q.722.1 1.444.131c.19 0 .255.095.255.19 0 .168-.168.255-.518.255-1.751 0-3.764-.095-3.924-.095s-2.174.095-3.137.095c-.35 0-.511-.066-.511-.255 0-.095.058-.19.255-.19a5.285 5.285 0 00.956-.131c.642-.124.8-.824.926-1.758.168-1.342.168-3.866.168-6.937V21.328l-4.727.058c-1.984.036-2.75.255-3.261 1.021a6.575 6.575 0 00-.547.992c-.095.255-.19.321-.321.321-.095 0-.16-.095-.16-.284 0-.321.635-3.071.7-3.326.066-.19.19-.605.321-.605a6.3 6.3 0 001.408.387c.926.095 2.145.16 2.524.16h11.976a15.388 15.388 0 003.166-.321c.161 0 .161.19.161.387 0 .956-.095 3.166-.095 3.516 0 .284-.095.416-.226.416-.16 0-.219-.1-.255-.547l-.029-.35c-.131-.956-.861-1.692-3.932-1.758l-4.026-.066z"/><path data-name="Контур 5" d="M96.619 30.337c0 .219.036.314.2.314.408 0 4.34 0 5.077-.058.766-.066 1.211-.131 1.5-.452.226-.255.35-.416.474-.416.1 0 .168.066.168.255a30.784 30.784 0 00-.379 3.837c0 .35-.036.605-.226.605-.168 0-.226-.124-.226-.284a3.447 3.447 0 00-.124-1.058c-.131-.445-.416-.985-1.663-1.116-.861-.096-4.027-.173-4.567-.173a.211.211 0 00-.226.182v8.318c0 2.108.576 2.626 3.705 2.626a9.241 9.241 0 003.064-.357c.832-.35 1.218-.992 1.444-2.3.058-.35.124-.481.284-.481.19 0 .19.255.19.481a31.94 31.94 0 01-.416 3.1c-.219.824-.474.824-1.721.824-4.821 0-6.966-.19-7.892-.19-.824 0-2.429.095-3.137.095-.35 0-.511-.066-.511-.255 0-.095.066-.19.255-.19a3.513 3.513 0 00.956-.131c.511-.16.671-.445.868-1.371a64.462 64.462 0 00.219-7.316v-5.613c0-5.369-.029-6.711-.095-7.25a1.413 1.413 0 00-1.342-1.466 6.027 6.027 0 00-1.087-.1c-.124 0-.255-.058-.255-.19 0-.19.168-.255.511-.255 1.437 0 3.45.095 3.611.095 3.45 0 6.711-.029 7.221-.066s1.276-.095 1.408-.124c.19-.066.314-.19.445-.19s.19.19.19.35c0 .226-.168.605-.255 1.5-.029.314-.095 1.721-.16 2.108-.036.16-.1.321-.255.321s-.226-.131-.226-.357a3.5 3.5 0 00-.284-1.211c-.2-.416-.963-1.058-2.845-1.058-.2 0-3.071-.095-3.705-.095-.131 0-.2.066-.2.292z"/><path data-name="Контур 6" d="M114.228 29.213c0-4.982 0-5.879-.066-6.9-.066-1.08-.321-1.6-1.371-1.816a6.021 6.021 0 00-1.087-.095c-.131 0-.255-.066-.255-.19 0-.2.168-.255.511-.255 1.437 0 3.355.095 3.611.095.7 0 2.553-.095 4.026-.095 3.99 0 5.427 1.342 5.945 1.816a5.565 5.565 0 011.6 3.8 7.41 7.41 0 01-7.221 7.6 6.306 6.306 0 01-.642-.007 4.187 4.187 0 01-.671-.036c-.16 0-.35-.058-.35-.219 0-.255.2-.292.868-.292a5.306 5.306 0 005.518-5.076v-.131a6.765 6.765 0 00-1.787-4.916 5.578 5.578 0 00-4.377-1.6 4.133 4.133 0 00-1.371.19c-.2.066-.263.292-.263.613v13.13c0 3.064 0 5.587.168 6.937.095.926.292 1.627 1.247 1.758a13.476 13.476 0 001.437.124c.19 0 .255.095.255.19 0 .168-.168.255-.511.255-1.758 0-3.771-.095-3.932-.095-.095 0-2.108.095-3.064.095-.35 0-.511-.058-.511-.255 0-.095.066-.19.255-.19a5.274 5.274 0 00.956-.124c.642-.131.8-.832.926-1.758.168-1.342.168-3.866.168-6.937z"/><path data-name="Контур 7" d="M135.541 29.214c-.066-4.982 0-5.879-.066-6.9-.066-1.08-.321-1.6-1.371-1.816a6.079 6.079 0 00-1.087-.095c-.131 0-.255-.066-.255-.19 0-.2.16-.255.511-.255 1.437 0 3.45.095 3.611.095s2.166-.095 3.137-.095c.35 0 .511.058.511.255 0 .124-.131.19-.255.19a4.921 4.921 0 00-.8.095c-.861.168-1.116.7-1.182 1.816-.058 1.021-.058 5.974-.058 16.514 0 .255.16.292.284.131 4.537-5.274 9.008-10.606 15.559-19.074.416-.671.926-.54.766.511v14.441c0 3.064 0 5.587.16 6.937.1.926.292 1.627 1.247 1.758a13.641 13.641 0 001.437.124c.2 0 .255.095.255.19 0 .168-.16.263-.511.263-1.758 0-3.771-.1-3.924-.1s-2.174.1-3.137.1c-.357 0-.511-.066-.511-.263 0-.095.058-.19.248-.19a4.7 4.7 0 00.963-.124c.635-.131.8-.824.926-1.758.168-1.342.168-3.866.168-6.937V25.61c0-.387-.168-.576-.452-.226-4.216 4.916-8.4 9.935-12.356 15.106l-2.655 3.421-.387.511c-.408.671-.926.54-.766-.511z"/><path data-name="Контур 8" d="M186.302 34.837c0 3.071 0 5.595.168 6.937.095.926.284 1.634 1.247 1.758.474.066.956.109 1.437.131.19 0 .255.095.255.19 0 .168-.168.255-.511.255-1.758 0-3.771-.095-3.932-.095s-2.174.095-3.137.095c-.35 0-.511-.066-.511-.255 0-.095.066-.19.255-.19a5.455 5.455 0 00.963-.131c.635-.124.8-.824.926-1.758.16-1.342.16-3.866.16-6.937v-3.005a.181.181 0 00-.175-.19h-13.55a.172.172 0 00-.2.139v3.056c0 3.071 0 5.595.168 6.937.095.926.284 1.634 1.247 1.758.474.066.956.109 1.437.131.19 0 .255.095.255.19 0 .168-.168.255-.511.255-1.758 0-3.771-.095-3.932-.095s-2.174.095-3.137.095c-.35 0-.511-.066-.511-.255 0-.095.066-.19.255-.19a5.285 5.285 0 00.956-.131c.642-.124.8-.824.926-1.758.168-1.342.168-3.866.168-6.937v-5.609c0-4.989 0-5.879-.066-6.908-.066-1.08-.321-1.59-1.371-1.816a6.021 6.021 0 00-1.087-.095c-.131 0-.255-.066-.255-.19 0-.19.16-.255.511-.255 1.437 0 3.45.095 3.611.095s2.174-.095 3.137-.095c.35 0 .511.066.511.255 0 .124-.131.19-.255.19a5.876 5.876 0 00-.8.095c-.861.168-1.116.708-1.182 1.816-.058 1.029-.058 2.276-.058 7.258v.671a.16.16 0 00.131.19h13.6a.172.172 0 00.2-.131v-.729c0-4.982 0-6.229-.066-7.258-.066-1.08-.321-1.59-1.371-1.816a6.079 6.079 0 00-1.087-.095c-.131 0-.263-.066-.263-.19 0-.19.168-.255.518-.255 1.437 0 3.45.095 3.611.095s2.166-.095 3.137-.095c.35 0 .511.066.511.255 0 .124-.131.19-.255.19a5.876 5.876 0 00-.8.095c-.861.168-1.116.708-1.182 1.816-.071 1.028-.071 1.917-.071 6.907z"/><path data-name="Контур 9" d="M204.494 20.659c.474 1.211 5.493 14.406 7.44 19.257 1.152 2.845 2.079 3.355 2.75 3.552a4.2 4.2 0 001.276.191c.19 0 .321.029.321.19 0 .19-.292.255-.642.255-.481 0-2.808 0-5.018-.066-.605-.029-.956-.029-.956-.219a.237.237 0 01.226-.226.452.452 0 00.255-.445 1 1 0 00-.066-.416l-2.969-7.856a.291.291 0 00-.292-.2h-6.864a.335.335 0 00-.321.255l-1.918 5.66a6.737 6.737 0 00-.445 2.145c0 .635.671.926 1.211.926h.321c.226 0 .321.066.321.19 0 .19-.19.255-.481.255-.766 0-2.145-.095-2.487-.095s-2.108.095-3.611.095c-.416 0-.613-.066-.613-.255 0-.124.131-.19.292-.19.226 0 .671-.036.926-.066 1.466-.19 2.108-1.408 2.684-3.005l7.25-19.833c.387-1.058.511-1.247.7-1.247s.323.154.71 1.148zm1.911 12.874c.168 0 .168-.095.131-.219l-3.034-8.636c-.095-.255-.168-.35-.255-.35-.066 0-.168.124-.226.35l-2.808 8.629c-.066.16 0 .226.095.226z"/><path data-name="Контур 10" d="M232.832 29.213c0-4.982 0-5.879-.066-6.9-.066-1.08-.321-1.6-1.371-1.816a6.079 6.079 0 00-1.087-.095c-.131 0-.255-.066-.255-.19 0-.2.16-.255.511-.255 1.437 0 3.319.095 3.509.095.292 0 2.152-.095 3.1-.095.357 0 .511.058.511.255 0 .124-.124.19-.255.19a4.93 4.93 0 00-.8.095c-.868.168-1.116.7-1.182 1.816-.066 1.021-.066 1.918-.066 6.9v1.923h.131c.54-.605 6.324-6.485 7.469-7.732.9-.926 1.729-1.758 1.729-2.3a.63.63 0 00-.416-.671c-.168-.066-.284-.131-.284-.255 0-.168.16-.226.379-.226.642 0 1.627.095 2.4.095.16 0 2.261-.095 3.064-.095.35 0 .481.066.481.226s-.066.226-.321.226a4.781 4.781 0 00-1.794.445 11.866 11.866 0 00-3.443 2.75c-.8.766-6.361 6.193-7.032 7 .824.926 7.477 7.79 8.782 9.008 2.684 2.487 3.231 3 4.763 3.64a5.915 5.915 0 001.984.416c.219 0 .408.066.408.19 0 .168-.16.255-.7.255h-1.622c-.9 0-1.5 0-2.21-.066a6.629 6.629 0 01-3.866-1.948c-1.437-1.182-8.206-8.5-9.738-10.38h-.168v3.137c0 3.071 0 5.587.168 6.937.095.926.284 1.627 1.247 1.758a11.711 11.711 0 001.24.131c.2 0 .255.095.255.19 0 .16-.16.255-.511.255-1.561 0-3.414-.095-3.669-.095s-2.108.095-3.071.095c-.35 0-.511-.066-.511-.255 0-.095.066-.19.255-.19a5.455 5.455 0 00.963-.131c.635-.131.8-.824.926-1.758.16-1.342.16-3.866.16-6.937z"/><path data-name="Контур 11" d="M266.604 19.504c7.185 0 12.546 4.537 12.546 11.977a12.534 12.534 0 01-11.991 13.057c-.248.015-.5.015-.744.015-8.753 0-12.393-6.806-12.393-12.553a12.366 12.366 0 0112.232-12.496zm.671 23.83c2.874 0 8.811-1.656 8.811-10.956 0-7.666-4.661-11.787-9.709-11.787-5.332 0-9.329 3.516-9.329 10.511 0 7.447 4.471 12.232 10.227 12.232z"/><path data-name="Контур 12" d="M291.748 31.781l-5.121-8.585a5.078 5.078 0 00-2.495-2.56 5.489 5.489 0 00-1.335-.219c-.2 0-.292-.1-.292-.226 0-.168.131-.226.54-.226.9 0 3.487.095 3.742.095.284 0 1.918-.095 3.005-.095.445 0 .54.066.54.226s-.095.226-.284.226a2.624 2.624 0 00-.861.095.527.527 0 00-.387.54 2.355 2.355 0 00.321 1.058c1.342 2.517 2.648 4.887 4.311 7.63.956-1.371 4.377-6.835 4.7-7.506a2.555 2.555 0 00.321-1.152.7.7 0 00-.547-.576 3.515 3.515 0 00-.956-.095c-.2 0-.292-.066-.292-.226 0-.131.168-.226.547-.226 1.211 0 2.553.095 2.845.095s1.59-.095 2.677-.095c.357 0 .511.095.511.226s-.124.226-.35.226a3.431 3.431 0 00-1.05.16c-.926.292-1.532 1.218-2.458 2.589l-5.15 7.732c.613.992 6.076 10.285 6.747 11.146a3.479 3.479 0 001.882 1.444 5.254 5.254 0 001.116.19c.168 0 .255.066.255.19 0 .168-.16.255-.445.255-1.948 0-3.479-.029-5.113-.066-.824-.066-.992-.095-.992-.255a.257.257 0 01.2-.255c.168-.058.445-.379.168-.89-1.729-3.144-3.581-6.295-5.5-9.526l-4.982 8.469a3.285 3.285 0 00-.416 1.408.618.618 0 00.511.605 4.369 4.369 0 00.613.066.222.222 0 01.248.2v.022c0 .168-.16.226-.379.226-.766 0-2.779-.095-3.064-.095s-1.853.095-2.91.095c-.255 0-.321-.095-.321-.226a.223.223 0 01.233-.219h.022a5.325 5.325 0 001.218-.168c.956-.255 1.6-.956 2.648-2.589z"/><path data-name="Контур 13" d="M319.604 19.504c7.192 0 12.553 4.537 12.553 11.977a12.54 12.54 0 01-12 13.057c-.248.015-.5.015-.751.015-8.746 0-12.393-6.806-12.393-12.553a12.367 12.367 0 0112.241-12.496zm.671 23.83c2.881 0 8.819-1.656 8.819-10.956 0-7.666-4.661-11.787-9.709-11.787-5.339 0-9.329 3.516-9.329 10.511 0 7.447 4.471 12.232 10.219 12.232z"/><path data-name="Контур 14" d="M354.434 37.23c0 3.414-2.684 6.966-8.148 6.966-.737 0-3.99-.2-4.245-.2-.168 0-2.174.095-3.137.095-.357 0-.511-.058-.511-.255 0-.095.058-.19.255-.19a3.277 3.277 0 00.956-.124c.511-.168.671-.452.861-1.379a62.763 62.763 0 00.226-7.316v-5.606c0-5.369-.036-6.711-.095-7.258a1.423 1.423 0 00-1.342-1.466 6.021 6.021 0 00-1.087-.095c-.131 0-.255-.066-.255-.19 0-.2.168-.255.511-.255 1.437 0 3.45.095 3.611.095.766 0 2.013-.095 3.479-.095 5.237 0 6.39 3.188 6.39 4.785a8.047 8.047 0 01-3.005 5.755 7.454 7.454 0 015.536 6.733zm-11.182-7.316a.306.306 0 00.226.35 11.555 11.555 0 001.948.131c1.787 0 2.239-.066 2.9-.832a4.943 4.943 0 001.161-3.22c0-2.659-1.18-5.5-4.309-5.5a7.3 7.3 0 00-1.539.16c-.284.066-.379.168-.379.35zm0 9.329c0 2.393.131 2.969 1.116 3.45a7.534 7.534 0 002.808.474 4.261 4.261 0 004.508-4q.011-.263 0-.525a7.766 7.766 0 00-3.1-6.455 5.588 5.588 0 00-3.421-.963c-1.882 0-1.918.036-1.918.255z"/><path data-name="Контур 15" d="M366.126 30.337c0 .219.036.314.2.314.416 0 4.34 0 5.077-.058.766-.066 1.218-.131 1.5-.452.219-.255.35-.416.481-.416.095 0 .16.066.16.255a32.232 32.232 0 00-.379 3.837c0 .35-.036.605-.226.605-.168 0-.226-.124-.226-.284a3.446 3.446 0 00-.124-1.058c-.131-.445-.416-.985-1.663-1.116-.861-.096-4.026-.173-4.566-.173a.215.215 0 00-.226.182v8.318c0 2.108.576 2.626 3.705 2.626a9.307 9.307 0 003.071-.357c.824-.35 1.211-.992 1.437-2.3.058-.35.124-.481.284-.481.19 0 .19.255.19.481a29.827 29.827 0 01-.416 3.1c-.219.824-.474.824-1.721.824-4.821 0-6.966-.19-7.892-.19-.824 0-2.429.095-3.137.095-.35 0-.511-.066-.511-.255 0-.095.066-.19.255-.19a3.513 3.513 0 00.956-.131c.511-.16.671-.445.868-1.371a64.457 64.457 0 00.219-7.316v-5.613c0-5.369-.029-6.711-.095-7.25a1.413 1.413 0 00-1.342-1.466 6.027 6.027 0 00-1.087-.106c-.124 0-.255-.058-.255-.19 0-.19.168-.255.511-.255 1.437 0 3.45.095 3.611.095 3.45 0 6.711-.029 7.221-.066s1.276-.095 1.408-.124c.19-.066.321-.19.445-.19s.19.19.19.35c0 .226-.16.605-.255 1.5-.029.314-.095 1.721-.16 2.108-.036.16-.1.321-.263.321s-.219-.131-.219-.357a3.506 3.506 0 00-.292-1.211c-.19-.416-.956-1.058-2.837-1.058-.2 0-3.071-.095-3.705-.095-.131 0-.2.066-.2.292z"/><path data-name="Контур 16" d="M400.184 41.767c.168-1.335.168-3.859.168-6.93v-5.616c0-4.982 0-5.879-.066-6.9-.058-1.087-.321-1.6-1.371-1.816a5.424 5.424 0 00-1.087-.095c-.124 0-.255-.066-.255-.2 0-.19.168-.255.511-.255 1.437 0 3.45.095 3.611.095s2.174-.095 3.137-.095c.35 0 .511.066.511.255 0 .131-.124.2-.255.2a4.154 4.154 0 00-.8.095c-.868.16-1.123.7-1.182 1.816-.066 1.021-.066 1.918-.066 6.9v5.617c0 2.422 0 4.5.066 5.945-.066 2.582 1.656 2.013 2.108 1.977a14.556 14.556 0 001.663-.255c.16 0 .124.2.095.387-.2.956-.642 3.319-.708 3.669-.066.292-.124.416-.314.416-.168 0-.263-.095-.226-.54v-.35c0-.992.095-2.079-2.495-2.079h-1.528c-.131 0-1.276.066-2.269.095h-11.641c-1.371-.029-2.589-.095-2.713-.095-.168 0-2.174.095-3.144.095-.343 0-.5-.066-.5-.255 0-.095.058-.19.255-.19a5.274 5.274 0 00.956-.124c.642-.131.8-.832.926-1.765.168-1.335.168-3.859.168-6.93v-5.618c0-4.982 0-5.879-.066-6.9-.066-1.087-.321-1.6-1.379-1.816a5.424 5.424 0 00-1.087-.095c-.124 0-.248-.066-.248-.2 0-.19.16-.255.511-.255 1.437 0 3.45.095 3.6.095s2.174-.095 3.144-.095c.35 0 .511.066.511.255 0 .131-.131.2-.255.2a4.23 4.23 0 00-.8.095c-.861.16-1.116.7-1.182 1.816-.069 1.022-.069 1.881-.069 12.522 0 3.064 0 5.587.168 6.937a2.8 2.8 0 00.255 1.116 112.63 112.63 0 0013.13 0 4.554 4.554 0 00.212-1.129z"/><path data-name="Контур 17" d="M43.555 46.931l-15.61-16.434h-.97l-1.42 1.276L40.596 47.58c6.878 7.258 12.648 6.5 15.2 5.908v-.387c-4.741.023-9.149-2.888-12.241-6.17z"/></g><path data-name="Прямоугольник 35" fill="none" d="M70.559 1.655H345.5v.722H70.559z"/><path data-name="Контур 18" d="M70.568 2.378v-.722h274.931v16.178h1.656V0H68.916v17.834h1.652z" fill="#cc870b"/><path data-name="Прямоугольник 36" fill="none" d="M70.559 2.375H345.5v15.462H70.559z"/><path data-name="Контур 19" d="M345.499 46.399v16.186h-74.27v1.649h75.926V46.399z" fill="#cc870b"/><path data-name="Контур 20" d="M70.568 62.578V46.399H68.92v17.834h73.412v-1.655z" fill="#cc870b"/></g></svg>